G04 #@! TF.GenerationSoftware,KiCad,Pcbnew,7.0.5-4d25ed1034~172~ubuntu22.04.1*
G04 #@! TF.CreationDate,2023-07-05T09:01:56+07:00*
G04 #@! TF.ProjectId,TMPboardM,544d5062-6f61-4726-944d-2e6b69636164,rev?*
G04 #@! TF.SameCoordinates,Original*
G04 #@! TF.FileFunction,Soldermask,Top*
G04 #@! TF.FilePolarity,Negative*
%FSLAX46Y46*%
G04 Gerber Fmt 4.6, Leading zero omitted, Abs format (unit mm)*
G04 Created by KiCad (PCBNEW 7.0.5-4d25ed1034~172~ubuntu22.04.1) date 2023-07-05 09:01:56*
%MOMM*%
%LPD*%
G01*
G04 APERTURE LIST*
G04 Aperture macros list*
%AMRoundRect*
0 Rectangle with rounded corners*
0 $1 Rounding radius*
0 $2 $3 $4 $5 $6 $7 $8 $9 X,Y pos of 4 corners*
0 Add a 4 corners polygon primitive as box body*
4,1,4,$2,$3,$4,$5,$6,$7,$8,$9,$2,$3,0*
0 Add four circle primitives for the rounded corners*
1,1,$1+$1,$2,$3*
1,1,$1+$1,$4,$5*
1,1,$1+$1,$6,$7*
1,1,$1+$1,$8,$9*
0 Add four rect primitives between the rounded corners*
20,1,$1+$1,$2,$3,$4,$5,0*
20,1,$1+$1,$4,$5,$6,$7,0*
20,1,$1+$1,$6,$7,$8,$9,0*
20,1,$1+$1,$8,$9,$2,$3,0*%
%AMFreePoly0*
4,1,9,1.050000,0.350000,0.550000,0.000000,0.550000,-0.400000,0.800000,-0.650000,0.800000,-0.800000,-1.050000,-0.800000,-1.050000,0.800000,1.050000,0.800000,1.050000,0.350000,1.050000,0.350000,$1*%
%AMFreePoly1*
4,1,9,1.050000,-0.800000,-0.800000,-0.800000,-0.800000,-0.650000,-0.550000,-0.400000,-0.550000,0.000000,-1.050000,0.350000,-1.050000,0.800000,1.050000,0.800000,1.050000,-0.800000,1.050000,-0.800000,$1*%
G04 Aperture macros list end*
%ADD10RoundRect,0.100000X-0.100000X0.217500X-0.100000X-0.217500X0.100000X-0.217500X0.100000X0.217500X0*%
%ADD11RoundRect,0.155000X0.155000X-0.212500X0.155000X0.212500X-0.155000X0.212500X-0.155000X-0.212500X0*%
%ADD12R,1.700000X1.700000*%
%ADD13O,1.700000X1.700000*%
%ADD14RoundRect,0.155000X-0.212500X-0.155000X0.212500X-0.155000X0.212500X0.155000X-0.212500X0.155000X0*%
%ADD15RoundRect,0.100000X0.100000X-0.217500X0.100000X0.217500X-0.100000X0.217500X-0.100000X-0.217500X0*%
%ADD16RoundRect,0.100000X-0.217500X-0.100000X0.217500X-0.100000X0.217500X0.100000X-0.217500X0.100000X0*%
%ADD17RoundRect,0.100000X0.217500X0.100000X-0.217500X0.100000X-0.217500X-0.100000X0.217500X-0.100000X0*%
%ADD18C,0.600000*%
%ADD19R,0.400000X1.350000*%
%ADD20FreePoly0,180.000000*%
%ADD21O,1.000000X1.700000*%
%ADD22R,1.900000X1.900000*%
%ADD23O,0.850000X1.700000*%
%ADD24FreePoly1,180.000000*%
%ADD25R,1.500000X2.000000*%
%ADD26R,3.800000X2.000000*%
%ADD27RoundRect,0.155000X0.212500X0.155000X-0.212500X0.155000X-0.212500X-0.155000X0.212500X-0.155000X0*%
%ADD28RoundRect,0.237500X0.237500X-0.287500X0.237500X0.287500X-0.237500X0.287500X-0.237500X-0.287500X0*%
%ADD29C,2.000000*%
%ADD30C,3.000000*%
%ADD31RoundRect,0.050000X-0.387500X-0.050000X0.387500X-0.050000X0.387500X0.050000X-0.387500X0.050000X0*%
%ADD32RoundRect,0.050000X-0.050000X-0.387500X0.050000X-0.387500X0.050000X0.387500X-0.050000X0.387500X0*%
%ADD33R,3.200000X3.200000*%
%ADD34R,1.800000X2.100000*%
%ADD35RoundRect,0.150000X0.150000X-0.650000X0.150000X0.650000X-0.150000X0.650000X-0.150000X-0.650000X0*%
%ADD36R,2.100000X1.100000*%
G04 APERTURE END LIST*
D10*
X98320000Y-75555000D03*
X98320000Y-76370000D03*
D11*
X96480000Y-61380000D03*
X96480000Y-60245000D03*
D12*
X73455000Y-53515000D03*
D13*
X73455000Y-56055000D03*
X73455000Y-58595000D03*
X73455000Y-61135000D03*
X73455000Y-63675000D03*
X73455000Y-66215000D03*
X73455000Y-68755000D03*
X73455000Y-71295000D03*
X73455000Y-73835000D03*
X73455000Y-76375000D03*
X73455000Y-78915000D03*
X73455000Y-81455000D03*
X73455000Y-83995000D03*
X73455000Y-86535000D03*
X73455000Y-89075000D03*
X73455000Y-91615000D03*
X73455000Y-94155000D03*
X73455000Y-96695000D03*
D14*
X93232500Y-67560000D03*
X94367500Y-67560000D03*
D10*
X91280000Y-77090000D03*
X91280000Y-77905000D03*
D15*
X91920000Y-65707500D03*
X91920000Y-64892500D03*
D16*
X93862500Y-72360000D03*
X94677500Y-72360000D03*
D12*
X78595000Y-79490000D03*
D13*
X78595000Y-82030000D03*
D17*
X81587500Y-68340000D03*
X80772500Y-68340000D03*
D18*
X90660000Y-55782500D03*
X86660000Y-55782500D03*
D19*
X89960000Y-56107500D03*
X89310000Y-56107500D03*
X88660000Y-56107500D03*
X88010000Y-56107500D03*
X87360000Y-56107500D03*
D20*
X91760000Y-55982500D03*
D21*
X91485000Y-53432500D03*
D22*
X89860000Y-53432500D03*
X87460000Y-53432500D03*
D23*
X85835000Y-53432500D03*
D24*
X85560000Y-55982500D03*
D10*
X90380000Y-77080000D03*
X90380000Y-77895000D03*
D17*
X85327500Y-77680000D03*
X84512500Y-77680000D03*
D25*
X102170000Y-63770000D03*
X99870000Y-63770000D03*
D26*
X99870000Y-70070000D03*
D25*
X97570000Y-63770000D03*
D27*
X81837500Y-67290000D03*
X80702500Y-67290000D03*
D17*
X90207500Y-80200000D03*
X89392500Y-80200000D03*
D16*
X80952500Y-72360000D03*
X81767500Y-72360000D03*
D28*
X95140000Y-78212500D03*
X95140000Y-76462500D03*
X96920000Y-78215000D03*
X96920000Y-76465000D03*
D10*
X88100000Y-78152500D03*
X88100000Y-78967500D03*
D15*
X90580000Y-65727500D03*
X90580000Y-64912500D03*
D29*
X80930000Y-96090000D03*
D15*
X86490000Y-64957500D03*
X86490000Y-64142500D03*
D30*
X99910000Y-55400000D03*
D15*
X89380000Y-65737500D03*
X89380000Y-64922500D03*
D16*
X78602500Y-76260000D03*
X79417500Y-76260000D03*
D15*
X87510000Y-65697500D03*
X87510000Y-64882500D03*
D10*
X89480000Y-77080000D03*
X89480000Y-77895000D03*
D15*
X93060000Y-65717500D03*
X93060000Y-64902500D03*
D31*
X84252500Y-68620000D03*
X84252500Y-69020000D03*
X84252500Y-69420000D03*
X84252500Y-69820000D03*
X84252500Y-70220000D03*
X84252500Y-70620000D03*
X84252500Y-71020000D03*
X84252500Y-71420000D03*
X84252500Y-71820000D03*
X84252500Y-72220000D03*
X84252500Y-72620000D03*
X84252500Y-73020000D03*
X84252500Y-73420000D03*
X84252500Y-73820000D03*
D32*
X85090000Y-74657500D03*
X85490000Y-74657500D03*
X85890000Y-74657500D03*
X86290000Y-74657500D03*
X86690000Y-74657500D03*
X87090000Y-74657500D03*
X87490000Y-74657500D03*
X87890000Y-74657500D03*
X88290000Y-74657500D03*
X88690000Y-74657500D03*
X89090000Y-74657500D03*
X89490000Y-74657500D03*
X89890000Y-74657500D03*
X90290000Y-74657500D03*
D31*
X91127500Y-73820000D03*
X91127500Y-73420000D03*
X91127500Y-73020000D03*
X91127500Y-72620000D03*
X91127500Y-72220000D03*
X91127500Y-71820000D03*
X91127500Y-71420000D03*
X91127500Y-71020000D03*
X91127500Y-70620000D03*
X91127500Y-70220000D03*
X91127500Y-69820000D03*
X91127500Y-69420000D03*
X91127500Y-69020000D03*
X91127500Y-68620000D03*
D32*
X90290000Y-67782500D03*
X89890000Y-67782500D03*
X89490000Y-67782500D03*
X89090000Y-67782500D03*
X88690000Y-67782500D03*
X88290000Y-67782500D03*
X87890000Y-67782500D03*
X87490000Y-67782500D03*
X87090000Y-67782500D03*
X86690000Y-67782500D03*
X86290000Y-67782500D03*
X85890000Y-67782500D03*
X85490000Y-67782500D03*
X85090000Y-67782500D03*
D33*
X87690000Y-71220000D03*
D34*
X86490000Y-82390000D03*
X86490000Y-79490000D03*
X84190000Y-79490000D03*
X84190000Y-82390000D03*
D16*
X94192500Y-75130000D03*
X95007500Y-75130000D03*
D15*
X88480000Y-65727500D03*
X88480000Y-64912500D03*
D12*
X107185000Y-96965000D03*
D13*
X107185000Y-94425000D03*
X107185000Y-91885000D03*
X107185000Y-89345000D03*
X107185000Y-86805000D03*
X107185000Y-84265000D03*
X107185000Y-81725000D03*
X107185000Y-79185000D03*
X107185000Y-76645000D03*
X107185000Y-74105000D03*
X107185000Y-71565000D03*
X107185000Y-69025000D03*
X107185000Y-66485000D03*
X107185000Y-63945000D03*
X107185000Y-61405000D03*
X107185000Y-58865000D03*
X107185000Y-56325000D03*
X107185000Y-53785000D03*
D35*
X77830000Y-62870000D03*
X79100000Y-62870000D03*
X80370000Y-62870000D03*
X81640000Y-62870000D03*
X81640000Y-55670000D03*
X80370000Y-55670000D03*
X79100000Y-55670000D03*
X77830000Y-55670000D03*
D15*
X77840000Y-65877500D03*
X77840000Y-65062500D03*
D36*
X85780000Y-93590000D03*
X94880000Y-93590000D03*
X94880000Y-89090000D03*
X85780000Y-89090000D03*
M02*
