G04 #@! TF.GenerationSoftware,KiCad,Pcbnew,7.0.5-4d25ed1034~172~ubuntu22.04.1*
G04 #@! TF.CreationDate,2023-07-05T09:01:55+07:00*
G04 #@! TF.ProjectId,TMPboardM,544d5062-6f61-4726-944d-2e6b69636164,rev?*
G04 #@! TF.SameCoordinates,Original*
G04 #@! TF.FileFunction,Copper,L1,Top*
G04 #@! TF.FilePolarity,Positive*
%FSLAX46Y46*%
G04 Gerber Fmt 4.6, Leading zero omitted, Abs format (unit mm)*
G04 Created by KiCad (PCBNEW 7.0.5-4d25ed1034~172~ubuntu22.04.1) date 2023-07-05 09:01:55*
%MOMM*%
%LPD*%
G01*
G04 APERTURE LIST*
G04 Aperture macros list*
%AMRoundRect*
0 Rectangle with rounded corners*
0 $1 Rounding radius*
0 $2 $3 $4 $5 $6 $7 $8 $9 X,Y pos of 4 corners*
0 Add a 4 corners polygon primitive as box body*
4,1,4,$2,$3,$4,$5,$6,$7,$8,$9,$2,$3,0*
0 Add four circle primitives for the rounded corners*
1,1,$1+$1,$2,$3*
1,1,$1+$1,$4,$5*
1,1,$1+$1,$6,$7*
1,1,$1+$1,$8,$9*
0 Add four rect primitives between the rounded corners*
20,1,$1+$1,$2,$3,$4,$5,0*
20,1,$1+$1,$4,$5,$6,$7,0*
20,1,$1+$1,$6,$7,$8,$9,0*
20,1,$1+$1,$8,$9,$2,$3,0*%
%AMFreePoly0*
4,1,9,1.050000,0.350000,0.550000,0.000000,0.550000,-0.400000,0.800000,-0.650000,0.800000,-0.800000,-1.050000,-0.800000,-1.050000,0.800000,1.050000,0.800000,1.050000,0.350000,1.050000,0.350000,$1*%
%AMFreePoly1*
4,1,9,1.050000,-0.800000,-0.800000,-0.800000,-0.800000,-0.650000,-0.550000,-0.400000,-0.550000,0.000000,-1.050000,0.350000,-1.050000,0.800000,1.050000,0.800000,1.050000,-0.800000,1.050000,-0.800000,$1*%
G04 Aperture macros list end*
G04 #@! TA.AperFunction,SMDPad,CuDef*
%ADD10RoundRect,0.100000X-0.100000X0.217500X-0.100000X-0.217500X0.100000X-0.217500X0.100000X0.217500X0*%
G04 #@! TD*
G04 #@! TA.AperFunction,SMDPad,CuDef*
%ADD11RoundRect,0.155000X0.155000X-0.212500X0.155000X0.212500X-0.155000X0.212500X-0.155000X-0.212500X0*%
G04 #@! TD*
G04 #@! TA.AperFunction,ComponentPad*
%ADD12R,1.700000X1.700000*%
G04 #@! TD*
G04 #@! TA.AperFunction,ComponentPad*
%ADD13O,1.700000X1.700000*%
G04 #@! TD*
G04 #@! TA.AperFunction,SMDPad,CuDef*
%ADD14RoundRect,0.155000X-0.212500X-0.155000X0.212500X-0.155000X0.212500X0.155000X-0.212500X0.155000X0*%
G04 #@! TD*
G04 #@! TA.AperFunction,SMDPad,CuDef*
%ADD15RoundRect,0.100000X0.100000X-0.217500X0.100000X0.217500X-0.100000X0.217500X-0.100000X-0.217500X0*%
G04 #@! TD*
G04 #@! TA.AperFunction,SMDPad,CuDef*
%ADD16RoundRect,0.100000X-0.217500X-0.100000X0.217500X-0.100000X0.217500X0.100000X-0.217500X0.100000X0*%
G04 #@! TD*
G04 #@! TA.AperFunction,SMDPad,CuDef*
%ADD17RoundRect,0.100000X0.217500X0.100000X-0.217500X0.100000X-0.217500X-0.100000X0.217500X-0.100000X0*%
G04 #@! TD*
G04 #@! TA.AperFunction,SMDPad,CuDef*
%ADD18R,0.400000X1.350000*%
G04 #@! TD*
G04 #@! TA.AperFunction,SMDPad,CuDef*
%ADD19FreePoly0,180.000000*%
G04 #@! TD*
G04 #@! TA.AperFunction,ComponentPad*
%ADD20O,1.000000X1.700000*%
G04 #@! TD*
G04 #@! TA.AperFunction,SMDPad,CuDef*
%ADD21R,1.900000X1.900000*%
G04 #@! TD*
G04 #@! TA.AperFunction,ComponentPad*
%ADD22O,0.850000X1.700000*%
G04 #@! TD*
G04 #@! TA.AperFunction,SMDPad,CuDef*
%ADD23FreePoly1,180.000000*%
G04 #@! TD*
G04 #@! TA.AperFunction,SMDPad,CuDef*
%ADD24R,1.500000X2.000000*%
G04 #@! TD*
G04 #@! TA.AperFunction,SMDPad,CuDef*
%ADD25R,3.800000X2.000000*%
G04 #@! TD*
G04 #@! TA.AperFunction,SMDPad,CuDef*
%ADD26RoundRect,0.155000X0.212500X0.155000X-0.212500X0.155000X-0.212500X-0.155000X0.212500X-0.155000X0*%
G04 #@! TD*
G04 #@! TA.AperFunction,SMDPad,CuDef*
%ADD27RoundRect,0.237500X0.237500X-0.287500X0.237500X0.287500X-0.237500X0.287500X-0.237500X-0.287500X0*%
G04 #@! TD*
G04 #@! TA.AperFunction,SMDPad,CuDef*
%ADD28RoundRect,0.050000X-0.387500X-0.050000X0.387500X-0.050000X0.387500X0.050000X-0.387500X0.050000X0*%
G04 #@! TD*
G04 #@! TA.AperFunction,SMDPad,CuDef*
%ADD29RoundRect,0.050000X-0.050000X-0.387500X0.050000X-0.387500X0.050000X0.387500X-0.050000X0.387500X0*%
G04 #@! TD*
G04 #@! TA.AperFunction,SMDPad,CuDef*
%ADD30R,3.200000X3.200000*%
G04 #@! TD*
G04 #@! TA.AperFunction,SMDPad,CuDef*
%ADD31R,1.800000X2.100000*%
G04 #@! TD*
G04 #@! TA.AperFunction,SMDPad,CuDef*
%ADD32RoundRect,0.150000X0.150000X-0.650000X0.150000X0.650000X-0.150000X0.650000X-0.150000X-0.650000X0*%
G04 #@! TD*
G04 #@! TA.AperFunction,SMDPad,CuDef*
%ADD33R,2.100000X1.100000*%
G04 #@! TD*
G04 #@! TA.AperFunction,ViaPad*
%ADD34C,0.400000*%
G04 #@! TD*
G04 #@! TA.AperFunction,ViaPad*
%ADD35C,0.800000*%
G04 #@! TD*
G04 #@! TA.AperFunction,Conductor*
%ADD36C,0.200000*%
G04 #@! TD*
G04 #@! TA.AperFunction,Conductor*
%ADD37C,0.250000*%
G04 #@! TD*
G04 #@! TA.AperFunction,Conductor*
%ADD38C,0.400000*%
G04 #@! TD*
G04 APERTURE END LIST*
D10*
X98320000Y-75555000D03*
X98320000Y-76370000D03*
D11*
X96480000Y-61380000D03*
X96480000Y-60245000D03*
D12*
X73455000Y-53515000D03*
D13*
X73455000Y-56055000D03*
X73455000Y-58595000D03*
X73455000Y-61135000D03*
X73455000Y-63675000D03*
X73455000Y-66215000D03*
X73455000Y-68755000D03*
X73455000Y-71295000D03*
X73455000Y-73835000D03*
X73455000Y-76375000D03*
X73455000Y-78915000D03*
X73455000Y-81455000D03*
X73455000Y-83995000D03*
X73455000Y-86535000D03*
X73455000Y-89075000D03*
X73455000Y-91615000D03*
X73455000Y-94155000D03*
X73455000Y-96695000D03*
D14*
X93232500Y-67560000D03*
X94367500Y-67560000D03*
D10*
X91280000Y-77090000D03*
X91280000Y-77905000D03*
D15*
X91920000Y-65707500D03*
X91920000Y-64892500D03*
D16*
X93862500Y-72360000D03*
X94677500Y-72360000D03*
D12*
X78595000Y-79490000D03*
D13*
X78595000Y-82030000D03*
D17*
X81587500Y-68340000D03*
X80772500Y-68340000D03*
D18*
X89960000Y-56107500D03*
X89310000Y-56107500D03*
X88660000Y-56107500D03*
X88010000Y-56107500D03*
X87360000Y-56107500D03*
D19*
X91760000Y-55982500D03*
D20*
X91485000Y-53432500D03*
D21*
X89860000Y-53432500D03*
X87460000Y-53432500D03*
D22*
X85835000Y-53432500D03*
D23*
X85560000Y-55982500D03*
D10*
X90380000Y-77080000D03*
X90380000Y-77895000D03*
D17*
X85327500Y-77680000D03*
X84512500Y-77680000D03*
D24*
X102170000Y-63770000D03*
X99870000Y-63770000D03*
D25*
X99870000Y-70070000D03*
D24*
X97570000Y-63770000D03*
D26*
X81837500Y-67290000D03*
X80702500Y-67290000D03*
D17*
X90207500Y-80200000D03*
X89392500Y-80200000D03*
D16*
X80952500Y-72360000D03*
X81767500Y-72360000D03*
D27*
X95140000Y-78212500D03*
X95140000Y-76462500D03*
X96920000Y-78215000D03*
X96920000Y-76465000D03*
D10*
X88100000Y-78152500D03*
X88100000Y-78967500D03*
D15*
X90580000Y-65727500D03*
X90580000Y-64912500D03*
X86490000Y-64957500D03*
X86490000Y-64142500D03*
X89380000Y-65737500D03*
X89380000Y-64922500D03*
D16*
X78602500Y-76260000D03*
X79417500Y-76260000D03*
D15*
X87510000Y-65697500D03*
X87510000Y-64882500D03*
D10*
X89480000Y-77080000D03*
X89480000Y-77895000D03*
D15*
X93060000Y-65717500D03*
X93060000Y-64902500D03*
D28*
X84252500Y-68620000D03*
X84252500Y-69020000D03*
X84252500Y-69420000D03*
X84252500Y-69820000D03*
X84252500Y-70220000D03*
X84252500Y-70620000D03*
X84252500Y-71020000D03*
X84252500Y-71420000D03*
X84252500Y-71820000D03*
X84252500Y-72220000D03*
X84252500Y-72620000D03*
X84252500Y-73020000D03*
X84252500Y-73420000D03*
X84252500Y-73820000D03*
D29*
X85090000Y-74657500D03*
X85490000Y-74657500D03*
X85890000Y-74657500D03*
X86290000Y-74657500D03*
X86690000Y-74657500D03*
X87090000Y-74657500D03*
X87490000Y-74657500D03*
X87890000Y-74657500D03*
X88290000Y-74657500D03*
X88690000Y-74657500D03*
X89090000Y-74657500D03*
X89490000Y-74657500D03*
X89890000Y-74657500D03*
X90290000Y-74657500D03*
D28*
X91127500Y-73820000D03*
X91127500Y-73420000D03*
X91127500Y-73020000D03*
X91127500Y-72620000D03*
X91127500Y-72220000D03*
X91127500Y-71820000D03*
X91127500Y-71420000D03*
X91127500Y-71020000D03*
X91127500Y-70620000D03*
X91127500Y-70220000D03*
X91127500Y-69820000D03*
X91127500Y-69420000D03*
X91127500Y-69020000D03*
X91127500Y-68620000D03*
D29*
X90290000Y-67782500D03*
X89890000Y-67782500D03*
X89490000Y-67782500D03*
X89090000Y-67782500D03*
X88690000Y-67782500D03*
X88290000Y-67782500D03*
X87890000Y-67782500D03*
X87490000Y-67782500D03*
X87090000Y-67782500D03*
X86690000Y-67782500D03*
X86290000Y-67782500D03*
X85890000Y-67782500D03*
X85490000Y-67782500D03*
X85090000Y-67782500D03*
D30*
X87690000Y-71220000D03*
D31*
X86490000Y-82390000D03*
X86490000Y-79490000D03*
X84190000Y-79490000D03*
X84190000Y-82390000D03*
D16*
X94192500Y-75130000D03*
X95007500Y-75130000D03*
D15*
X88480000Y-65727500D03*
X88480000Y-64912500D03*
D12*
X107185000Y-96965000D03*
D13*
X107185000Y-94425000D03*
X107185000Y-91885000D03*
X107185000Y-89345000D03*
X107185000Y-86805000D03*
X107185000Y-84265000D03*
X107185000Y-81725000D03*
X107185000Y-79185000D03*
X107185000Y-76645000D03*
X107185000Y-74105000D03*
X107185000Y-71565000D03*
X107185000Y-69025000D03*
X107185000Y-66485000D03*
X107185000Y-63945000D03*
X107185000Y-61405000D03*
X107185000Y-58865000D03*
X107185000Y-56325000D03*
X107185000Y-53785000D03*
D32*
X77830000Y-62870000D03*
X79100000Y-62870000D03*
X80370000Y-62870000D03*
X81640000Y-62870000D03*
X81640000Y-55670000D03*
X80370000Y-55670000D03*
X79100000Y-55670000D03*
X77830000Y-55670000D03*
D15*
X77840000Y-65877500D03*
X77840000Y-65062500D03*
D33*
X85780000Y-93590000D03*
X94880000Y-93590000D03*
X94880000Y-89090000D03*
X85780000Y-89090000D03*
D34*
X77216000Y-65532000D03*
X90250000Y-66990000D03*
D35*
X98500000Y-71350000D03*
D34*
X93420000Y-72360000D03*
X77800000Y-54550000D03*
X74720000Y-51970000D03*
X94130000Y-75680000D03*
X85000000Y-72140000D03*
X93560000Y-67070000D03*
X90350000Y-72240000D03*
X82400000Y-72319500D03*
X81830000Y-66650000D03*
X90750000Y-67350000D03*
X92470000Y-65940000D03*
X83566000Y-68520500D03*
X82070000Y-67950000D03*
X93600000Y-65990000D03*
D35*
X101200000Y-71310000D03*
D34*
X91719800Y-77320200D03*
X87789338Y-73895993D03*
X89189253Y-77215855D03*
X99822000Y-62230000D03*
X87720000Y-66320000D03*
X91730000Y-68040000D03*
X88090000Y-68520000D03*
D35*
X71670000Y-97960000D03*
X86080000Y-77680000D03*
X95780000Y-78740000D03*
X85490000Y-57550000D03*
X82960000Y-84030000D03*
D34*
X93726000Y-64770000D03*
X89189500Y-77870000D03*
D35*
X85740000Y-94800000D03*
D34*
X80410000Y-66670000D03*
D35*
X87250703Y-55039115D03*
D34*
X85820000Y-71170000D03*
D35*
X97690000Y-78960000D03*
D34*
X87510000Y-64390000D03*
D35*
X81570000Y-61670000D03*
D34*
X95120000Y-67550000D03*
D35*
X97170000Y-59980000D03*
D34*
X95400000Y-72380000D03*
D35*
X105040000Y-97110000D03*
X88660000Y-54760000D03*
D34*
X91105000Y-64565000D03*
D35*
X90970000Y-80130000D03*
D34*
X87700000Y-73200000D03*
X80310000Y-67930000D03*
D35*
X93440000Y-56300000D03*
X77010000Y-82650000D03*
D34*
X87710000Y-69280000D03*
X89680000Y-71150000D03*
D35*
X102130000Y-62390000D03*
D34*
X90380000Y-78337500D03*
D35*
X86300000Y-54740000D03*
X95000000Y-94800000D03*
X90960000Y-54600000D03*
X87920000Y-80000000D03*
D34*
X91577500Y-78202500D03*
X80290000Y-72319500D03*
X92390000Y-64490000D03*
X86689922Y-73988050D03*
X91040000Y-65710000D03*
X87589500Y-66904993D03*
X89490128Y-68451889D03*
X86793200Y-65536800D03*
X88129116Y-75452782D03*
X90360000Y-76560000D03*
X88388599Y-73878963D03*
X87443241Y-68543398D03*
X98320000Y-75555000D03*
X85230000Y-69990000D03*
X85210000Y-70870000D03*
X85730000Y-84730000D03*
X89690963Y-78599170D03*
X89189012Y-76400954D03*
X93990000Y-77960000D03*
X98285906Y-77993921D03*
X97950000Y-77490000D03*
X94080000Y-77270000D03*
X102220000Y-70420000D03*
X96990000Y-70420000D03*
X83120000Y-67960000D03*
X79970000Y-75370000D03*
X84928200Y-60681800D03*
X84223957Y-61393957D03*
X85640000Y-61170000D03*
X84460686Y-62360686D03*
D36*
X84920000Y-72220000D02*
X84252500Y-72220000D01*
D37*
X91530000Y-68240000D02*
X91730000Y-68040000D01*
D36*
X93420000Y-72360000D02*
X93862500Y-72360000D01*
D38*
X93232500Y-67397500D02*
X93232500Y-67560000D01*
D36*
X91127500Y-72220000D02*
X90370000Y-72220000D01*
X94182500Y-75627500D02*
X94130000Y-75680000D01*
D37*
X77561500Y-65877500D02*
X77840000Y-65877500D01*
D36*
X81808000Y-72319500D02*
X81767500Y-72360000D01*
X83665500Y-68620000D02*
X83566000Y-68520500D01*
D37*
X90722500Y-67350000D02*
X90290000Y-67782500D01*
D36*
X87510000Y-65697500D02*
X87510000Y-66110000D01*
D37*
X89915000Y-67325000D02*
X89915000Y-67782500D01*
D36*
X84252500Y-68620000D02*
X83665500Y-68620000D01*
X91489600Y-77090000D02*
X91280000Y-77090000D01*
X91719800Y-77320200D02*
X91489600Y-77090000D01*
D37*
X91290000Y-68240000D02*
X91530000Y-68240000D01*
D36*
X92152500Y-65940000D02*
X91920000Y-65707500D01*
D37*
X99870000Y-62278000D02*
X99822000Y-62230000D01*
X77216000Y-65532000D02*
X77561500Y-65877500D01*
X91290000Y-68240000D02*
X91290000Y-68432500D01*
D36*
X73455000Y-53515000D02*
X74720000Y-52250000D01*
X77800000Y-54550000D02*
X77830000Y-54580000D01*
X87890000Y-73996655D02*
X87890000Y-74657500D01*
X87789338Y-73895993D02*
X87890000Y-73996655D01*
D37*
X93600000Y-65990000D02*
X93327500Y-65717500D01*
D38*
X93560000Y-67070000D02*
X93232500Y-67397500D01*
D37*
X91290000Y-67890000D02*
X91290000Y-68240000D01*
D36*
X87890000Y-68320000D02*
X88090000Y-68520000D01*
X88290000Y-68320000D02*
X88090000Y-68520000D01*
X87890000Y-67782500D02*
X87890000Y-68320000D01*
X82400000Y-72319500D02*
X81808000Y-72319500D01*
X85000000Y-72140000D02*
X84920000Y-72220000D01*
X81837500Y-67290000D02*
X81837500Y-66657500D01*
D37*
X90250000Y-66990000D02*
X89915000Y-67325000D01*
D36*
X82070000Y-67950000D02*
X81977500Y-67950000D01*
X89344145Y-77215855D02*
X89480000Y-77080000D01*
D37*
X90750000Y-67350000D02*
X91290000Y-67890000D01*
D36*
X89189253Y-77215855D02*
X89344145Y-77215855D01*
X87510000Y-66110000D02*
X87720000Y-66320000D01*
D37*
X91290000Y-68432500D02*
X91127500Y-68595000D01*
X93327500Y-65717500D02*
X93060000Y-65717500D01*
D36*
X77830000Y-54580000D02*
X77830000Y-55670000D01*
D37*
X90750000Y-67350000D02*
X90722500Y-67350000D01*
D36*
X81837500Y-66657500D02*
X81830000Y-66650000D01*
X92470000Y-65940000D02*
X92152500Y-65940000D01*
D37*
X99960000Y-70070000D02*
X101200000Y-71310000D01*
D36*
X81977500Y-67950000D02*
X81587500Y-68340000D01*
X88290000Y-67782500D02*
X88290000Y-68320000D01*
D37*
X90290000Y-67030000D02*
X90250000Y-66990000D01*
X99870000Y-70070000D02*
X99780000Y-70070000D01*
X99870000Y-63770000D02*
X99870000Y-62278000D01*
D36*
X74720000Y-52250000D02*
X74720000Y-51970000D01*
D37*
X99870000Y-70070000D02*
X99960000Y-70070000D01*
D36*
X90370000Y-72220000D02*
X90350000Y-72240000D01*
D37*
X90290000Y-67782500D02*
X90290000Y-67030000D01*
X99780000Y-70070000D02*
X98500000Y-71350000D01*
D36*
X94182500Y-75100000D02*
X94182500Y-75627500D01*
D37*
X95780000Y-78740000D02*
X95667500Y-78740000D01*
X85560000Y-57480000D02*
X85490000Y-57550000D01*
D36*
X87510000Y-64390000D02*
X87510000Y-64882500D01*
D37*
X89480000Y-77895000D02*
X89214500Y-77895000D01*
X89860000Y-53560000D02*
X88660000Y-54760000D01*
X96480000Y-60245000D02*
X96905000Y-60245000D01*
X87360000Y-56107500D02*
X87360000Y-55148412D01*
D36*
X86689922Y-73988050D02*
X86690000Y-73988128D01*
X87690000Y-71220000D02*
X89610000Y-71220000D01*
D37*
X91760000Y-55982500D02*
X91760000Y-55400000D01*
D36*
X87690000Y-69300000D02*
X87710000Y-69280000D01*
D37*
X91760000Y-55982500D02*
X93122500Y-55982500D01*
X87360000Y-55148412D02*
X87250703Y-55039115D01*
X87460000Y-53432500D02*
X87460000Y-53580000D01*
D36*
X87690000Y-71220000D02*
X87690000Y-69300000D01*
X91105000Y-64565000D02*
X90757500Y-64912500D01*
X80330500Y-72360000D02*
X80952500Y-72360000D01*
D37*
X87460000Y-53580000D02*
X86300000Y-54740000D01*
X89860000Y-53500000D02*
X90960000Y-54600000D01*
D36*
X87690000Y-73190000D02*
X87700000Y-73200000D01*
X92390000Y-64490000D02*
X92322500Y-64490000D01*
X87690000Y-71220000D02*
X85870000Y-71220000D01*
D37*
X89860000Y-53432500D02*
X89860000Y-53560000D01*
D36*
X94677500Y-72360000D02*
X95380000Y-72360000D01*
X87690000Y-71220000D02*
X87690000Y-73190000D01*
D37*
X87460000Y-53432500D02*
X87460000Y-53560000D01*
X81570000Y-61670000D02*
X81570000Y-62800000D01*
X85560000Y-55982500D02*
X85560000Y-57480000D01*
D36*
X85870000Y-71220000D02*
X85820000Y-71170000D01*
D37*
X93060000Y-64902500D02*
X93593500Y-64902500D01*
X87460000Y-53432500D02*
X87460000Y-54829818D01*
X73455000Y-96695000D02*
X72935000Y-96695000D01*
D36*
X94367500Y-67560000D02*
X95110000Y-67560000D01*
D37*
X85780000Y-93590000D02*
X85780000Y-94760000D01*
X90900000Y-80200000D02*
X90970000Y-80130000D01*
X84190000Y-82390000D02*
X84190000Y-82800000D01*
X87460000Y-54829818D02*
X87250703Y-55039115D01*
D36*
X86690000Y-73988128D02*
X86690000Y-74657500D01*
X80290000Y-72319500D02*
X80330500Y-72360000D01*
D37*
X81570000Y-62800000D02*
X81640000Y-62870000D01*
X94880000Y-93590000D02*
X94880000Y-94680000D01*
X96905000Y-60245000D02*
X97170000Y-59980000D01*
D36*
X87262500Y-64142500D02*
X87510000Y-64390000D01*
X95380000Y-72360000D02*
X95400000Y-72380000D01*
X86490000Y-64142500D02*
X87262500Y-64142500D01*
X80702500Y-67290000D02*
X80702500Y-66962500D01*
D37*
X84190000Y-82800000D02*
X82960000Y-84030000D01*
D36*
X86080000Y-77680000D02*
X85327500Y-77680000D01*
D37*
X90380000Y-77895000D02*
X90380000Y-78337500D01*
D36*
X92322500Y-64490000D02*
X91920000Y-64892500D01*
D37*
X85560000Y-55982500D02*
X85560000Y-55480000D01*
X91280000Y-77905000D02*
X91577500Y-78202500D01*
X93593500Y-64902500D02*
X93726000Y-64770000D01*
D36*
X89610000Y-71220000D02*
X89680000Y-71150000D01*
D37*
X102170000Y-62430000D02*
X102130000Y-62390000D01*
X96945000Y-78215000D02*
X96920000Y-78215000D01*
X85560000Y-55480000D02*
X86300000Y-54740000D01*
X95667500Y-78740000D02*
X95140000Y-78212500D01*
X91760000Y-55400000D02*
X90960000Y-54600000D01*
X94880000Y-93590000D02*
X85780000Y-93590000D01*
X90207500Y-80200000D02*
X90900000Y-80200000D01*
X94880000Y-94680000D02*
X95000000Y-94800000D01*
X87410000Y-79490000D02*
X87920000Y-80000000D01*
X87460000Y-53560000D02*
X88660000Y-54760000D01*
X89214500Y-77895000D02*
X89189500Y-77870000D01*
D36*
X80702500Y-66962500D02*
X80410000Y-66670000D01*
D37*
X86490000Y-79490000D02*
X87410000Y-79490000D01*
X93122500Y-55982500D02*
X93440000Y-56300000D01*
X89860000Y-53432500D02*
X89860000Y-53500000D01*
D36*
X95110000Y-67560000D02*
X95120000Y-67550000D01*
D37*
X72935000Y-96695000D02*
X71670000Y-97960000D01*
D36*
X80310000Y-67930000D02*
X80362500Y-67930000D01*
D37*
X85780000Y-94760000D02*
X85740000Y-94800000D01*
X97690000Y-78960000D02*
X96945000Y-78215000D01*
X102170000Y-63770000D02*
X102170000Y-62430000D01*
D36*
X80362500Y-67930000D02*
X80772500Y-68340000D01*
X90757500Y-64912500D02*
X90580000Y-64912500D01*
X85447032Y-76930000D02*
X87090000Y-75287032D01*
X84512500Y-77611815D02*
X85194315Y-76930000D01*
X85194315Y-76930000D02*
X85447032Y-76930000D01*
X84512500Y-77680000D02*
X84512500Y-77611815D01*
X84512500Y-79167500D02*
X84190000Y-79490000D01*
X87090000Y-75287032D02*
X87090000Y-74657500D01*
X84512500Y-77680000D02*
X84512500Y-79167500D01*
D37*
X87202500Y-82390000D02*
X89392500Y-80200000D01*
D36*
X88100000Y-78967500D02*
X88160000Y-78967500D01*
X88160000Y-78967500D02*
X89392500Y-80200000D01*
D37*
X86490000Y-82390000D02*
X87202500Y-82390000D01*
X96480000Y-61380000D02*
X97570000Y-62470000D01*
D38*
X94157500Y-61380000D02*
X96480000Y-61380000D01*
X89960000Y-57182500D02*
X94157500Y-61380000D01*
X89960000Y-56107500D02*
X89960000Y-57182500D01*
D37*
X97570000Y-62470000D02*
X97570000Y-63770000D01*
D36*
X87589500Y-66904993D02*
X87490000Y-67004493D01*
X89490000Y-67782500D02*
X89490000Y-68451761D01*
X86490000Y-65233600D02*
X86793200Y-65536800D01*
X88290000Y-75291898D02*
X88290000Y-74657500D01*
X86490000Y-64957500D02*
X86490000Y-65233600D01*
X88290000Y-74657500D02*
X88290000Y-73977562D01*
X87490000Y-67782500D02*
X87490000Y-68496639D01*
X89490000Y-67042893D02*
X90580000Y-65952893D01*
X89490000Y-68451761D02*
X89490128Y-68451889D01*
X87490000Y-67004493D02*
X87490000Y-67782500D01*
X90380000Y-76580000D02*
X90380000Y-77080000D01*
X89490000Y-67782500D02*
X89490000Y-67042893D01*
X88290000Y-74657500D02*
X88290000Y-74295292D01*
D37*
X91040000Y-65710000D02*
X91022500Y-65727500D01*
D36*
X87490000Y-68496639D02*
X87443241Y-68543398D01*
X88290000Y-73977562D02*
X88388599Y-73878963D01*
X88129116Y-75452782D02*
X88290000Y-75291898D01*
D37*
X91022500Y-65727500D02*
X90580000Y-65727500D01*
D36*
X90580000Y-65952893D02*
X90580000Y-65727500D01*
D37*
X90580000Y-65727500D02*
X90512500Y-65727500D01*
D36*
X90360000Y-76560000D02*
X90380000Y-76580000D01*
D37*
X78595000Y-76267500D02*
X78595000Y-79490000D01*
X78602500Y-76260000D02*
X78595000Y-76267500D01*
D38*
X89310000Y-56107500D02*
X89310000Y-64852500D01*
X89310000Y-64852500D02*
X89380000Y-64922500D01*
X88660000Y-56107500D02*
X88660000Y-64732500D01*
X88660000Y-64732500D02*
X88480000Y-64912500D01*
D36*
X76330000Y-66230000D02*
X76330000Y-58930000D01*
X84252500Y-69020000D02*
X79120000Y-69020000D01*
X79120000Y-69020000D02*
X76330000Y-66230000D01*
X76330000Y-58930000D02*
X73455000Y-56055000D01*
X78835686Y-69420000D02*
X75930000Y-66514314D01*
X84252500Y-69420000D02*
X78835686Y-69420000D01*
X75930000Y-61070000D02*
X73455000Y-58595000D01*
X75930000Y-66514314D02*
X75930000Y-61070000D01*
X73455000Y-61605000D02*
X73455000Y-61135000D01*
X78670000Y-69820000D02*
X75530000Y-66680000D01*
X75530000Y-63680000D02*
X73455000Y-61605000D01*
X84252500Y-69820000D02*
X78670000Y-69820000D01*
X75530000Y-66680000D02*
X75530000Y-63680000D01*
X84252500Y-70220000D02*
X78410000Y-70220000D01*
X85000000Y-70220000D02*
X84252500Y-70220000D01*
X75130000Y-66940000D02*
X75130000Y-65330000D01*
X85230000Y-69990000D02*
X85000000Y-70220000D01*
X78410000Y-70220000D02*
X75130000Y-66940000D01*
X75130000Y-65330000D02*
X73475000Y-63675000D01*
X73475000Y-63675000D02*
X73455000Y-63675000D01*
X85780000Y-84780000D02*
X85730000Y-84730000D01*
X77860000Y-70620000D02*
X73455000Y-66215000D01*
X94880000Y-89090000D02*
X90090000Y-89090000D01*
X85780000Y-89090000D02*
X85780000Y-84780000D01*
X84252500Y-70620000D02*
X84960000Y-70620000D01*
X84960000Y-70620000D02*
X85210000Y-70870000D01*
X90090000Y-89090000D02*
X85730000Y-84730000D01*
X85780000Y-89090000D02*
X94880000Y-89090000D01*
X84252500Y-70620000D02*
X77860000Y-70620000D01*
X84252500Y-71020000D02*
X75720000Y-71020000D01*
X75720000Y-71020000D02*
X73455000Y-68755000D01*
X73580000Y-71420000D02*
X73455000Y-71295000D01*
X84252500Y-71420000D02*
X73580000Y-71420000D01*
X75470000Y-71820000D02*
X73455000Y-73835000D01*
X84252500Y-71820000D02*
X75470000Y-71820000D01*
X82806607Y-72620000D02*
X82466607Y-72960000D01*
X76870000Y-72960000D02*
X73455000Y-76375000D01*
X82466607Y-72960000D02*
X76870000Y-72960000D01*
X84252500Y-72620000D02*
X82806607Y-72620000D01*
X82614450Y-73377843D02*
X78300000Y-73377843D01*
X84252500Y-73020000D02*
X82972293Y-73020000D01*
X78300000Y-73377843D02*
X73455000Y-78222843D01*
X82972293Y-73020000D02*
X82614450Y-73377843D01*
X73455000Y-78222843D02*
X73455000Y-78915000D01*
X82780135Y-73777843D02*
X79522157Y-73777843D01*
X83137979Y-73420000D02*
X82780135Y-73777843D01*
X74345000Y-81455000D02*
X73455000Y-81455000D01*
X79522157Y-73777843D02*
X75650000Y-77650000D01*
X84252500Y-73420000D02*
X83137979Y-73420000D01*
X75650000Y-80150000D02*
X74345000Y-81455000D01*
X75650000Y-77650000D02*
X75650000Y-80150000D01*
X76080000Y-77899315D02*
X76080000Y-81370000D01*
X82945820Y-74177843D02*
X79801472Y-74177843D01*
X79801472Y-74177843D02*
X76080000Y-77899315D01*
X84252500Y-73820000D02*
X83303663Y-73820000D01*
X76080000Y-81370000D02*
X73455000Y-83995000D01*
X83303663Y-73820000D02*
X82945820Y-74177843D01*
X85090000Y-74657500D02*
X84695442Y-74657500D01*
X80570000Y-84740000D02*
X78775000Y-86535000D01*
X78775000Y-86535000D02*
X73455000Y-86535000D01*
X84695442Y-74657500D02*
X80570000Y-78782942D01*
X80570000Y-78782942D02*
X80570000Y-84740000D01*
X81157157Y-78761471D02*
X81157157Y-85277157D01*
X84188628Y-75730000D02*
X81157157Y-78761471D01*
X85490000Y-75189975D02*
X84949975Y-75730000D01*
X85490000Y-74657500D02*
X85490000Y-75189975D01*
X81157157Y-85277157D02*
X77359314Y-89075000D01*
X84949975Y-75730000D02*
X84188628Y-75730000D01*
X77359314Y-89075000D02*
X73455000Y-89075000D01*
X85890000Y-75355661D02*
X85115660Y-76130000D01*
X85890000Y-74657500D02*
X85890000Y-75355661D01*
X81570000Y-85430000D02*
X75385000Y-91615000D01*
X81570000Y-78914314D02*
X81570000Y-85430000D01*
X75385000Y-91615000D02*
X73455000Y-91615000D01*
X84354314Y-76130000D02*
X81570000Y-78914314D01*
X85115660Y-76130000D02*
X84354314Y-76130000D01*
X84520000Y-76530000D02*
X81970000Y-79080000D01*
X81970000Y-85640000D02*
X73455000Y-94155000D01*
X86290000Y-74657500D02*
X86290000Y-75521347D01*
X81970000Y-79080000D02*
X81970000Y-85640000D01*
X86290000Y-75521347D02*
X85281346Y-76530000D01*
X85281346Y-76530000D02*
X84520000Y-76530000D01*
X88690000Y-78304607D02*
X88690000Y-74657500D01*
X92190000Y-79430000D02*
X89815393Y-79430000D01*
X89815393Y-79430000D02*
X88690000Y-78304607D01*
X107185000Y-94425000D02*
X92190000Y-79430000D01*
X89090000Y-74657500D02*
X89090000Y-76301942D01*
X90121793Y-79030000D02*
X92355686Y-79030000D01*
X89090000Y-76301942D02*
X89189012Y-76400954D01*
X92355686Y-79030000D02*
X105210686Y-91885000D01*
X105210686Y-91885000D02*
X107185000Y-91885000D01*
X89690963Y-78599170D02*
X90121793Y-79030000D01*
X103705000Y-89345000D02*
X107185000Y-89345000D01*
X92240000Y-77133293D02*
X92240000Y-77880000D01*
X92240000Y-77880000D02*
X103705000Y-89345000D01*
X91530311Y-76423604D02*
X92240000Y-77133293D01*
X90567107Y-76060000D02*
X90930712Y-76423604D01*
X89490000Y-75355661D02*
X90194340Y-76060000D01*
X89490000Y-74657500D02*
X89490000Y-75355661D01*
X90194340Y-76060000D02*
X90567107Y-76060000D01*
X90930712Y-76423604D02*
X91530311Y-76423604D01*
X90732793Y-75660000D02*
X91096397Y-76023604D01*
X101730686Y-86805000D02*
X107185000Y-86805000D01*
X90360025Y-75660000D02*
X90732793Y-75660000D01*
X91695997Y-76023604D02*
X92640000Y-76967607D01*
X91096397Y-76023604D02*
X91695997Y-76023604D01*
X92640000Y-76967607D02*
X92640000Y-77714314D01*
X92640000Y-77714314D02*
X101730686Y-86805000D01*
X89890000Y-75189975D02*
X90360025Y-75660000D01*
X89890000Y-74657500D02*
X89890000Y-75189975D01*
X93040000Y-76801922D02*
X90895579Y-74657500D01*
X90895579Y-74657500D02*
X90290000Y-74657500D01*
X93040000Y-77010000D02*
X93040000Y-76801922D01*
X98783719Y-77993921D02*
X105054798Y-84265000D01*
X98285906Y-77993921D02*
X98783719Y-77993921D01*
X93990000Y-77960000D02*
X93040000Y-77010000D01*
X105054798Y-84265000D02*
X107185000Y-84265000D01*
X97950000Y-77490000D02*
X97954421Y-77494421D01*
X97954421Y-77494421D02*
X102954421Y-77494421D01*
X91127500Y-74317500D02*
X94080000Y-77270000D01*
X91127500Y-73820000D02*
X91127500Y-74317500D01*
X102954421Y-77494421D02*
X107185000Y-81725000D01*
X95780000Y-74050000D02*
X96170000Y-74440000D01*
X93271521Y-74050000D02*
X95780000Y-74050000D01*
X96170000Y-74440000D02*
X102440000Y-74440000D01*
X92641521Y-73420000D02*
X93271521Y-74050000D01*
X102440000Y-74440000D02*
X107185000Y-79185000D01*
X91127500Y-73420000D02*
X92641521Y-73420000D01*
X96470000Y-74040000D02*
X104580000Y-74040000D01*
X93397207Y-73610000D02*
X96040000Y-73610000D01*
X96040000Y-73610000D02*
X96470000Y-74040000D01*
X104580000Y-74040000D02*
X107185000Y-76645000D01*
X92807207Y-73020000D02*
X93397207Y-73610000D01*
X91127500Y-73020000D02*
X92807207Y-73020000D01*
X93482893Y-73130000D02*
X96412942Y-73130000D01*
X96412942Y-73130000D02*
X96832943Y-73550000D01*
X92972893Y-72620000D02*
X93482893Y-73130000D01*
X96832943Y-73550000D02*
X105590000Y-73550000D01*
X91127500Y-72620000D02*
X92972893Y-72620000D01*
X105590000Y-73550000D02*
X106145000Y-74105000D01*
X106145000Y-74105000D02*
X107185000Y-74105000D01*
X96998628Y-73150000D02*
X104310000Y-73150000D01*
X91127500Y-71820000D02*
X95668628Y-71820000D01*
X95668628Y-71820000D02*
X96998628Y-73150000D01*
X104310000Y-73150000D02*
X105895000Y-71565000D01*
X105895000Y-71565000D02*
X107185000Y-71565000D01*
X105790686Y-69025000D02*
X107185000Y-69025000D01*
X105310000Y-69505686D02*
X105790686Y-69025000D01*
X95834314Y-71420000D02*
X97154314Y-72740000D01*
X91127500Y-71420000D02*
X95834314Y-71420000D01*
X102075686Y-72740000D02*
X105310000Y-69505686D01*
X97154314Y-72740000D02*
X102075686Y-72740000D01*
X96000000Y-71020000D02*
X97220000Y-72240000D01*
X91127500Y-71020000D02*
X96000000Y-71020000D01*
X103670000Y-68140000D02*
X105325000Y-66485000D01*
X103670000Y-70580000D02*
X103670000Y-68140000D01*
X105325000Y-66485000D02*
X107185000Y-66485000D01*
X97220000Y-72240000D02*
X102010000Y-72240000D01*
X102010000Y-72240000D02*
X103670000Y-70580000D01*
X102220000Y-70420000D02*
X103120000Y-69520000D01*
X96790000Y-70620000D02*
X96990000Y-70420000D01*
X91127500Y-70620000D02*
X96790000Y-70620000D01*
X103120000Y-68010000D02*
X107185000Y-63945000D01*
X103120000Y-69520000D02*
X103120000Y-68010000D01*
X91127500Y-70220000D02*
X96220000Y-70220000D01*
X105400000Y-63190000D02*
X107185000Y-61405000D01*
X96220000Y-70220000D02*
X98770000Y-67670000D01*
X98770000Y-67670000D02*
X102447058Y-67670000D01*
X105370000Y-64747057D02*
X105370000Y-63190000D01*
X102447058Y-67670000D02*
X105370000Y-64747057D01*
X105370000Y-63190000D02*
X105400000Y-63190000D01*
X102341372Y-67210000D02*
X104970000Y-64581372D01*
X98130000Y-67210000D02*
X102341372Y-67210000D01*
X104970000Y-59910000D02*
X106015000Y-58865000D01*
X106015000Y-58865000D02*
X107185000Y-58865000D01*
X91127500Y-69820000D02*
X95520000Y-69820000D01*
X104970000Y-64581372D02*
X104970000Y-59910000D01*
X95520000Y-69820000D02*
X98130000Y-67210000D01*
X104510000Y-59000000D02*
X107185000Y-56325000D01*
X97540000Y-66710000D02*
X102275686Y-66710000D01*
X104510000Y-64475686D02*
X104510000Y-59000000D01*
X102275686Y-66710000D02*
X104510000Y-64475686D01*
X91127500Y-69420000D02*
X94830000Y-69420000D01*
X94830000Y-69420000D02*
X97540000Y-66710000D01*
X104110000Y-64310000D02*
X102370000Y-66050000D01*
X97327107Y-66050000D02*
X94357107Y-69020000D01*
X104110000Y-56860000D02*
X104110000Y-64310000D01*
X94357107Y-69020000D02*
X91127500Y-69020000D01*
X102370000Y-66050000D02*
X97327107Y-66050000D01*
X107185000Y-53785000D02*
X104110000Y-56860000D01*
X77840000Y-62880000D02*
X77840000Y-65062500D01*
X83892500Y-67782500D02*
X85090000Y-67782500D01*
X77830000Y-62870000D02*
X77840000Y-62880000D01*
X77977500Y-65200000D02*
X79860000Y-65200000D01*
X77830000Y-62870000D02*
X77925000Y-62965000D01*
X82030000Y-65920000D02*
X83892500Y-67782500D01*
D38*
X79417500Y-76260000D02*
X79417500Y-75922500D01*
X83120000Y-67960000D02*
X83297500Y-67782500D01*
D36*
X77840000Y-65062500D02*
X77977500Y-65200000D01*
X79860000Y-65200000D02*
X80580000Y-65920000D01*
X80580000Y-65920000D02*
X82030000Y-65920000D01*
D38*
X79417500Y-75922500D02*
X79970000Y-75370000D01*
X83297500Y-67782500D02*
X83892500Y-67782500D01*
D36*
X87490000Y-77542500D02*
X88100000Y-78152500D01*
X87490000Y-74657500D02*
X87490000Y-77542500D01*
X88690000Y-65937500D02*
X88480000Y-65727500D01*
X88690000Y-67782500D02*
X88690000Y-65937500D01*
X89090000Y-67782500D02*
X89090000Y-66027500D01*
X89090000Y-66027500D02*
X89380000Y-65737500D01*
X87090000Y-66540000D02*
X85990000Y-65440000D01*
X85990000Y-65440000D02*
X85990000Y-62452893D01*
X87090000Y-67782500D02*
X87090000Y-66540000D01*
X85990000Y-62452893D02*
X82247107Y-58710000D01*
X82247107Y-58710000D02*
X81560000Y-58710000D01*
X81560000Y-58710000D02*
X79100000Y-56250000D01*
X79100000Y-56250000D02*
X79100000Y-55670000D01*
X84928200Y-60648200D02*
X80370000Y-56090000D01*
X85590000Y-65605685D02*
X86690000Y-66705686D01*
X80370000Y-56090000D02*
X80370000Y-55670000D01*
X86690000Y-66705686D02*
X86690000Y-67782500D01*
X84928200Y-60681800D02*
X84928200Y-60648200D01*
X84223957Y-61393957D02*
X85590000Y-62760000D01*
X85590000Y-62760000D02*
X85590000Y-65605685D01*
X85640000Y-60686493D02*
X81640000Y-56686493D01*
X86290000Y-67782500D02*
X86290000Y-66918628D01*
X81640000Y-56686493D02*
X81640000Y-55670000D01*
X85640000Y-61170000D02*
X85640000Y-60686493D01*
X86290000Y-66918628D02*
X84460686Y-65089314D01*
X84440000Y-62340000D02*
X84460686Y-62360686D01*
X84460686Y-65089314D02*
X84460686Y-62360686D01*
X85890000Y-67084314D02*
X83925686Y-65120000D01*
X81340000Y-65120000D02*
X80370000Y-64150000D01*
X83925686Y-65120000D02*
X81340000Y-65120000D01*
X80370000Y-64150000D02*
X80370000Y-62870000D01*
X85890000Y-67782500D02*
X85890000Y-67084314D01*
X79100000Y-63850000D02*
X80770000Y-65520000D01*
X79100000Y-62870000D02*
X79100000Y-63850000D01*
X85490000Y-67250000D02*
X85490000Y-67782500D01*
X83760000Y-65520000D02*
X85490000Y-67250000D01*
X80770000Y-65520000D02*
X83760000Y-65520000D01*
X95140000Y-75262500D02*
X95007500Y-75130000D01*
X95140000Y-76462500D02*
X95140000Y-75262500D01*
D37*
X98225000Y-76465000D02*
X98320000Y-76370000D01*
X96920000Y-76465000D02*
X98225000Y-76465000D01*
M02*
