M48
; DRILL file {KiCad 7.0.5-4d25ed1034~172~ubuntu22.04.1} date Rab 05 Jul 2023 09:03:01 
; FORMAT={-:-/ absolute / metric / decimal}
; #@! TF.CreationDate,2023-07-05T09:03:01+07:00
; #@! TF.GenerationSoftware,Kicad,Pcbnew,7.0.5-4d25ed1034~172~ubuntu22.04.1
; #@! TF.FileFunction,Plated,1,4,PTH
FMAT,2
METRIC
; #@! TA.AperFunction,Plated,PTH,ViaDrill
T1C0.200
; #@! TA.AperFunction,Plated,PTH,ViaDrill
T2C0.400
; #@! TA.AperFunction,Plated,PTH,ComponentDrill
T3C0.500
; #@! TA.AperFunction,Plated,PTH,ComponentDrill
T4C1.000
%
G90
G05
T1
X74.72Y-51.97
X77.216Y-65.532
X77.8Y-54.55
X79.97Y-75.37
X80.29Y-72.319
X80.31Y-67.93
X80.41Y-66.67
X81.83Y-66.65
X82.07Y-67.95
X82.4Y-72.319
X83.12Y-67.96
X83.566Y-68.52
X84.224Y-61.394
X84.461Y-62.361
X84.928Y-60.682
X85.0Y-72.14
X85.21Y-70.87
X85.23Y-69.99
X85.64Y-61.17
X85.73Y-84.73
X85.82Y-71.17
X86.69Y-73.988
X86.793Y-65.537
X87.443Y-68.543
X87.51Y-64.39
X87.59Y-66.905
X87.7Y-73.2
X87.71Y-69.28
X87.72Y-66.32
X87.789Y-73.896
X88.09Y-68.52
X88.129Y-75.453
X88.389Y-73.879
X89.189Y-76.401
X89.189Y-77.216
X89.189Y-77.87
X89.49Y-68.452
X89.68Y-71.15
X89.691Y-78.599
X90.25Y-66.99
X90.35Y-72.24
X90.36Y-76.56
X90.38Y-78.337
X90.75Y-67.35
X91.04Y-65.71
X91.105Y-64.565
X91.578Y-78.203
X91.72Y-77.32
X91.73Y-68.04
X92.39Y-64.49
X92.47Y-65.94
X93.42Y-72.36
X93.56Y-67.07
X93.6Y-65.99
X93.726Y-64.77
X93.99Y-77.96
X94.08Y-77.27
X94.13Y-75.68
X95.12Y-67.55
X95.4Y-72.38
X96.99Y-70.42
X97.95Y-77.49
X98.286Y-77.994
X98.32Y-75.555
X99.822Y-62.23
X102.22Y-70.42
T2
X71.67Y-97.96
X77.01Y-82.65
X81.57Y-61.67
X82.96Y-84.03
X85.49Y-57.55
X85.74Y-94.8
X86.08Y-77.68
X86.3Y-54.74
X87.251Y-55.039
X87.92Y-80.0
X88.66Y-54.76
X90.96Y-54.6
X90.97Y-80.13
X93.44Y-56.3
X95.0Y-94.8
X95.78Y-78.74
X97.17Y-59.98
X97.69Y-78.96
X98.5Y-71.35
X101.2Y-71.31
X102.13Y-62.39
X105.04Y-97.11
T4
X73.455Y-53.515
X73.455Y-56.055
X73.455Y-58.595
X73.455Y-61.135
X73.455Y-63.675
X73.455Y-66.215
X73.455Y-68.755
X73.455Y-71.295
X73.455Y-73.835
X73.455Y-76.375
X73.455Y-78.915
X73.455Y-81.455
X73.455Y-83.995
X73.455Y-86.535
X73.455Y-89.075
X73.455Y-91.615
X73.455Y-94.155
X73.455Y-96.695
X78.595Y-79.49
X78.595Y-82.03
X107.185Y-53.785
X107.185Y-56.325
X107.185Y-58.865
X107.185Y-61.405
X107.185Y-63.945
X107.185Y-66.485
X107.185Y-69.025
X107.185Y-71.565
X107.185Y-74.105
X107.185Y-76.645
X107.185Y-79.185
X107.185Y-81.725
X107.185Y-84.265
X107.185Y-86.805
X107.185Y-89.345
X107.185Y-91.885
X107.185Y-94.425
X107.185Y-96.965
T3
X85.835Y-53.782G85X85.835Y-53.082
G05
X91.485Y-53.782G85X91.485Y-53.082
G05
T0
M30
