G04 #@! TF.GenerationSoftware,KiCad,Pcbnew,7.0.5-4d25ed1034~172~ubuntu22.04.1*
G04 #@! TF.CreationDate,2023-07-05T09:01:56+07:00*
G04 #@! TF.ProjectId,TMPboardM,544d5062-6f61-4726-944d-2e6b69636164,rev?*
G04 #@! TF.SameCoordinates,Original*
G04 #@! TF.FileFunction,Soldermask,Bot*
G04 #@! TF.FilePolarity,Negative*
%FSLAX46Y46*%
G04 Gerber Fmt 4.6, Leading zero omitted, Abs format (unit mm)*
G04 Created by KiCad (PCBNEW 7.0.5-4d25ed1034~172~ubuntu22.04.1) date 2023-07-05 09:01:56*
%MOMM*%
%LPD*%
G01*
G04 APERTURE LIST*
%ADD10R,1.700000X1.700000*%
%ADD11O,1.700000X1.700000*%
%ADD12C,0.600000*%
%ADD13O,1.000000X1.700000*%
%ADD14O,0.850000X1.700000*%
%ADD15C,2.000000*%
%ADD16C,3.000000*%
G04 APERTURE END LIST*
D10*
X73455000Y-53515000D03*
D11*
X73455000Y-56055000D03*
X73455000Y-58595000D03*
X73455000Y-61135000D03*
X73455000Y-63675000D03*
X73455000Y-66215000D03*
X73455000Y-68755000D03*
X73455000Y-71295000D03*
X73455000Y-73835000D03*
X73455000Y-76375000D03*
X73455000Y-78915000D03*
X73455000Y-81455000D03*
X73455000Y-83995000D03*
X73455000Y-86535000D03*
X73455000Y-89075000D03*
X73455000Y-91615000D03*
X73455000Y-94155000D03*
X73455000Y-96695000D03*
D10*
X78595000Y-79490000D03*
D11*
X78595000Y-82030000D03*
D12*
X90660000Y-55782500D03*
X86660000Y-55782500D03*
D13*
X91485000Y-53432500D03*
D14*
X85835000Y-53432500D03*
D15*
X80930000Y-96090000D03*
D16*
X99910000Y-55400000D03*
D10*
X107185000Y-96965000D03*
D11*
X107185000Y-94425000D03*
X107185000Y-91885000D03*
X107185000Y-89345000D03*
X107185000Y-86805000D03*
X107185000Y-84265000D03*
X107185000Y-81725000D03*
X107185000Y-79185000D03*
X107185000Y-76645000D03*
X107185000Y-74105000D03*
X107185000Y-71565000D03*
X107185000Y-69025000D03*
X107185000Y-66485000D03*
X107185000Y-63945000D03*
X107185000Y-61405000D03*
X107185000Y-58865000D03*
X107185000Y-56325000D03*
X107185000Y-53785000D03*
M02*
