G04 #@! TF.GenerationSoftware,KiCad,Pcbnew,7.0.5-4d25ed1034~172~ubuntu22.04.1*
G04 #@! TF.CreationDate,2023-07-05T09:01:56+07:00*
G04 #@! TF.ProjectId,TMPboardM,544d5062-6f61-4726-944d-2e6b69636164,rev?*
G04 #@! TF.SameCoordinates,Original*
G04 #@! TF.FileFunction,Legend,Bot*
G04 #@! TF.FilePolarity,Positive*
%FSLAX46Y46*%
G04 Gerber Fmt 4.6, Leading zero omitted, Abs format (unit mm)*
G04 Created by KiCad (PCBNEW 7.0.5-4d25ed1034~172~ubuntu22.04.1) date 2023-07-05 09:01:56*
%MOMM*%
%LPD*%
G01*
G04 APERTURE LIST*
%ADD10C,0.300000*%
%ADD11R,1.700000X1.700000*%
%ADD12O,1.700000X1.700000*%
%ADD13C,0.600000*%
%ADD14O,1.000000X1.700000*%
%ADD15O,0.850000X1.700000*%
%ADD16C,2.000000*%
%ADD17C,3.000000*%
G04 APERTURE END LIST*
D10*
X101349774Y-84845828D02*
X100492632Y-84845828D01*
X100921203Y-86345828D02*
X100921203Y-84845828D01*
X99349775Y-86345828D02*
X99349775Y-85560114D01*
X99349775Y-85560114D02*
X99421203Y-85417257D01*
X99421203Y-85417257D02*
X99564060Y-85345828D01*
X99564060Y-85345828D02*
X99849775Y-85345828D01*
X99849775Y-85345828D02*
X99992632Y-85417257D01*
X99349775Y-86274400D02*
X99492632Y-86345828D01*
X99492632Y-86345828D02*
X99849775Y-86345828D01*
X99849775Y-86345828D02*
X99992632Y-86274400D01*
X99992632Y-86274400D02*
X100064060Y-86131542D01*
X100064060Y-86131542D02*
X100064060Y-85988685D01*
X100064060Y-85988685D02*
X99992632Y-85845828D01*
X99992632Y-85845828D02*
X99849775Y-85774400D01*
X99849775Y-85774400D02*
X99492632Y-85774400D01*
X99492632Y-85774400D02*
X99349775Y-85702971D01*
X98635489Y-86345828D02*
X98635489Y-85345828D01*
X98635489Y-85488685D02*
X98564060Y-85417257D01*
X98564060Y-85417257D02*
X98421203Y-85345828D01*
X98421203Y-85345828D02*
X98206917Y-85345828D01*
X98206917Y-85345828D02*
X98064060Y-85417257D01*
X98064060Y-85417257D02*
X97992632Y-85560114D01*
X97992632Y-85560114D02*
X97992632Y-86345828D01*
X97992632Y-85560114D02*
X97921203Y-85417257D01*
X97921203Y-85417257D02*
X97778346Y-85345828D01*
X97778346Y-85345828D02*
X97564060Y-85345828D01*
X97564060Y-85345828D02*
X97421203Y-85417257D01*
X97421203Y-85417257D02*
X97349774Y-85560114D01*
X97349774Y-85560114D02*
X97349774Y-86345828D01*
X96635489Y-85345828D02*
X96635489Y-86845828D01*
X96635489Y-85417257D02*
X96492632Y-85345828D01*
X96492632Y-85345828D02*
X96206917Y-85345828D01*
X96206917Y-85345828D02*
X96064060Y-85417257D01*
X96064060Y-85417257D02*
X95992632Y-85488685D01*
X95992632Y-85488685D02*
X95921203Y-85631542D01*
X95921203Y-85631542D02*
X95921203Y-86060114D01*
X95921203Y-86060114D02*
X95992632Y-86202971D01*
X95992632Y-86202971D02*
X96064060Y-86274400D01*
X96064060Y-86274400D02*
X96206917Y-86345828D01*
X96206917Y-86345828D02*
X96492632Y-86345828D01*
X96492632Y-86345828D02*
X96635489Y-86274400D01*
X94635489Y-86345828D02*
X94635489Y-85560114D01*
X94635489Y-85560114D02*
X94706917Y-85417257D01*
X94706917Y-85417257D02*
X94849774Y-85345828D01*
X94849774Y-85345828D02*
X95135489Y-85345828D01*
X95135489Y-85345828D02*
X95278346Y-85417257D01*
X94635489Y-86274400D02*
X94778346Y-86345828D01*
X94778346Y-86345828D02*
X95135489Y-86345828D01*
X95135489Y-86345828D02*
X95278346Y-86274400D01*
X95278346Y-86274400D02*
X95349774Y-86131542D01*
X95349774Y-86131542D02*
X95349774Y-85988685D01*
X95349774Y-85988685D02*
X95278346Y-85845828D01*
X95278346Y-85845828D02*
X95135489Y-85774400D01*
X95135489Y-85774400D02*
X94778346Y-85774400D01*
X94778346Y-85774400D02*
X94635489Y-85702971D01*
X93921203Y-85345828D02*
X93921203Y-86345828D01*
X93921203Y-85488685D02*
X93849774Y-85417257D01*
X93849774Y-85417257D02*
X93706917Y-85345828D01*
X93706917Y-85345828D02*
X93492631Y-85345828D01*
X93492631Y-85345828D02*
X93349774Y-85417257D01*
X93349774Y-85417257D02*
X93278346Y-85560114D01*
X93278346Y-85560114D02*
X93278346Y-86345828D01*
X92778345Y-84845828D02*
X91921203Y-84845828D01*
X92349774Y-86345828D02*
X92349774Y-84845828D01*
X90849774Y-86274400D02*
X90992631Y-86345828D01*
X90992631Y-86345828D02*
X91278346Y-86345828D01*
X91278346Y-86345828D02*
X91421203Y-86274400D01*
X91421203Y-86274400D02*
X91492631Y-86131542D01*
X91492631Y-86131542D02*
X91492631Y-85560114D01*
X91492631Y-85560114D02*
X91421203Y-85417257D01*
X91421203Y-85417257D02*
X91278346Y-85345828D01*
X91278346Y-85345828D02*
X90992631Y-85345828D01*
X90992631Y-85345828D02*
X90849774Y-85417257D01*
X90849774Y-85417257D02*
X90778346Y-85560114D01*
X90778346Y-85560114D02*
X90778346Y-85702971D01*
X90778346Y-85702971D02*
X91492631Y-85845828D01*
X89492632Y-86274400D02*
X89635489Y-86345828D01*
X89635489Y-86345828D02*
X89921203Y-86345828D01*
X89921203Y-86345828D02*
X90064060Y-86274400D01*
X90064060Y-86274400D02*
X90135489Y-86202971D01*
X90135489Y-86202971D02*
X90206917Y-86060114D01*
X90206917Y-86060114D02*
X90206917Y-85631542D01*
X90206917Y-85631542D02*
X90135489Y-85488685D01*
X90135489Y-85488685D02*
X90064060Y-85417257D01*
X90064060Y-85417257D02*
X89921203Y-85345828D01*
X89921203Y-85345828D02*
X89635489Y-85345828D01*
X89635489Y-85345828D02*
X89492632Y-85417257D01*
X88849775Y-86345828D02*
X88849775Y-84845828D01*
X88206918Y-86345828D02*
X88206918Y-85560114D01*
X88206918Y-85560114D02*
X88278346Y-85417257D01*
X88278346Y-85417257D02*
X88421203Y-85345828D01*
X88421203Y-85345828D02*
X88635489Y-85345828D01*
X88635489Y-85345828D02*
X88778346Y-85417257D01*
X88778346Y-85417257D02*
X88849775Y-85488685D01*
X86349775Y-86345828D02*
X86349775Y-84845828D01*
X86349775Y-84845828D02*
X85778346Y-84845828D01*
X85778346Y-84845828D02*
X85635489Y-84917257D01*
X85635489Y-84917257D02*
X85564060Y-84988685D01*
X85564060Y-84988685D02*
X85492632Y-85131542D01*
X85492632Y-85131542D02*
X85492632Y-85345828D01*
X85492632Y-85345828D02*
X85564060Y-85488685D01*
X85564060Y-85488685D02*
X85635489Y-85560114D01*
X85635489Y-85560114D02*
X85778346Y-85631542D01*
X85778346Y-85631542D02*
X86349775Y-85631542D01*
X84849775Y-86345828D02*
X84849775Y-85345828D01*
X84849775Y-84845828D02*
X84921203Y-84917257D01*
X84921203Y-84917257D02*
X84849775Y-84988685D01*
X84849775Y-84988685D02*
X84778346Y-84917257D01*
X84778346Y-84917257D02*
X84849775Y-84845828D01*
X84849775Y-84845828D02*
X84849775Y-84988685D01*
X83492632Y-86274400D02*
X83635489Y-86345828D01*
X83635489Y-86345828D02*
X83921203Y-86345828D01*
X83921203Y-86345828D02*
X84064060Y-86274400D01*
X84064060Y-86274400D02*
X84135489Y-86202971D01*
X84135489Y-86202971D02*
X84206917Y-86060114D01*
X84206917Y-86060114D02*
X84206917Y-85631542D01*
X84206917Y-85631542D02*
X84135489Y-85488685D01*
X84135489Y-85488685D02*
X84064060Y-85417257D01*
X84064060Y-85417257D02*
X83921203Y-85345828D01*
X83921203Y-85345828D02*
X83635489Y-85345828D01*
X83635489Y-85345828D02*
X83492632Y-85417257D01*
X82635489Y-86345828D02*
X82778346Y-86274400D01*
X82778346Y-86274400D02*
X82849775Y-86202971D01*
X82849775Y-86202971D02*
X82921203Y-86060114D01*
X82921203Y-86060114D02*
X82921203Y-85631542D01*
X82921203Y-85631542D02*
X82849775Y-85488685D01*
X82849775Y-85488685D02*
X82778346Y-85417257D01*
X82778346Y-85417257D02*
X82635489Y-85345828D01*
X82635489Y-85345828D02*
X82421203Y-85345828D01*
X82421203Y-85345828D02*
X82278346Y-85417257D01*
X82278346Y-85417257D02*
X82206918Y-85488685D01*
X82206918Y-85488685D02*
X82135489Y-85631542D01*
X82135489Y-85631542D02*
X82135489Y-86060114D01*
X82135489Y-86060114D02*
X82206918Y-86202971D01*
X82206918Y-86202971D02*
X82278346Y-86274400D01*
X82278346Y-86274400D02*
X82421203Y-86345828D01*
X82421203Y-86345828D02*
X82635489Y-86345828D01*
X101135489Y-91175828D02*
X101135489Y-89675828D01*
X100492632Y-91175828D02*
X100492632Y-90390114D01*
X100492632Y-90390114D02*
X100564060Y-90247257D01*
X100564060Y-90247257D02*
X100706917Y-90175828D01*
X100706917Y-90175828D02*
X100921203Y-90175828D01*
X100921203Y-90175828D02*
X101064060Y-90247257D01*
X101064060Y-90247257D02*
X101135489Y-90318685D01*
X99992631Y-90175828D02*
X99421203Y-90175828D01*
X99778346Y-89675828D02*
X99778346Y-90961542D01*
X99778346Y-90961542D02*
X99706917Y-91104400D01*
X99706917Y-91104400D02*
X99564060Y-91175828D01*
X99564060Y-91175828D02*
X99421203Y-91175828D01*
X99135488Y-90175828D02*
X98564060Y-90175828D01*
X98921203Y-89675828D02*
X98921203Y-90961542D01*
X98921203Y-90961542D02*
X98849774Y-91104400D01*
X98849774Y-91104400D02*
X98706917Y-91175828D01*
X98706917Y-91175828D02*
X98564060Y-91175828D01*
X98064060Y-90175828D02*
X98064060Y-91675828D01*
X98064060Y-90247257D02*
X97921203Y-90175828D01*
X97921203Y-90175828D02*
X97635488Y-90175828D01*
X97635488Y-90175828D02*
X97492631Y-90247257D01*
X97492631Y-90247257D02*
X97421203Y-90318685D01*
X97421203Y-90318685D02*
X97349774Y-90461542D01*
X97349774Y-90461542D02*
X97349774Y-90890114D01*
X97349774Y-90890114D02*
X97421203Y-91032971D01*
X97421203Y-91032971D02*
X97492631Y-91104400D01*
X97492631Y-91104400D02*
X97635488Y-91175828D01*
X97635488Y-91175828D02*
X97921203Y-91175828D01*
X97921203Y-91175828D02*
X98064060Y-91104400D01*
X96778345Y-91104400D02*
X96635488Y-91175828D01*
X96635488Y-91175828D02*
X96349774Y-91175828D01*
X96349774Y-91175828D02*
X96206917Y-91104400D01*
X96206917Y-91104400D02*
X96135488Y-90961542D01*
X96135488Y-90961542D02*
X96135488Y-90890114D01*
X96135488Y-90890114D02*
X96206917Y-90747257D01*
X96206917Y-90747257D02*
X96349774Y-90675828D01*
X96349774Y-90675828D02*
X96564060Y-90675828D01*
X96564060Y-90675828D02*
X96706917Y-90604400D01*
X96706917Y-90604400D02*
X96778345Y-90461542D01*
X96778345Y-90461542D02*
X96778345Y-90390114D01*
X96778345Y-90390114D02*
X96706917Y-90247257D01*
X96706917Y-90247257D02*
X96564060Y-90175828D01*
X96564060Y-90175828D02*
X96349774Y-90175828D01*
X96349774Y-90175828D02*
X96206917Y-90247257D01*
X95492631Y-91032971D02*
X95421202Y-91104400D01*
X95421202Y-91104400D02*
X95492631Y-91175828D01*
X95492631Y-91175828D02*
X95564059Y-91104400D01*
X95564059Y-91104400D02*
X95492631Y-91032971D01*
X95492631Y-91032971D02*
X95492631Y-91175828D01*
X95492631Y-90247257D02*
X95421202Y-90318685D01*
X95421202Y-90318685D02*
X95492631Y-90390114D01*
X95492631Y-90390114D02*
X95564059Y-90318685D01*
X95564059Y-90318685D02*
X95492631Y-90247257D01*
X95492631Y-90247257D02*
X95492631Y-90390114D01*
X93706916Y-89604400D02*
X94992630Y-91532971D01*
X92135487Y-89604400D02*
X93421201Y-91532971D01*
X91849772Y-90175828D02*
X91278344Y-90175828D01*
X91635487Y-89675828D02*
X91635487Y-90961542D01*
X91635487Y-90961542D02*
X91564058Y-91104400D01*
X91564058Y-91104400D02*
X91421201Y-91175828D01*
X91421201Y-91175828D02*
X91278344Y-91175828D01*
X90135487Y-91175828D02*
X90135487Y-90390114D01*
X90135487Y-90390114D02*
X90206915Y-90247257D01*
X90206915Y-90247257D02*
X90349772Y-90175828D01*
X90349772Y-90175828D02*
X90635487Y-90175828D01*
X90635487Y-90175828D02*
X90778344Y-90247257D01*
X90135487Y-91104400D02*
X90278344Y-91175828D01*
X90278344Y-91175828D02*
X90635487Y-91175828D01*
X90635487Y-91175828D02*
X90778344Y-91104400D01*
X90778344Y-91104400D02*
X90849772Y-90961542D01*
X90849772Y-90961542D02*
X90849772Y-90818685D01*
X90849772Y-90818685D02*
X90778344Y-90675828D01*
X90778344Y-90675828D02*
X90635487Y-90604400D01*
X90635487Y-90604400D02*
X90278344Y-90604400D01*
X90278344Y-90604400D02*
X90135487Y-90532971D01*
X89421201Y-91175828D02*
X89421201Y-90175828D01*
X89421201Y-90318685D02*
X89349772Y-90247257D01*
X89349772Y-90247257D02*
X89206915Y-90175828D01*
X89206915Y-90175828D02*
X88992629Y-90175828D01*
X88992629Y-90175828D02*
X88849772Y-90247257D01*
X88849772Y-90247257D02*
X88778344Y-90390114D01*
X88778344Y-90390114D02*
X88778344Y-91175828D01*
X88778344Y-90390114D02*
X88706915Y-90247257D01*
X88706915Y-90247257D02*
X88564058Y-90175828D01*
X88564058Y-90175828D02*
X88349772Y-90175828D01*
X88349772Y-90175828D02*
X88206915Y-90247257D01*
X88206915Y-90247257D02*
X88135486Y-90390114D01*
X88135486Y-90390114D02*
X88135486Y-91175828D01*
X87421201Y-90175828D02*
X87421201Y-91675828D01*
X87421201Y-90247257D02*
X87278344Y-90175828D01*
X87278344Y-90175828D02*
X86992629Y-90175828D01*
X86992629Y-90175828D02*
X86849772Y-90247257D01*
X86849772Y-90247257D02*
X86778344Y-90318685D01*
X86778344Y-90318685D02*
X86706915Y-90461542D01*
X86706915Y-90461542D02*
X86706915Y-90890114D01*
X86706915Y-90890114D02*
X86778344Y-91032971D01*
X86778344Y-91032971D02*
X86849772Y-91104400D01*
X86849772Y-91104400D02*
X86992629Y-91175828D01*
X86992629Y-91175828D02*
X87278344Y-91175828D01*
X87278344Y-91175828D02*
X87421201Y-91104400D01*
X85421201Y-91175828D02*
X85421201Y-90390114D01*
X85421201Y-90390114D02*
X85492629Y-90247257D01*
X85492629Y-90247257D02*
X85635486Y-90175828D01*
X85635486Y-90175828D02*
X85921201Y-90175828D01*
X85921201Y-90175828D02*
X86064058Y-90247257D01*
X85421201Y-91104400D02*
X85564058Y-91175828D01*
X85564058Y-91175828D02*
X85921201Y-91175828D01*
X85921201Y-91175828D02*
X86064058Y-91104400D01*
X86064058Y-91104400D02*
X86135486Y-90961542D01*
X86135486Y-90961542D02*
X86135486Y-90818685D01*
X86135486Y-90818685D02*
X86064058Y-90675828D01*
X86064058Y-90675828D02*
X85921201Y-90604400D01*
X85921201Y-90604400D02*
X85564058Y-90604400D01*
X85564058Y-90604400D02*
X85421201Y-90532971D01*
X84706915Y-90175828D02*
X84706915Y-91175828D01*
X84706915Y-90318685D02*
X84635486Y-90247257D01*
X84635486Y-90247257D02*
X84492629Y-90175828D01*
X84492629Y-90175828D02*
X84278343Y-90175828D01*
X84278343Y-90175828D02*
X84135486Y-90247257D01*
X84135486Y-90247257D02*
X84064058Y-90390114D01*
X84064058Y-90390114D02*
X84064058Y-91175828D01*
X83349772Y-91032971D02*
X83278343Y-91104400D01*
X83278343Y-91104400D02*
X83349772Y-91175828D01*
X83349772Y-91175828D02*
X83421200Y-91104400D01*
X83421200Y-91104400D02*
X83349772Y-91032971D01*
X83349772Y-91032971D02*
X83349772Y-91175828D01*
X82849771Y-90175828D02*
X82278343Y-90175828D01*
X82635486Y-89675828D02*
X82635486Y-90961542D01*
X82635486Y-90961542D02*
X82564057Y-91104400D01*
X82564057Y-91104400D02*
X82421200Y-91175828D01*
X82421200Y-91175828D02*
X82278343Y-91175828D01*
X81206914Y-91104400D02*
X81349771Y-91175828D01*
X81349771Y-91175828D02*
X81635486Y-91175828D01*
X81635486Y-91175828D02*
X81778343Y-91104400D01*
X81778343Y-91104400D02*
X81849771Y-90961542D01*
X81849771Y-90961542D02*
X81849771Y-90390114D01*
X81849771Y-90390114D02*
X81778343Y-90247257D01*
X81778343Y-90247257D02*
X81635486Y-90175828D01*
X81635486Y-90175828D02*
X81349771Y-90175828D01*
X81349771Y-90175828D02*
X81206914Y-90247257D01*
X81206914Y-90247257D02*
X81135486Y-90390114D01*
X81135486Y-90390114D02*
X81135486Y-90532971D01*
X81135486Y-90532971D02*
X81849771Y-90675828D01*
X79849772Y-91104400D02*
X79992629Y-91175828D01*
X79992629Y-91175828D02*
X80278343Y-91175828D01*
X80278343Y-91175828D02*
X80421200Y-91104400D01*
X80421200Y-91104400D02*
X80492629Y-91032971D01*
X80492629Y-91032971D02*
X80564057Y-90890114D01*
X80564057Y-90890114D02*
X80564057Y-90461542D01*
X80564057Y-90461542D02*
X80492629Y-90318685D01*
X80492629Y-90318685D02*
X80421200Y-90247257D01*
X80421200Y-90247257D02*
X80278343Y-90175828D01*
X80278343Y-90175828D02*
X79992629Y-90175828D01*
X79992629Y-90175828D02*
X79849772Y-90247257D01*
X79206915Y-91175828D02*
X79206915Y-89675828D01*
X78564058Y-91175828D02*
X78564058Y-90390114D01*
X78564058Y-90390114D02*
X78635486Y-90247257D01*
X78635486Y-90247257D02*
X78778343Y-90175828D01*
X78778343Y-90175828D02*
X78992629Y-90175828D01*
X78992629Y-90175828D02*
X79135486Y-90247257D01*
X79135486Y-90247257D02*
X79206915Y-90318685D01*
X101135489Y-93590828D02*
X101135489Y-92590828D01*
X101135489Y-92733685D02*
X101064060Y-92662257D01*
X101064060Y-92662257D02*
X100921203Y-92590828D01*
X100921203Y-92590828D02*
X100706917Y-92590828D01*
X100706917Y-92590828D02*
X100564060Y-92662257D01*
X100564060Y-92662257D02*
X100492632Y-92805114D01*
X100492632Y-92805114D02*
X100492632Y-93590828D01*
X100492632Y-92805114D02*
X100421203Y-92662257D01*
X100421203Y-92662257D02*
X100278346Y-92590828D01*
X100278346Y-92590828D02*
X100064060Y-92590828D01*
X100064060Y-92590828D02*
X99921203Y-92662257D01*
X99921203Y-92662257D02*
X99849774Y-92805114D01*
X99849774Y-92805114D02*
X99849774Y-93590828D01*
X98492632Y-93590828D02*
X98492632Y-92805114D01*
X98492632Y-92805114D02*
X98564060Y-92662257D01*
X98564060Y-92662257D02*
X98706917Y-92590828D01*
X98706917Y-92590828D02*
X98992632Y-92590828D01*
X98992632Y-92590828D02*
X99135489Y-92662257D01*
X98492632Y-93519400D02*
X98635489Y-93590828D01*
X98635489Y-93590828D02*
X98992632Y-93590828D01*
X98992632Y-93590828D02*
X99135489Y-93519400D01*
X99135489Y-93519400D02*
X99206917Y-93376542D01*
X99206917Y-93376542D02*
X99206917Y-93233685D01*
X99206917Y-93233685D02*
X99135489Y-93090828D01*
X99135489Y-93090828D02*
X98992632Y-93019400D01*
X98992632Y-93019400D02*
X98635489Y-93019400D01*
X98635489Y-93019400D02*
X98492632Y-92947971D01*
X97135489Y-93590828D02*
X97135489Y-92090828D01*
X97135489Y-93519400D02*
X97278346Y-93590828D01*
X97278346Y-93590828D02*
X97564060Y-93590828D01*
X97564060Y-93590828D02*
X97706917Y-93519400D01*
X97706917Y-93519400D02*
X97778346Y-93447971D01*
X97778346Y-93447971D02*
X97849774Y-93305114D01*
X97849774Y-93305114D02*
X97849774Y-92876542D01*
X97849774Y-92876542D02*
X97778346Y-92733685D01*
X97778346Y-92733685D02*
X97706917Y-92662257D01*
X97706917Y-92662257D02*
X97564060Y-92590828D01*
X97564060Y-92590828D02*
X97278346Y-92590828D01*
X97278346Y-92590828D02*
X97135489Y-92662257D01*
X95849774Y-93519400D02*
X95992631Y-93590828D01*
X95992631Y-93590828D02*
X96278346Y-93590828D01*
X96278346Y-93590828D02*
X96421203Y-93519400D01*
X96421203Y-93519400D02*
X96492631Y-93376542D01*
X96492631Y-93376542D02*
X96492631Y-92805114D01*
X96492631Y-92805114D02*
X96421203Y-92662257D01*
X96421203Y-92662257D02*
X96278346Y-92590828D01*
X96278346Y-92590828D02*
X95992631Y-92590828D01*
X95992631Y-92590828D02*
X95849774Y-92662257D01*
X95849774Y-92662257D02*
X95778346Y-92805114D01*
X95778346Y-92805114D02*
X95778346Y-92947971D01*
X95778346Y-92947971D02*
X96492631Y-93090828D01*
X93992632Y-93590828D02*
X93992632Y-92590828D01*
X93992632Y-92090828D02*
X94064060Y-92162257D01*
X94064060Y-92162257D02*
X93992632Y-92233685D01*
X93992632Y-92233685D02*
X93921203Y-92162257D01*
X93921203Y-92162257D02*
X93992632Y-92090828D01*
X93992632Y-92090828D02*
X93992632Y-92233685D01*
X93278346Y-92590828D02*
X93278346Y-93590828D01*
X93278346Y-92733685D02*
X93206917Y-92662257D01*
X93206917Y-92662257D02*
X93064060Y-92590828D01*
X93064060Y-92590828D02*
X92849774Y-92590828D01*
X92849774Y-92590828D02*
X92706917Y-92662257D01*
X92706917Y-92662257D02*
X92635489Y-92805114D01*
X92635489Y-92805114D02*
X92635489Y-93590828D01*
X90778346Y-93590828D02*
X90778346Y-92090828D01*
X90778346Y-92090828D02*
X90206917Y-92090828D01*
X90206917Y-92090828D02*
X90064060Y-92162257D01*
X90064060Y-92162257D02*
X89992631Y-92233685D01*
X89992631Y-92233685D02*
X89921203Y-92376542D01*
X89921203Y-92376542D02*
X89921203Y-92590828D01*
X89921203Y-92590828D02*
X89992631Y-92733685D01*
X89992631Y-92733685D02*
X90064060Y-92805114D01*
X90064060Y-92805114D02*
X90206917Y-92876542D01*
X90206917Y-92876542D02*
X90778346Y-92876542D01*
X88635489Y-92590828D02*
X88635489Y-93590828D01*
X89278346Y-92590828D02*
X89278346Y-93376542D01*
X89278346Y-93376542D02*
X89206917Y-93519400D01*
X89206917Y-93519400D02*
X89064060Y-93590828D01*
X89064060Y-93590828D02*
X88849774Y-93590828D01*
X88849774Y-93590828D02*
X88706917Y-93519400D01*
X88706917Y-93519400D02*
X88635489Y-93447971D01*
X87921203Y-93590828D02*
X87921203Y-92590828D01*
X87921203Y-92876542D02*
X87849774Y-92733685D01*
X87849774Y-92733685D02*
X87778346Y-92662257D01*
X87778346Y-92662257D02*
X87635488Y-92590828D01*
X87635488Y-92590828D02*
X87492631Y-92590828D01*
X86992632Y-93590828D02*
X86992632Y-92090828D01*
X86992632Y-92662257D02*
X86849775Y-92590828D01*
X86849775Y-92590828D02*
X86564060Y-92590828D01*
X86564060Y-92590828D02*
X86421203Y-92662257D01*
X86421203Y-92662257D02*
X86349775Y-92733685D01*
X86349775Y-92733685D02*
X86278346Y-92876542D01*
X86278346Y-92876542D02*
X86278346Y-93305114D01*
X86278346Y-93305114D02*
X86349775Y-93447971D01*
X86349775Y-93447971D02*
X86421203Y-93519400D01*
X86421203Y-93519400D02*
X86564060Y-93590828D01*
X86564060Y-93590828D02*
X86849775Y-93590828D01*
X86849775Y-93590828D02*
X86992632Y-93519400D01*
X84992632Y-93590828D02*
X84992632Y-92805114D01*
X84992632Y-92805114D02*
X85064060Y-92662257D01*
X85064060Y-92662257D02*
X85206917Y-92590828D01*
X85206917Y-92590828D02*
X85492632Y-92590828D01*
X85492632Y-92590828D02*
X85635489Y-92662257D01*
X84992632Y-93519400D02*
X85135489Y-93590828D01*
X85135489Y-93590828D02*
X85492632Y-93590828D01*
X85492632Y-93590828D02*
X85635489Y-93519400D01*
X85635489Y-93519400D02*
X85706917Y-93376542D01*
X85706917Y-93376542D02*
X85706917Y-93233685D01*
X85706917Y-93233685D02*
X85635489Y-93090828D01*
X85635489Y-93090828D02*
X85492632Y-93019400D01*
X85492632Y-93019400D02*
X85135489Y-93019400D01*
X85135489Y-93019400D02*
X84992632Y-92947971D01*
X84064060Y-93590828D02*
X84206917Y-93519400D01*
X84206917Y-93519400D02*
X84278346Y-93376542D01*
X84278346Y-93376542D02*
X84278346Y-92090828D01*
X83492632Y-93590828D02*
X83492632Y-92590828D01*
X83492632Y-92090828D02*
X83564060Y-92162257D01*
X83564060Y-92162257D02*
X83492632Y-92233685D01*
X83492632Y-92233685D02*
X83421203Y-92162257D01*
X83421203Y-92162257D02*
X83492632Y-92090828D01*
X83492632Y-92090828D02*
X83492632Y-92233685D01*
X82778346Y-92590828D02*
X82778346Y-93590828D01*
X82778346Y-92733685D02*
X82706917Y-92662257D01*
X82706917Y-92662257D02*
X82564060Y-92590828D01*
X82564060Y-92590828D02*
X82349774Y-92590828D01*
X82349774Y-92590828D02*
X82206917Y-92662257D01*
X82206917Y-92662257D02*
X82135489Y-92805114D01*
X82135489Y-92805114D02*
X82135489Y-93590828D01*
X80778346Y-92590828D02*
X80778346Y-93805114D01*
X80778346Y-93805114D02*
X80849774Y-93947971D01*
X80849774Y-93947971D02*
X80921203Y-94019400D01*
X80921203Y-94019400D02*
X81064060Y-94090828D01*
X81064060Y-94090828D02*
X81278346Y-94090828D01*
X81278346Y-94090828D02*
X81421203Y-94019400D01*
X80778346Y-93519400D02*
X80921203Y-93590828D01*
X80921203Y-93590828D02*
X81206917Y-93590828D01*
X81206917Y-93590828D02*
X81349774Y-93519400D01*
X81349774Y-93519400D02*
X81421203Y-93447971D01*
X81421203Y-93447971D02*
X81492631Y-93305114D01*
X81492631Y-93305114D02*
X81492631Y-92876542D01*
X81492631Y-92876542D02*
X81421203Y-92733685D01*
X81421203Y-92733685D02*
X81349774Y-92662257D01*
X81349774Y-92662257D02*
X81206917Y-92590828D01*
X81206917Y-92590828D02*
X80921203Y-92590828D01*
X80921203Y-92590828D02*
X80778346Y-92662257D01*
X79421203Y-92590828D02*
X79421203Y-93805114D01*
X79421203Y-93805114D02*
X79492631Y-93947971D01*
X79492631Y-93947971D02*
X79564060Y-94019400D01*
X79564060Y-94019400D02*
X79706917Y-94090828D01*
X79706917Y-94090828D02*
X79921203Y-94090828D01*
X79921203Y-94090828D02*
X80064060Y-94019400D01*
X79421203Y-93519400D02*
X79564060Y-93590828D01*
X79564060Y-93590828D02*
X79849774Y-93590828D01*
X79849774Y-93590828D02*
X79992631Y-93519400D01*
X79992631Y-93519400D02*
X80064060Y-93447971D01*
X80064060Y-93447971D02*
X80135488Y-93305114D01*
X80135488Y-93305114D02*
X80135488Y-92876542D01*
X80135488Y-92876542D02*
X80064060Y-92733685D01*
X80064060Y-92733685D02*
X79992631Y-92662257D01*
X79992631Y-92662257D02*
X79849774Y-92590828D01*
X79849774Y-92590828D02*
X79564060Y-92590828D01*
X79564060Y-92590828D02*
X79421203Y-92662257D01*
X78064060Y-93590828D02*
X78064060Y-92805114D01*
X78064060Y-92805114D02*
X78135488Y-92662257D01*
X78135488Y-92662257D02*
X78278345Y-92590828D01*
X78278345Y-92590828D02*
X78564060Y-92590828D01*
X78564060Y-92590828D02*
X78706917Y-92662257D01*
X78064060Y-93519400D02*
X78206917Y-93590828D01*
X78206917Y-93590828D02*
X78564060Y-93590828D01*
X78564060Y-93590828D02*
X78706917Y-93519400D01*
X78706917Y-93519400D02*
X78778345Y-93376542D01*
X78778345Y-93376542D02*
X78778345Y-93233685D01*
X78778345Y-93233685D02*
X78706917Y-93090828D01*
X78706917Y-93090828D02*
X78564060Y-93019400D01*
X78564060Y-93019400D02*
X78206917Y-93019400D01*
X78206917Y-93019400D02*
X78064060Y-92947971D01*
%LPC*%
D11*
X73455000Y-53515000D03*
D12*
X73455000Y-56055000D03*
X73455000Y-58595000D03*
X73455000Y-61135000D03*
X73455000Y-63675000D03*
X73455000Y-66215000D03*
X73455000Y-68755000D03*
X73455000Y-71295000D03*
X73455000Y-73835000D03*
X73455000Y-76375000D03*
X73455000Y-78915000D03*
X73455000Y-81455000D03*
X73455000Y-83995000D03*
X73455000Y-86535000D03*
X73455000Y-89075000D03*
X73455000Y-91615000D03*
X73455000Y-94155000D03*
X73455000Y-96695000D03*
D11*
X78595000Y-79490000D03*
D12*
X78595000Y-82030000D03*
D13*
X90660000Y-55782500D03*
X86660000Y-55782500D03*
D14*
X91485000Y-53432500D03*
D15*
X85835000Y-53432500D03*
D16*
X80930000Y-96090000D03*
D17*
X99910000Y-55400000D03*
D11*
X107185000Y-96965000D03*
D12*
X107185000Y-94425000D03*
X107185000Y-91885000D03*
X107185000Y-89345000D03*
X107185000Y-86805000D03*
X107185000Y-84265000D03*
X107185000Y-81725000D03*
X107185000Y-79185000D03*
X107185000Y-76645000D03*
X107185000Y-74105000D03*
X107185000Y-71565000D03*
X107185000Y-69025000D03*
X107185000Y-66485000D03*
X107185000Y-63945000D03*
X107185000Y-61405000D03*
X107185000Y-58865000D03*
X107185000Y-56325000D03*
X107185000Y-53785000D03*
%LPD*%
M02*
