G04 #@! TF.GenerationSoftware,KiCad,Pcbnew,7.0.5-4d25ed1034~172~ubuntu22.04.1*
G04 #@! TF.CreationDate,2023-07-05T09:01:55+07:00*
G04 #@! TF.ProjectId,TMPboardM,544d5062-6f61-4726-944d-2e6b69636164,rev?*
G04 #@! TF.SameCoordinates,Original*
G04 #@! TF.FileFunction,Copper,L3,Inr*
G04 #@! TF.FilePolarity,Positive*
%FSLAX46Y46*%
G04 Gerber Fmt 4.6, Leading zero omitted, Abs format (unit mm)*
G04 Created by KiCad (PCBNEW 7.0.5-4d25ed1034~172~ubuntu22.04.1) date 2023-07-05 09:01:55*
%MOMM*%
%LPD*%
G01*
G04 APERTURE LIST*
G04 #@! TA.AperFunction,ComponentPad*
%ADD10R,1.700000X1.700000*%
G04 #@! TD*
G04 #@! TA.AperFunction,ComponentPad*
%ADD11O,1.700000X1.700000*%
G04 #@! TD*
G04 #@! TA.AperFunction,ComponentPad*
%ADD12O,1.000000X1.700000*%
G04 #@! TD*
G04 #@! TA.AperFunction,ComponentPad*
%ADD13O,0.850000X1.700000*%
G04 #@! TD*
G04 #@! TA.AperFunction,ViaPad*
%ADD14C,0.400000*%
G04 #@! TD*
G04 #@! TA.AperFunction,ViaPad*
%ADD15C,0.800000*%
G04 #@! TD*
G04 #@! TA.AperFunction,Conductor*
%ADD16C,0.200000*%
G04 #@! TD*
G04 #@! TA.AperFunction,Conductor*
%ADD17C,0.250000*%
G04 #@! TD*
G04 APERTURE END LIST*
D10*
X73455000Y-53515000D03*
D11*
X73455000Y-56055000D03*
X73455000Y-58595000D03*
X73455000Y-61135000D03*
X73455000Y-63675000D03*
X73455000Y-66215000D03*
X73455000Y-68755000D03*
X73455000Y-71295000D03*
X73455000Y-73835000D03*
X73455000Y-76375000D03*
X73455000Y-78915000D03*
X73455000Y-81455000D03*
X73455000Y-83995000D03*
X73455000Y-86535000D03*
X73455000Y-89075000D03*
X73455000Y-91615000D03*
X73455000Y-94155000D03*
X73455000Y-96695000D03*
D10*
X78595000Y-79490000D03*
D11*
X78595000Y-82030000D03*
D12*
X91485000Y-53432500D03*
D13*
X85835000Y-53432500D03*
D10*
X107185000Y-96965000D03*
D11*
X107185000Y-94425000D03*
X107185000Y-91885000D03*
X107185000Y-89345000D03*
X107185000Y-86805000D03*
X107185000Y-84265000D03*
X107185000Y-81725000D03*
X107185000Y-79185000D03*
X107185000Y-76645000D03*
X107185000Y-74105000D03*
X107185000Y-71565000D03*
X107185000Y-69025000D03*
X107185000Y-66485000D03*
X107185000Y-63945000D03*
X107185000Y-61405000D03*
X107185000Y-58865000D03*
X107185000Y-56325000D03*
X107185000Y-53785000D03*
D14*
X77216000Y-65532000D03*
X90250000Y-66990000D03*
D15*
X98500000Y-71350000D03*
D14*
X93420000Y-72360000D03*
X77800000Y-54550000D03*
X74720000Y-51970000D03*
X94130000Y-75680000D03*
X85000000Y-72140000D03*
X93560000Y-67070000D03*
X90350000Y-72240000D03*
X82400000Y-72319500D03*
X81830000Y-66650000D03*
X90750000Y-67350000D03*
X92470000Y-65940000D03*
X83566000Y-68520500D03*
X82070000Y-67950000D03*
X93600000Y-65990000D03*
D15*
X101200000Y-71310000D03*
D14*
X91719800Y-77320200D03*
X87789338Y-73895993D03*
X89189253Y-77215855D03*
X99822000Y-62230000D03*
X87720000Y-66320000D03*
X91730000Y-68040000D03*
X88090000Y-68520000D03*
D15*
X71670000Y-97960000D03*
X86080000Y-77680000D03*
X95780000Y-78740000D03*
X85490000Y-57550000D03*
X82960000Y-84030000D03*
D14*
X93726000Y-64770000D03*
X89189500Y-77870000D03*
D15*
X85740000Y-94800000D03*
D14*
X80410000Y-66670000D03*
D15*
X87250703Y-55039115D03*
D14*
X85820000Y-71170000D03*
D15*
X97690000Y-78960000D03*
D14*
X87510000Y-64390000D03*
D15*
X81570000Y-61670000D03*
D14*
X95120000Y-67550000D03*
D15*
X97170000Y-59980000D03*
D14*
X95400000Y-72380000D03*
D15*
X105040000Y-97110000D03*
X88660000Y-54760000D03*
D14*
X91105000Y-64565000D03*
D15*
X90970000Y-80130000D03*
D14*
X87700000Y-73200000D03*
X80310000Y-67930000D03*
D15*
X93440000Y-56300000D03*
X77010000Y-82650000D03*
D14*
X87710000Y-69280000D03*
X89680000Y-71150000D03*
D15*
X102130000Y-62390000D03*
D14*
X90380000Y-78337500D03*
D15*
X86300000Y-54740000D03*
X95000000Y-94800000D03*
X90960000Y-54600000D03*
X87920000Y-80000000D03*
D14*
X91577500Y-78202500D03*
X80290000Y-72319500D03*
X92390000Y-64490000D03*
X86689922Y-73988050D03*
X91040000Y-65710000D03*
X87589500Y-66904993D03*
X89490128Y-68451889D03*
X86793200Y-65536800D03*
X88129116Y-75452782D03*
X90360000Y-76560000D03*
X88388599Y-73878963D03*
X87443241Y-68543398D03*
X98320000Y-75555000D03*
X85230000Y-69990000D03*
X85210000Y-70870000D03*
X85730000Y-84730000D03*
X89690963Y-78599170D03*
X89189012Y-76400954D03*
X93990000Y-77960000D03*
X98285906Y-77993921D03*
X97950000Y-77490000D03*
X94080000Y-77270000D03*
X102220000Y-70420000D03*
X96990000Y-70420000D03*
X83120000Y-67960000D03*
X79970000Y-75370000D03*
X84928200Y-60681800D03*
X84223957Y-61393957D03*
X85640000Y-61170000D03*
X84460686Y-62360686D03*
D16*
X89288111Y-67951889D02*
X90250000Y-66990000D01*
X88658111Y-67951889D02*
X89288111Y-67951889D01*
X88090000Y-68520000D02*
X88658111Y-67951889D01*
X90360000Y-75850364D02*
X88388599Y-73878963D01*
X87210000Y-69487107D02*
X87210000Y-68776639D01*
X88388599Y-73878963D02*
X88388599Y-70665706D01*
D17*
X90787537Y-65710000D02*
X89592544Y-66904993D01*
D16*
X87443241Y-68543398D02*
X87443241Y-68459652D01*
D17*
X89592544Y-66904993D02*
X87589500Y-66904993D01*
D16*
X90360000Y-76560000D02*
X89252782Y-75452782D01*
X89252782Y-75452782D02*
X88129116Y-75452782D01*
X90360000Y-76560000D02*
X90360000Y-75850364D01*
X89627900Y-66904993D02*
X90702893Y-65830000D01*
D17*
X91040000Y-65710000D02*
X90787537Y-65710000D01*
D16*
X87589500Y-66904993D02*
X89627900Y-66904993D01*
X90702893Y-65830000D02*
X90870000Y-65830000D01*
X89490128Y-68451889D02*
X88388599Y-69553418D01*
X87210000Y-68776639D02*
X87443241Y-68543398D01*
X88388599Y-69553418D02*
X88388599Y-70665706D01*
X88388599Y-70665706D02*
X87210000Y-69487107D01*
G04 #@! TA.AperFunction,Conductor*
G36*
X110463064Y-50479685D02*
G01*
X110508819Y-50532489D01*
X110520025Y-50583975D01*
X110529974Y-99715849D01*
X110510303Y-99782892D01*
X110457508Y-99828658D01*
X110405849Y-99839874D01*
X70973575Y-99800114D01*
X70906555Y-99780362D01*
X70860854Y-99727512D01*
X70849700Y-99676444D01*
X70847167Y-98715282D01*
X70866675Y-98648194D01*
X70919358Y-98602300D01*
X70988491Y-98592174D01*
X71052122Y-98621031D01*
X71063315Y-98631984D01*
X71064129Y-98632888D01*
X71145983Y-98692358D01*
X71217265Y-98744148D01*
X71217270Y-98744151D01*
X71390192Y-98821142D01*
X71390197Y-98821144D01*
X71575354Y-98860500D01*
X71575355Y-98860500D01*
X71764644Y-98860500D01*
X71764646Y-98860500D01*
X71949803Y-98821144D01*
X72122730Y-98744151D01*
X72275871Y-98632888D01*
X72402533Y-98492216D01*
X72497179Y-98328284D01*
X72555674Y-98148256D01*
X72575460Y-97960000D01*
X72575459Y-97959998D01*
X72576139Y-97953537D01*
X72579029Y-97953840D01*
X72595145Y-97898959D01*
X72647949Y-97853204D01*
X72717107Y-97843260D01*
X72770582Y-97864422D01*
X72777170Y-97869035D01*
X72991337Y-97968903D01*
X72991343Y-97968904D01*
X72991344Y-97968905D01*
X73046285Y-97983626D01*
X73219592Y-98030063D01*
X73407918Y-98046539D01*
X73454999Y-98050659D01*
X73455000Y-98050659D01*
X73455001Y-98050659D01*
X73494234Y-98047226D01*
X73690408Y-98030063D01*
X73918663Y-97968903D01*
X74132830Y-97869035D01*
X74326401Y-97733495D01*
X74493495Y-97566401D01*
X74629035Y-97372830D01*
X74728903Y-97158663D01*
X74790063Y-96930408D01*
X74810659Y-96695000D01*
X74790063Y-96459592D01*
X74743626Y-96286285D01*
X74728905Y-96231344D01*
X74728904Y-96231343D01*
X74728903Y-96231337D01*
X74689263Y-96146330D01*
X79675710Y-96146330D01*
X79705925Y-96369387D01*
X79705926Y-96369390D01*
X79775483Y-96583465D01*
X79882146Y-96781678D01*
X79882148Y-96781681D01*
X80022489Y-96957663D01*
X80022491Y-96957664D01*
X80022492Y-96957666D01*
X80192004Y-97105765D01*
X80385236Y-97221215D01*
X80574980Y-97292427D01*
X80595976Y-97300307D01*
X80817450Y-97340500D01*
X80817453Y-97340500D01*
X80986148Y-97340500D01*
X80986155Y-97340500D01*
X81154188Y-97325377D01*
X81154192Y-97325376D01*
X81371160Y-97265496D01*
X81371162Y-97265495D01*
X81371170Y-97265493D01*
X81573973Y-97167829D01*
X81653568Y-97110000D01*
X104134540Y-97110000D01*
X104154326Y-97298256D01*
X104154327Y-97298259D01*
X104212818Y-97478277D01*
X104212821Y-97478284D01*
X104307467Y-97642216D01*
X104389655Y-97733495D01*
X104434129Y-97782888D01*
X104587265Y-97894148D01*
X104587270Y-97894151D01*
X104760192Y-97971142D01*
X104760197Y-97971144D01*
X104945354Y-98010500D01*
X104945355Y-98010500D01*
X105134644Y-98010500D01*
X105134646Y-98010500D01*
X105319803Y-97971144D01*
X105492730Y-97894151D01*
X105639581Y-97787457D01*
X105705383Y-97763979D01*
X105773437Y-97779804D01*
X105822132Y-97829910D01*
X105835753Y-97874523D01*
X105840908Y-97922483D01*
X105891202Y-98057328D01*
X105891206Y-98057335D01*
X105977452Y-98172544D01*
X105977455Y-98172547D01*
X106092664Y-98258793D01*
X106092671Y-98258797D01*
X106227517Y-98309091D01*
X106227516Y-98309091D01*
X106234444Y-98309835D01*
X106287127Y-98315500D01*
X108082872Y-98315499D01*
X108142483Y-98309091D01*
X108277331Y-98258796D01*
X108392546Y-98172546D01*
X108478796Y-98057331D01*
X108529091Y-97922483D01*
X108535500Y-97862873D01*
X108535499Y-96067128D01*
X108529091Y-96007517D01*
X108478796Y-95872669D01*
X108478795Y-95872668D01*
X108478793Y-95872664D01*
X108392547Y-95757455D01*
X108392544Y-95757452D01*
X108277335Y-95671206D01*
X108277328Y-95671202D01*
X108145917Y-95622189D01*
X108089983Y-95580318D01*
X108065566Y-95514853D01*
X108080418Y-95446580D01*
X108101563Y-95418332D01*
X108223495Y-95296401D01*
X108359035Y-95102830D01*
X108458903Y-94888663D01*
X108520063Y-94660408D01*
X108540659Y-94425000D01*
X108520063Y-94189592D01*
X108458903Y-93961337D01*
X108359035Y-93747171D01*
X108319939Y-93691335D01*
X108223494Y-93553597D01*
X108056402Y-93386506D01*
X108056396Y-93386501D01*
X107870842Y-93256575D01*
X107827217Y-93201998D01*
X107820023Y-93132500D01*
X107851546Y-93070145D01*
X107870842Y-93053425D01*
X107893026Y-93037891D01*
X108056401Y-92923495D01*
X108223495Y-92756401D01*
X108359035Y-92562830D01*
X108458903Y-92348663D01*
X108520063Y-92120408D01*
X108540659Y-91885000D01*
X108520063Y-91649592D01*
X108458903Y-91421337D01*
X108359035Y-91207171D01*
X108319939Y-91151335D01*
X108223494Y-91013597D01*
X108056402Y-90846506D01*
X108056396Y-90846501D01*
X107870842Y-90716575D01*
X107827217Y-90661998D01*
X107820023Y-90592500D01*
X107851546Y-90530145D01*
X107870842Y-90513425D01*
X107893026Y-90497891D01*
X108056401Y-90383495D01*
X108223495Y-90216401D01*
X108359035Y-90022830D01*
X108458903Y-89808663D01*
X108520063Y-89580408D01*
X108540659Y-89345000D01*
X108520063Y-89109592D01*
X108458903Y-88881337D01*
X108359035Y-88667171D01*
X108319939Y-88611335D01*
X108223494Y-88473597D01*
X108056402Y-88306506D01*
X108056396Y-88306501D01*
X107870842Y-88176575D01*
X107827217Y-88121998D01*
X107820023Y-88052500D01*
X107851546Y-87990145D01*
X107870842Y-87973425D01*
X107893026Y-87957891D01*
X108056401Y-87843495D01*
X108223495Y-87676401D01*
X108359035Y-87482830D01*
X108458903Y-87268663D01*
X108520063Y-87040408D01*
X108540659Y-86805000D01*
X108520063Y-86569592D01*
X108458903Y-86341337D01*
X108359035Y-86127171D01*
X108319939Y-86071335D01*
X108223494Y-85933597D01*
X108056402Y-85766506D01*
X108056396Y-85766501D01*
X107870842Y-85636575D01*
X107827217Y-85581998D01*
X107820023Y-85512500D01*
X107851546Y-85450145D01*
X107870842Y-85433425D01*
X107933159Y-85389790D01*
X108056401Y-85303495D01*
X108223495Y-85136401D01*
X108359035Y-84942830D01*
X108458903Y-84728663D01*
X108520063Y-84500408D01*
X108540659Y-84265000D01*
X108520063Y-84029592D01*
X108458903Y-83801337D01*
X108359035Y-83587171D01*
X108319939Y-83531335D01*
X108223494Y-83393597D01*
X108056402Y-83226506D01*
X108056396Y-83226501D01*
X107870842Y-83096575D01*
X107827217Y-83041998D01*
X107820023Y-82972500D01*
X107851546Y-82910145D01*
X107870842Y-82893425D01*
X107949631Y-82838256D01*
X108056401Y-82763495D01*
X108223495Y-82596401D01*
X108359035Y-82402830D01*
X108458903Y-82188663D01*
X108520063Y-81960408D01*
X108540659Y-81725000D01*
X108520063Y-81489592D01*
X108458903Y-81261337D01*
X108359035Y-81047171D01*
X108351685Y-81036673D01*
X108223494Y-80853597D01*
X108056402Y-80686506D01*
X108056396Y-80686501D01*
X107870842Y-80556575D01*
X107827217Y-80501998D01*
X107820023Y-80432500D01*
X107851546Y-80370145D01*
X107870842Y-80353425D01*
X107921068Y-80318256D01*
X108056401Y-80223495D01*
X108223495Y-80056401D01*
X108359035Y-79862830D01*
X108458903Y-79648663D01*
X108520063Y-79420408D01*
X108540659Y-79185000D01*
X108520063Y-78949592D01*
X108458903Y-78721337D01*
X108359035Y-78507171D01*
X108328913Y-78464151D01*
X108223494Y-78313597D01*
X108056402Y-78146506D01*
X108056396Y-78146501D01*
X107870842Y-78016575D01*
X107827217Y-77961998D01*
X107820023Y-77892500D01*
X107851546Y-77830145D01*
X107870842Y-77813425D01*
X107902691Y-77791124D01*
X108056401Y-77683495D01*
X108223495Y-77516401D01*
X108359035Y-77322830D01*
X108458903Y-77108663D01*
X108520063Y-76880408D01*
X108540659Y-76645000D01*
X108520063Y-76409592D01*
X108458903Y-76181337D01*
X108359035Y-75967171D01*
X108347528Y-75950736D01*
X108223494Y-75773597D01*
X108056402Y-75606506D01*
X108056396Y-75606501D01*
X107870842Y-75476575D01*
X107827217Y-75421998D01*
X107820023Y-75352500D01*
X107851546Y-75290145D01*
X107870842Y-75273425D01*
X107893026Y-75257891D01*
X108056401Y-75143495D01*
X108223495Y-74976401D01*
X108359035Y-74782830D01*
X108458903Y-74568663D01*
X108520063Y-74340408D01*
X108540659Y-74105000D01*
X108520063Y-73869592D01*
X108458903Y-73641337D01*
X108359035Y-73427171D01*
X108345133Y-73407316D01*
X108223494Y-73233597D01*
X108056402Y-73066506D01*
X108056396Y-73066501D01*
X107870842Y-72936575D01*
X107827217Y-72881998D01*
X107820023Y-72812500D01*
X107851546Y-72750145D01*
X107870842Y-72733425D01*
X107907251Y-72707931D01*
X108056401Y-72603495D01*
X108223495Y-72436401D01*
X108359035Y-72242830D01*
X108458903Y-72028663D01*
X108520063Y-71800408D01*
X108540659Y-71565000D01*
X108520063Y-71329592D01*
X108458903Y-71101337D01*
X108359035Y-70887171D01*
X108319939Y-70831335D01*
X108223494Y-70693597D01*
X108056402Y-70526506D01*
X108056396Y-70526501D01*
X107870842Y-70396575D01*
X107827217Y-70341998D01*
X107820023Y-70272500D01*
X107851546Y-70210145D01*
X107870842Y-70193425D01*
X107920193Y-70158869D01*
X108056401Y-70063495D01*
X108223495Y-69896401D01*
X108359035Y-69702830D01*
X108458903Y-69488663D01*
X108520063Y-69260408D01*
X108540659Y-69025000D01*
X108520063Y-68789592D01*
X108458903Y-68561337D01*
X108359035Y-68347171D01*
X108319939Y-68291335D01*
X108223494Y-68153597D01*
X108056402Y-67986506D01*
X108056396Y-67986501D01*
X107870842Y-67856575D01*
X107827217Y-67801998D01*
X107820023Y-67732500D01*
X107851546Y-67670145D01*
X107870842Y-67653425D01*
X107949281Y-67598501D01*
X108056401Y-67523495D01*
X108223495Y-67356401D01*
X108359035Y-67162830D01*
X108458903Y-66948663D01*
X108520063Y-66720408D01*
X108540659Y-66485000D01*
X108520063Y-66249592D01*
X108458903Y-66021337D01*
X108359035Y-65807171D01*
X108319939Y-65751335D01*
X108223494Y-65613597D01*
X108056402Y-65446506D01*
X108056401Y-65446505D01*
X107870842Y-65316575D01*
X107870841Y-65316574D01*
X107827216Y-65261997D01*
X107820024Y-65192498D01*
X107851546Y-65130144D01*
X107870836Y-65113428D01*
X108056401Y-64983495D01*
X108223495Y-64816401D01*
X108359035Y-64622830D01*
X108458903Y-64408663D01*
X108520063Y-64180408D01*
X108540659Y-63945000D01*
X108520063Y-63709592D01*
X108458903Y-63481337D01*
X108359035Y-63267171D01*
X108347812Y-63251142D01*
X108223494Y-63073597D01*
X108056402Y-62906506D01*
X108056401Y-62906505D01*
X107870842Y-62776575D01*
X107870841Y-62776574D01*
X107827216Y-62721997D01*
X107820024Y-62652498D01*
X107851546Y-62590144D01*
X107870836Y-62573428D01*
X108056401Y-62443495D01*
X108223495Y-62276401D01*
X108359035Y-62082830D01*
X108458903Y-61868663D01*
X108520063Y-61640408D01*
X108540659Y-61405000D01*
X108520063Y-61169592D01*
X108458903Y-60941337D01*
X108359035Y-60727171D01*
X108335429Y-60693457D01*
X108223494Y-60533597D01*
X108056402Y-60366506D01*
X108056401Y-60366505D01*
X107870842Y-60236575D01*
X107870841Y-60236574D01*
X107827216Y-60181997D01*
X107820024Y-60112498D01*
X107851546Y-60050144D01*
X107870836Y-60033428D01*
X108056401Y-59903495D01*
X108223495Y-59736401D01*
X108359035Y-59542830D01*
X108458903Y-59328663D01*
X108520063Y-59100408D01*
X108540659Y-58865000D01*
X108520063Y-58629592D01*
X108458903Y-58401337D01*
X108359035Y-58187171D01*
X108319939Y-58131335D01*
X108223494Y-57993597D01*
X108056402Y-57826506D01*
X108056401Y-57826505D01*
X107930373Y-57738259D01*
X107870841Y-57696574D01*
X107827216Y-57641997D01*
X107820024Y-57572498D01*
X107851546Y-57510144D01*
X107870836Y-57493428D01*
X108056401Y-57363495D01*
X108223495Y-57196401D01*
X108359035Y-57002830D01*
X108458903Y-56788663D01*
X108520063Y-56560408D01*
X108540659Y-56325000D01*
X108520063Y-56089592D01*
X108458903Y-55861337D01*
X108359035Y-55647171D01*
X108340810Y-55621142D01*
X108223494Y-55453597D01*
X108056402Y-55286506D01*
X108056401Y-55286505D01*
X107870842Y-55156575D01*
X107870841Y-55156574D01*
X107827216Y-55101997D01*
X107820024Y-55032498D01*
X107851546Y-54970144D01*
X107870836Y-54953428D01*
X108056401Y-54823495D01*
X108223495Y-54656401D01*
X108359035Y-54462830D01*
X108458903Y-54248663D01*
X108520063Y-54020408D01*
X108540659Y-53785000D01*
X108520063Y-53549592D01*
X108458903Y-53321337D01*
X108359035Y-53107171D01*
X108347046Y-53090048D01*
X108223494Y-52913597D01*
X108056402Y-52746506D01*
X108056395Y-52746501D01*
X107862834Y-52610967D01*
X107862830Y-52610965D01*
X107827411Y-52594449D01*
X107648663Y-52511097D01*
X107648659Y-52511096D01*
X107648655Y-52511094D01*
X107420413Y-52449938D01*
X107420403Y-52449936D01*
X107185001Y-52429341D01*
X107184999Y-52429341D01*
X106949596Y-52449936D01*
X106949586Y-52449938D01*
X106721344Y-52511094D01*
X106721335Y-52511098D01*
X106507171Y-52610964D01*
X106507169Y-52610965D01*
X106313597Y-52746505D01*
X106146505Y-52913597D01*
X106010965Y-53107169D01*
X106010964Y-53107171D01*
X105911098Y-53321335D01*
X105911094Y-53321344D01*
X105849938Y-53549586D01*
X105849936Y-53549596D01*
X105829341Y-53784999D01*
X105829341Y-53785000D01*
X105849936Y-54020403D01*
X105849938Y-54020413D01*
X105911094Y-54248655D01*
X105911096Y-54248659D01*
X105911097Y-54248663D01*
X105987141Y-54411740D01*
X106010965Y-54462830D01*
X106010967Y-54462834D01*
X106111974Y-54607086D01*
X106138053Y-54644331D01*
X106146501Y-54656395D01*
X106146506Y-54656402D01*
X106313597Y-54823493D01*
X106313603Y-54823498D01*
X106499158Y-54953425D01*
X106542783Y-55008002D01*
X106549977Y-55077500D01*
X106518454Y-55139855D01*
X106499158Y-55156575D01*
X106313597Y-55286505D01*
X106146505Y-55453597D01*
X106010965Y-55647169D01*
X106010964Y-55647171D01*
X105911098Y-55861335D01*
X105911094Y-55861344D01*
X105849938Y-56089586D01*
X105849936Y-56089596D01*
X105829341Y-56324999D01*
X105829341Y-56325000D01*
X105849936Y-56560403D01*
X105849938Y-56560413D01*
X105911094Y-56788655D01*
X105911096Y-56788659D01*
X105911097Y-56788663D01*
X105975326Y-56926402D01*
X106010965Y-57002830D01*
X106010967Y-57002834D01*
X106074448Y-57093493D01*
X106136222Y-57181716D01*
X106146501Y-57196395D01*
X106146506Y-57196402D01*
X106313597Y-57363493D01*
X106313603Y-57363498D01*
X106499158Y-57493425D01*
X106542783Y-57548002D01*
X106549977Y-57617500D01*
X106518454Y-57679855D01*
X106499158Y-57696575D01*
X106313597Y-57826505D01*
X106146505Y-57993597D01*
X106010965Y-58187169D01*
X106010964Y-58187171D01*
X105911098Y-58401335D01*
X105911094Y-58401344D01*
X105849938Y-58629586D01*
X105849936Y-58629596D01*
X105829341Y-58864999D01*
X105829341Y-58865000D01*
X105849936Y-59100403D01*
X105849938Y-59100413D01*
X105911094Y-59328655D01*
X105911096Y-59328659D01*
X105911097Y-59328663D01*
X105975326Y-59466402D01*
X106010965Y-59542830D01*
X106010967Y-59542834D01*
X106146501Y-59736395D01*
X106146506Y-59736402D01*
X106313597Y-59903493D01*
X106313603Y-59903498D01*
X106499158Y-60033425D01*
X106542783Y-60088002D01*
X106549977Y-60157500D01*
X106518454Y-60219855D01*
X106499158Y-60236575D01*
X106313597Y-60366505D01*
X106146505Y-60533597D01*
X106010965Y-60727169D01*
X106010964Y-60727171D01*
X105911098Y-60941335D01*
X105911094Y-60941344D01*
X105849938Y-61169586D01*
X105849936Y-61169596D01*
X105829341Y-61404999D01*
X105829341Y-61405000D01*
X105849936Y-61640403D01*
X105849938Y-61640413D01*
X105911094Y-61868655D01*
X105911096Y-61868659D01*
X105911097Y-61868663D01*
X105975326Y-62006402D01*
X106010965Y-62082830D01*
X106010967Y-62082834D01*
X106146501Y-62276395D01*
X106146506Y-62276402D01*
X106313597Y-62443493D01*
X106313603Y-62443498D01*
X106499158Y-62573425D01*
X106542783Y-62628002D01*
X106549977Y-62697500D01*
X106518454Y-62759855D01*
X106499158Y-62776575D01*
X106313597Y-62906505D01*
X106146505Y-63073597D01*
X106010965Y-63267169D01*
X106010964Y-63267171D01*
X105911098Y-63481335D01*
X105911094Y-63481344D01*
X105849938Y-63709586D01*
X105849936Y-63709596D01*
X105829341Y-63944999D01*
X105829341Y-63945000D01*
X105849936Y-64180403D01*
X105849938Y-64180413D01*
X105911094Y-64408655D01*
X105911096Y-64408659D01*
X105911097Y-64408663D01*
X105981141Y-64558872D01*
X106010965Y-64622830D01*
X106010967Y-64622834D01*
X106146501Y-64816395D01*
X106146506Y-64816402D01*
X106313597Y-64983493D01*
X106313603Y-64983498D01*
X106499158Y-65113425D01*
X106542783Y-65168002D01*
X106549977Y-65237500D01*
X106518454Y-65299855D01*
X106499158Y-65316575D01*
X106313597Y-65446505D01*
X106146505Y-65613597D01*
X106010965Y-65807169D01*
X106010964Y-65807171D01*
X105911098Y-66021335D01*
X105911094Y-66021344D01*
X105849938Y-66249586D01*
X105849936Y-66249596D01*
X105829341Y-66484999D01*
X105829341Y-66485000D01*
X105849936Y-66720403D01*
X105849938Y-66720413D01*
X105911094Y-66948655D01*
X105911096Y-66948659D01*
X105911097Y-66948663D01*
X106010965Y-67162830D01*
X106010967Y-67162834D01*
X106146501Y-67356395D01*
X106146506Y-67356402D01*
X106313597Y-67523493D01*
X106313603Y-67523498D01*
X106499158Y-67653425D01*
X106542783Y-67708002D01*
X106549977Y-67777500D01*
X106518454Y-67839855D01*
X106499158Y-67856575D01*
X106313597Y-67986505D01*
X106146505Y-68153597D01*
X106010965Y-68347169D01*
X106010964Y-68347171D01*
X105911098Y-68561335D01*
X105911094Y-68561344D01*
X105849938Y-68789586D01*
X105849936Y-68789596D01*
X105829341Y-69024999D01*
X105829341Y-69025000D01*
X105849936Y-69260403D01*
X105849938Y-69260413D01*
X105911094Y-69488655D01*
X105911096Y-69488659D01*
X105911097Y-69488663D01*
X105975326Y-69626402D01*
X106010965Y-69702830D01*
X106010967Y-69702834D01*
X106146501Y-69896395D01*
X106146506Y-69896402D01*
X106313597Y-70063493D01*
X106313603Y-70063498D01*
X106499158Y-70193425D01*
X106542783Y-70248002D01*
X106549977Y-70317500D01*
X106518454Y-70379855D01*
X106499158Y-70396575D01*
X106313597Y-70526505D01*
X106146505Y-70693597D01*
X106010965Y-70887169D01*
X106010964Y-70887171D01*
X105911098Y-71101335D01*
X105911094Y-71101344D01*
X105849938Y-71329586D01*
X105849936Y-71329596D01*
X105829341Y-71564999D01*
X105829341Y-71565000D01*
X105849936Y-71800403D01*
X105849938Y-71800413D01*
X105911094Y-72028655D01*
X105911096Y-72028659D01*
X105911097Y-72028663D01*
X105975326Y-72166402D01*
X106010965Y-72242830D01*
X106010967Y-72242834D01*
X106146501Y-72436395D01*
X106146506Y-72436402D01*
X106313597Y-72603493D01*
X106313603Y-72603498D01*
X106499158Y-72733425D01*
X106542783Y-72788002D01*
X106549977Y-72857500D01*
X106518454Y-72919855D01*
X106499158Y-72936575D01*
X106313597Y-73066505D01*
X106146505Y-73233597D01*
X106010965Y-73427169D01*
X106010964Y-73427171D01*
X105911098Y-73641335D01*
X105911094Y-73641344D01*
X105849938Y-73869586D01*
X105849936Y-73869596D01*
X105829341Y-74104999D01*
X105829341Y-74105000D01*
X105849936Y-74340403D01*
X105849938Y-74340413D01*
X105911094Y-74568655D01*
X105911096Y-74568659D01*
X105911097Y-74568663D01*
X105975326Y-74706402D01*
X106010965Y-74782830D01*
X106010967Y-74782834D01*
X106146501Y-74976395D01*
X106146506Y-74976402D01*
X106313597Y-75143493D01*
X106313603Y-75143498D01*
X106499158Y-75273425D01*
X106542783Y-75328002D01*
X106549977Y-75397500D01*
X106518454Y-75459855D01*
X106499158Y-75476575D01*
X106313597Y-75606505D01*
X106146505Y-75773597D01*
X106010965Y-75967169D01*
X106010964Y-75967171D01*
X105911098Y-76181335D01*
X105911094Y-76181344D01*
X105849938Y-76409586D01*
X105849936Y-76409596D01*
X105829341Y-76644999D01*
X105829341Y-76645000D01*
X105849936Y-76880403D01*
X105849938Y-76880413D01*
X105911094Y-77108655D01*
X105911096Y-77108659D01*
X105911097Y-77108663D01*
X105986330Y-77270000D01*
X106010965Y-77322830D01*
X106010967Y-77322834D01*
X106146501Y-77516395D01*
X106146506Y-77516402D01*
X106313597Y-77683493D01*
X106313603Y-77683498D01*
X106499158Y-77813425D01*
X106542783Y-77868002D01*
X106549977Y-77937500D01*
X106518454Y-77999855D01*
X106499158Y-78016575D01*
X106313597Y-78146505D01*
X106146505Y-78313597D01*
X106010965Y-78507169D01*
X106010964Y-78507171D01*
X105911098Y-78721335D01*
X105911094Y-78721344D01*
X105849938Y-78949586D01*
X105849936Y-78949596D01*
X105829341Y-79184999D01*
X105829341Y-79185000D01*
X105849936Y-79420403D01*
X105849938Y-79420413D01*
X105911094Y-79648655D01*
X105911096Y-79648659D01*
X105911097Y-79648663D01*
X106009879Y-79860500D01*
X106010965Y-79862830D01*
X106010967Y-79862834D01*
X106146501Y-80056395D01*
X106146506Y-80056402D01*
X106313597Y-80223493D01*
X106313603Y-80223498D01*
X106499158Y-80353425D01*
X106542783Y-80408002D01*
X106549977Y-80477500D01*
X106518454Y-80539855D01*
X106499158Y-80556575D01*
X106313597Y-80686505D01*
X106146505Y-80853597D01*
X106010965Y-81047169D01*
X106010964Y-81047171D01*
X105911098Y-81261335D01*
X105911094Y-81261344D01*
X105849938Y-81489586D01*
X105849936Y-81489596D01*
X105829341Y-81724999D01*
X105829341Y-81725000D01*
X105849936Y-81960403D01*
X105849938Y-81960413D01*
X105911094Y-82188655D01*
X105911096Y-82188659D01*
X105911097Y-82188663D01*
X105975326Y-82326402D01*
X106010965Y-82402830D01*
X106010967Y-82402834D01*
X106146501Y-82596395D01*
X106146506Y-82596402D01*
X106313597Y-82763493D01*
X106313603Y-82763498D01*
X106499158Y-82893425D01*
X106542783Y-82948002D01*
X106549977Y-83017500D01*
X106518454Y-83079855D01*
X106499158Y-83096575D01*
X106313597Y-83226505D01*
X106146505Y-83393597D01*
X106010965Y-83587169D01*
X106010964Y-83587171D01*
X105911098Y-83801335D01*
X105911094Y-83801344D01*
X105849938Y-84029586D01*
X105849936Y-84029596D01*
X105829341Y-84264999D01*
X105829341Y-84265000D01*
X105849936Y-84500403D01*
X105849938Y-84500413D01*
X105911094Y-84728655D01*
X105911096Y-84728659D01*
X105911097Y-84728663D01*
X105986863Y-84891144D01*
X106010965Y-84942830D01*
X106010967Y-84942834D01*
X106146501Y-85136395D01*
X106146506Y-85136402D01*
X106313597Y-85303493D01*
X106313603Y-85303498D01*
X106499158Y-85433425D01*
X106542783Y-85488002D01*
X106549977Y-85557500D01*
X106518454Y-85619855D01*
X106499158Y-85636575D01*
X106313597Y-85766505D01*
X106146505Y-85933597D01*
X106010965Y-86127169D01*
X106010964Y-86127171D01*
X105911098Y-86341335D01*
X105911094Y-86341344D01*
X105849938Y-86569586D01*
X105849936Y-86569596D01*
X105829341Y-86804999D01*
X105829341Y-86805000D01*
X105849936Y-87040403D01*
X105849938Y-87040413D01*
X105911094Y-87268655D01*
X105911096Y-87268659D01*
X105911097Y-87268663D01*
X105975326Y-87406402D01*
X106010965Y-87482830D01*
X106010967Y-87482834D01*
X106146501Y-87676395D01*
X106146506Y-87676402D01*
X106313597Y-87843493D01*
X106313603Y-87843498D01*
X106499158Y-87973425D01*
X106542783Y-88028002D01*
X106549977Y-88097500D01*
X106518454Y-88159855D01*
X106499158Y-88176575D01*
X106313597Y-88306505D01*
X106146505Y-88473597D01*
X106010965Y-88667169D01*
X106010964Y-88667171D01*
X105911098Y-88881335D01*
X105911094Y-88881344D01*
X105849938Y-89109586D01*
X105849936Y-89109596D01*
X105829341Y-89344999D01*
X105829341Y-89345000D01*
X105849936Y-89580403D01*
X105849938Y-89580413D01*
X105911094Y-89808655D01*
X105911096Y-89808659D01*
X105911097Y-89808663D01*
X105975326Y-89946402D01*
X106010965Y-90022830D01*
X106010967Y-90022834D01*
X106146501Y-90216395D01*
X106146506Y-90216402D01*
X106313597Y-90383493D01*
X106313603Y-90383498D01*
X106499158Y-90513425D01*
X106542783Y-90568002D01*
X106549977Y-90637500D01*
X106518454Y-90699855D01*
X106499158Y-90716575D01*
X106313597Y-90846505D01*
X106146505Y-91013597D01*
X106010965Y-91207169D01*
X106010964Y-91207171D01*
X105911098Y-91421335D01*
X105911094Y-91421344D01*
X105849938Y-91649586D01*
X105849936Y-91649596D01*
X105829341Y-91884999D01*
X105829341Y-91885000D01*
X105849936Y-92120403D01*
X105849938Y-92120413D01*
X105911094Y-92348655D01*
X105911096Y-92348659D01*
X105911097Y-92348663D01*
X105975326Y-92486402D01*
X106010965Y-92562830D01*
X106010967Y-92562834D01*
X106146501Y-92756395D01*
X106146506Y-92756402D01*
X106313597Y-92923493D01*
X106313603Y-92923498D01*
X106499158Y-93053425D01*
X106542783Y-93108002D01*
X106549977Y-93177500D01*
X106518454Y-93239855D01*
X106499158Y-93256575D01*
X106313597Y-93386505D01*
X106146505Y-93553597D01*
X106010965Y-93747169D01*
X106010964Y-93747171D01*
X105911098Y-93961335D01*
X105911094Y-93961344D01*
X105849938Y-94189586D01*
X105849936Y-94189596D01*
X105829341Y-94424999D01*
X105829341Y-94425000D01*
X105849936Y-94660403D01*
X105849938Y-94660413D01*
X105911094Y-94888655D01*
X105911096Y-94888659D01*
X105911097Y-94888663D01*
X105975326Y-95026402D01*
X106010965Y-95102830D01*
X106010967Y-95102834D01*
X106094644Y-95222336D01*
X106146501Y-95296396D01*
X106146506Y-95296402D01*
X106268430Y-95418326D01*
X106301915Y-95479649D01*
X106296931Y-95549341D01*
X106255059Y-95605274D01*
X106224083Y-95622189D01*
X106092669Y-95671203D01*
X106092664Y-95671206D01*
X105977455Y-95757452D01*
X105977452Y-95757455D01*
X105891206Y-95872664D01*
X105891202Y-95872671D01*
X105840908Y-96007517D01*
X105834501Y-96067116D01*
X105834501Y-96067123D01*
X105834500Y-96067135D01*
X105834500Y-96330795D01*
X105814815Y-96397834D01*
X105762011Y-96443589D01*
X105692853Y-96453533D01*
X105637615Y-96431113D01*
X105492734Y-96325851D01*
X105492729Y-96325848D01*
X105319807Y-96248857D01*
X105319802Y-96248855D01*
X105174001Y-96217865D01*
X105134646Y-96209500D01*
X104945354Y-96209500D01*
X104912897Y-96216398D01*
X104760197Y-96248855D01*
X104760192Y-96248857D01*
X104587270Y-96325848D01*
X104587265Y-96325851D01*
X104434129Y-96437111D01*
X104307466Y-96577785D01*
X104212821Y-96741715D01*
X104212818Y-96741722D01*
X104154327Y-96921740D01*
X104154326Y-96921744D01*
X104134540Y-97110000D01*
X81653568Y-97110000D01*
X81756078Y-97035522D01*
X81911632Y-96872825D01*
X82035635Y-96684968D01*
X82081448Y-96577785D01*
X82124100Y-96477995D01*
X82124099Y-96477995D01*
X82124103Y-96477988D01*
X82174191Y-96258537D01*
X82184290Y-96033670D01*
X82154075Y-95810613D01*
X82084517Y-95596536D01*
X81977852Y-95398319D01*
X81837508Y-95222334D01*
X81667996Y-95074235D01*
X81474764Y-94958785D01*
X81356775Y-94914503D01*
X81264023Y-94879692D01*
X81042550Y-94839500D01*
X81042547Y-94839500D01*
X80873845Y-94839500D01*
X80835399Y-94842960D01*
X80705813Y-94854622D01*
X80705807Y-94854623D01*
X80488839Y-94914503D01*
X80488826Y-94914508D01*
X80286033Y-95012167D01*
X80286025Y-95012171D01*
X80103927Y-95144473D01*
X80103925Y-95144474D01*
X79948366Y-95307176D01*
X79824363Y-95495033D01*
X79735899Y-95702004D01*
X79735895Y-95702017D01*
X79685810Y-95921457D01*
X79685808Y-95921468D01*
X79675710Y-96146325D01*
X79675710Y-96146330D01*
X74689263Y-96146330D01*
X74629035Y-96017171D01*
X74622276Y-96007517D01*
X74493494Y-95823597D01*
X74326402Y-95656506D01*
X74326396Y-95656501D01*
X74140842Y-95526575D01*
X74097217Y-95471998D01*
X74090023Y-95402500D01*
X74121546Y-95340145D01*
X74140842Y-95323425D01*
X74179445Y-95296395D01*
X74326401Y-95193495D01*
X74493495Y-95026401D01*
X74629035Y-94832830D01*
X74644344Y-94800000D01*
X84834540Y-94800000D01*
X84854326Y-94988256D01*
X84854327Y-94988259D01*
X84912818Y-95168277D01*
X84912821Y-95168284D01*
X85007467Y-95332216D01*
X85133328Y-95471998D01*
X85134129Y-95472888D01*
X85287265Y-95584148D01*
X85287270Y-95584151D01*
X85460192Y-95661142D01*
X85460197Y-95661144D01*
X85645354Y-95700500D01*
X85645355Y-95700500D01*
X85834644Y-95700500D01*
X85834646Y-95700500D01*
X86019803Y-95661144D01*
X86192730Y-95584151D01*
X86345871Y-95472888D01*
X86472533Y-95332216D01*
X86567179Y-95168284D01*
X86625674Y-94988256D01*
X86645460Y-94800000D01*
X94094540Y-94800000D01*
X94114326Y-94988256D01*
X94114327Y-94988259D01*
X94172818Y-95168277D01*
X94172821Y-95168284D01*
X94267467Y-95332216D01*
X94393328Y-95471998D01*
X94394129Y-95472888D01*
X94547265Y-95584148D01*
X94547270Y-95584151D01*
X94720192Y-95661142D01*
X94720197Y-95661144D01*
X94905354Y-95700500D01*
X94905355Y-95700500D01*
X95094644Y-95700500D01*
X95094646Y-95700500D01*
X95279803Y-95661144D01*
X95452730Y-95584151D01*
X95605871Y-95472888D01*
X95732533Y-95332216D01*
X95827179Y-95168284D01*
X95885674Y-94988256D01*
X95905460Y-94800000D01*
X95885674Y-94611744D01*
X95827179Y-94431716D01*
X95732533Y-94267784D01*
X95605871Y-94127112D01*
X95605870Y-94127111D01*
X95452734Y-94015851D01*
X95452729Y-94015848D01*
X95279807Y-93938857D01*
X95279802Y-93938855D01*
X95134000Y-93907865D01*
X95094646Y-93899500D01*
X94905354Y-93899500D01*
X94872897Y-93906398D01*
X94720197Y-93938855D01*
X94720192Y-93938857D01*
X94547270Y-94015848D01*
X94547265Y-94015851D01*
X94394129Y-94127111D01*
X94267466Y-94267785D01*
X94172821Y-94431715D01*
X94172818Y-94431722D01*
X94114327Y-94611740D01*
X94114326Y-94611744D01*
X94094540Y-94800000D01*
X86645460Y-94800000D01*
X86625674Y-94611744D01*
X86567179Y-94431716D01*
X86472533Y-94267784D01*
X86345871Y-94127112D01*
X86345870Y-94127111D01*
X86192734Y-94015851D01*
X86192729Y-94015848D01*
X86019807Y-93938857D01*
X86019802Y-93938855D01*
X85874001Y-93907865D01*
X85834646Y-93899500D01*
X85645354Y-93899500D01*
X85612897Y-93906398D01*
X85460197Y-93938855D01*
X85460192Y-93938857D01*
X85287270Y-94015848D01*
X85287265Y-94015851D01*
X85134129Y-94127111D01*
X85007466Y-94267785D01*
X84912821Y-94431715D01*
X84912818Y-94431722D01*
X84854327Y-94611740D01*
X84854326Y-94611744D01*
X84834540Y-94800000D01*
X74644344Y-94800000D01*
X74728903Y-94618663D01*
X74790063Y-94390408D01*
X74810659Y-94155000D01*
X74790063Y-93919592D01*
X74728903Y-93691337D01*
X74629035Y-93477171D01*
X74565551Y-93386505D01*
X74493494Y-93283597D01*
X74326402Y-93116506D01*
X74326396Y-93116501D01*
X74140842Y-92986575D01*
X74097217Y-92931998D01*
X74090023Y-92862500D01*
X74121546Y-92800145D01*
X74140842Y-92783425D01*
X74179445Y-92756395D01*
X74326401Y-92653495D01*
X74493495Y-92486401D01*
X74629035Y-92292830D01*
X74728903Y-92078663D01*
X74790063Y-91850408D01*
X74810659Y-91615000D01*
X74790063Y-91379592D01*
X74728903Y-91151337D01*
X74629035Y-90937171D01*
X74565551Y-90846505D01*
X74493494Y-90743597D01*
X74326402Y-90576506D01*
X74326396Y-90576501D01*
X74140842Y-90446575D01*
X74097217Y-90391998D01*
X74090023Y-90322500D01*
X74121546Y-90260145D01*
X74140842Y-90243425D01*
X74179445Y-90216395D01*
X74326401Y-90113495D01*
X74493495Y-89946401D01*
X74629035Y-89752830D01*
X74728903Y-89538663D01*
X74790063Y-89310408D01*
X74810659Y-89075000D01*
X74790063Y-88839592D01*
X74728903Y-88611337D01*
X74629035Y-88397171D01*
X74565551Y-88306505D01*
X74493494Y-88203597D01*
X74326402Y-88036506D01*
X74326396Y-88036501D01*
X74140842Y-87906575D01*
X74097217Y-87851998D01*
X74090023Y-87782500D01*
X74121546Y-87720145D01*
X74140842Y-87703425D01*
X74179445Y-87676395D01*
X74326401Y-87573495D01*
X74493495Y-87406401D01*
X74629035Y-87212830D01*
X74728903Y-86998663D01*
X74790063Y-86770408D01*
X74810659Y-86535000D01*
X74790063Y-86299592D01*
X74728903Y-86071337D01*
X74629035Y-85857171D01*
X74565551Y-85766505D01*
X74493494Y-85663597D01*
X74326402Y-85496506D01*
X74326396Y-85496501D01*
X74140842Y-85366575D01*
X74097217Y-85311998D01*
X74090023Y-85242500D01*
X74121546Y-85180145D01*
X74140842Y-85163425D01*
X74179445Y-85136395D01*
X74326401Y-85033495D01*
X74493495Y-84866401D01*
X74629035Y-84672830D01*
X74728903Y-84458663D01*
X74790063Y-84230408D01*
X74807597Y-84030000D01*
X82054540Y-84030000D01*
X82074326Y-84218256D01*
X82074327Y-84218259D01*
X82132818Y-84398277D01*
X82132821Y-84398284D01*
X82227467Y-84562216D01*
X82327065Y-84672830D01*
X82354129Y-84702888D01*
X82507265Y-84814148D01*
X82507270Y-84814151D01*
X82680192Y-84891142D01*
X82680197Y-84891144D01*
X82865354Y-84930500D01*
X82865355Y-84930500D01*
X83054644Y-84930500D01*
X83054646Y-84930500D01*
X83239803Y-84891144D01*
X83412730Y-84814151D01*
X83528556Y-84729999D01*
X85024355Y-84729999D01*
X85044859Y-84898869D01*
X85044860Y-84898874D01*
X85105182Y-85057931D01*
X85159343Y-85136395D01*
X85201817Y-85197929D01*
X85277525Y-85265000D01*
X85329150Y-85310736D01*
X85479773Y-85389789D01*
X85479775Y-85389790D01*
X85644944Y-85430500D01*
X85815056Y-85430500D01*
X85980225Y-85389790D01*
X86128444Y-85311998D01*
X86130849Y-85310736D01*
X86130850Y-85310734D01*
X86130852Y-85310734D01*
X86258183Y-85197929D01*
X86354818Y-85057930D01*
X86415140Y-84898872D01*
X86435645Y-84730000D01*
X86415140Y-84561128D01*
X86354818Y-84402070D01*
X86258183Y-84262071D01*
X86130852Y-84149266D01*
X86130849Y-84149263D01*
X85980226Y-84070210D01*
X85815056Y-84029500D01*
X85644944Y-84029500D01*
X85479773Y-84070210D01*
X85329150Y-84149263D01*
X85201816Y-84262072D01*
X85105182Y-84402068D01*
X85044860Y-84561125D01*
X85044859Y-84561130D01*
X85024355Y-84729999D01*
X83528556Y-84729999D01*
X83565871Y-84702888D01*
X83692533Y-84562216D01*
X83787179Y-84398284D01*
X83845674Y-84218256D01*
X83865460Y-84030000D01*
X83845674Y-83841744D01*
X83787179Y-83661716D01*
X83692533Y-83497784D01*
X83565871Y-83357112D01*
X83510897Y-83317171D01*
X83412734Y-83245851D01*
X83412729Y-83245848D01*
X83239807Y-83168857D01*
X83239802Y-83168855D01*
X83094001Y-83137865D01*
X83054646Y-83129500D01*
X82865354Y-83129500D01*
X82832897Y-83136398D01*
X82680197Y-83168855D01*
X82680192Y-83168857D01*
X82507270Y-83245848D01*
X82507265Y-83245851D01*
X82354129Y-83357111D01*
X82227466Y-83497785D01*
X82132821Y-83661715D01*
X82132818Y-83661722D01*
X82074327Y-83841740D01*
X82074326Y-83841744D01*
X82058219Y-83994999D01*
X82054584Y-84029586D01*
X82054540Y-84030000D01*
X74807597Y-84030000D01*
X74810659Y-83995000D01*
X74790063Y-83759592D01*
X74728903Y-83531337D01*
X74629035Y-83317171D01*
X74619744Y-83303901D01*
X74493494Y-83123597D01*
X74326402Y-82956506D01*
X74326396Y-82956501D01*
X74140842Y-82826575D01*
X74097217Y-82771998D01*
X74090023Y-82702500D01*
X74116564Y-82650000D01*
X76104540Y-82650000D01*
X76124326Y-82838256D01*
X76124327Y-82838259D01*
X76182818Y-83018277D01*
X76182821Y-83018284D01*
X76277467Y-83182216D01*
X76387033Y-83303901D01*
X76404129Y-83322888D01*
X76557265Y-83434148D01*
X76557270Y-83434151D01*
X76730192Y-83511142D01*
X76730197Y-83511144D01*
X76915354Y-83550500D01*
X76915355Y-83550500D01*
X77104644Y-83550500D01*
X77104646Y-83550500D01*
X77289803Y-83511144D01*
X77462730Y-83434151D01*
X77615871Y-83322888D01*
X77724606Y-83202125D01*
X77784090Y-83165478D01*
X77853947Y-83166808D01*
X77887875Y-83183522D01*
X77917170Y-83204035D01*
X78131337Y-83303903D01*
X78359592Y-83365063D01*
X78547918Y-83381539D01*
X78594999Y-83385659D01*
X78595000Y-83385659D01*
X78595001Y-83385659D01*
X78634234Y-83382226D01*
X78830408Y-83365063D01*
X79058663Y-83303903D01*
X79272830Y-83204035D01*
X79466401Y-83068495D01*
X79633495Y-82901401D01*
X79769035Y-82707830D01*
X79868903Y-82493663D01*
X79930063Y-82265408D01*
X79950659Y-82030000D01*
X79930063Y-81794592D01*
X79868903Y-81566337D01*
X79769035Y-81352171D01*
X79705431Y-81261335D01*
X79633496Y-81158600D01*
X79633495Y-81158599D01*
X79511567Y-81036671D01*
X79478084Y-80975351D01*
X79483068Y-80905659D01*
X79524939Y-80849725D01*
X79555915Y-80832810D01*
X79687331Y-80783796D01*
X79802546Y-80697546D01*
X79888796Y-80582331D01*
X79939091Y-80447483D01*
X79945500Y-80387873D01*
X79945500Y-80000000D01*
X87014540Y-80000000D01*
X87034326Y-80188256D01*
X87034327Y-80188259D01*
X87092818Y-80368277D01*
X87092821Y-80368284D01*
X87187467Y-80532216D01*
X87233731Y-80583597D01*
X87314129Y-80672888D01*
X87467265Y-80784148D01*
X87467270Y-80784151D01*
X87640192Y-80861142D01*
X87640197Y-80861144D01*
X87825354Y-80900500D01*
X87825355Y-80900500D01*
X88014644Y-80900500D01*
X88014646Y-80900500D01*
X88199803Y-80861144D01*
X88372730Y-80784151D01*
X88525871Y-80672888D01*
X88652533Y-80532216D01*
X88747179Y-80368284D01*
X88805674Y-80188256D01*
X88811797Y-80130000D01*
X90064540Y-80130000D01*
X90084326Y-80318256D01*
X90084327Y-80318259D01*
X90142818Y-80498277D01*
X90142821Y-80498284D01*
X90237467Y-80662216D01*
X90346939Y-80783797D01*
X90364129Y-80802888D01*
X90517265Y-80914148D01*
X90517270Y-80914151D01*
X90690192Y-80991142D01*
X90690197Y-80991144D01*
X90875354Y-81030500D01*
X90875355Y-81030500D01*
X91064644Y-81030500D01*
X91064646Y-81030500D01*
X91249803Y-80991144D01*
X91422730Y-80914151D01*
X91575871Y-80802888D01*
X91702533Y-80662216D01*
X91797179Y-80498284D01*
X91855674Y-80318256D01*
X91875460Y-80130000D01*
X91855674Y-79941744D01*
X91797179Y-79761716D01*
X91702533Y-79597784D01*
X91575871Y-79457112D01*
X91575870Y-79457111D01*
X91422734Y-79345851D01*
X91422729Y-79345848D01*
X91249807Y-79268857D01*
X91249802Y-79268855D01*
X91104000Y-79237865D01*
X91064646Y-79229500D01*
X90875354Y-79229500D01*
X90842897Y-79236398D01*
X90690197Y-79268855D01*
X90690192Y-79268857D01*
X90517270Y-79345848D01*
X90517265Y-79345851D01*
X90364129Y-79457111D01*
X90237466Y-79597785D01*
X90142821Y-79761715D01*
X90142818Y-79761722D01*
X90084327Y-79941740D01*
X90084326Y-79941744D01*
X90064540Y-80130000D01*
X88811797Y-80130000D01*
X88825460Y-80000000D01*
X88805674Y-79811744D01*
X88747179Y-79631716D01*
X88652533Y-79467784D01*
X88525871Y-79327112D01*
X88525870Y-79327111D01*
X88372734Y-79215851D01*
X88372729Y-79215848D01*
X88199807Y-79138857D01*
X88199802Y-79138855D01*
X88054001Y-79107865D01*
X88014646Y-79099500D01*
X87825354Y-79099500D01*
X87792897Y-79106398D01*
X87640197Y-79138855D01*
X87640192Y-79138857D01*
X87467270Y-79215848D01*
X87467265Y-79215851D01*
X87314129Y-79327111D01*
X87187466Y-79467785D01*
X87092821Y-79631715D01*
X87092818Y-79631722D01*
X87050581Y-79761716D01*
X87034326Y-79811744D01*
X87014540Y-80000000D01*
X79945500Y-80000000D01*
X79945499Y-78592128D01*
X79939091Y-78532517D01*
X79912733Y-78461848D01*
X79888797Y-78397671D01*
X79888793Y-78397664D01*
X79802547Y-78282455D01*
X79802544Y-78282452D01*
X79687335Y-78196206D01*
X79687328Y-78196202D01*
X79552482Y-78145908D01*
X79552483Y-78145908D01*
X79492883Y-78139501D01*
X79492881Y-78139500D01*
X79492873Y-78139500D01*
X79492864Y-78139500D01*
X77697129Y-78139500D01*
X77697123Y-78139501D01*
X77637516Y-78145908D01*
X77502671Y-78196202D01*
X77502664Y-78196206D01*
X77387455Y-78282452D01*
X77387452Y-78282455D01*
X77301206Y-78397664D01*
X77301202Y-78397671D01*
X77250908Y-78532517D01*
X77245750Y-78580500D01*
X77244501Y-78592123D01*
X77244500Y-78592135D01*
X77244500Y-80387870D01*
X77244501Y-80387876D01*
X77250908Y-80447483D01*
X77301202Y-80582328D01*
X77301206Y-80582335D01*
X77387452Y-80697544D01*
X77387455Y-80697547D01*
X77502664Y-80783793D01*
X77502671Y-80783797D01*
X77634081Y-80832810D01*
X77690015Y-80874681D01*
X77714432Y-80940145D01*
X77699580Y-81008418D01*
X77678430Y-81036673D01*
X77556503Y-81158600D01*
X77420965Y-81352169D01*
X77420964Y-81352171D01*
X77321098Y-81566335D01*
X77321095Y-81566342D01*
X77293455Y-81669496D01*
X77257089Y-81729156D01*
X77194242Y-81759685D01*
X77147901Y-81758693D01*
X77104648Y-81749500D01*
X77104646Y-81749500D01*
X76915354Y-81749500D01*
X76882897Y-81756398D01*
X76730197Y-81788855D01*
X76730192Y-81788857D01*
X76557270Y-81865848D01*
X76557265Y-81865851D01*
X76404129Y-81977111D01*
X76277466Y-82117785D01*
X76182821Y-82281715D01*
X76182818Y-82281722D01*
X76143468Y-82402830D01*
X76124326Y-82461744D01*
X76104540Y-82650000D01*
X74116564Y-82650000D01*
X74121546Y-82640145D01*
X74140842Y-82623425D01*
X74179445Y-82596395D01*
X74326401Y-82493495D01*
X74493495Y-82326401D01*
X74629035Y-82132830D01*
X74728903Y-81918663D01*
X74790063Y-81690408D01*
X74810659Y-81455000D01*
X74790063Y-81219592D01*
X74728903Y-80991337D01*
X74629035Y-80777171D01*
X74573282Y-80697546D01*
X74493494Y-80583597D01*
X74326402Y-80416506D01*
X74326396Y-80416501D01*
X74140842Y-80286575D01*
X74097217Y-80231998D01*
X74090023Y-80162500D01*
X74121546Y-80100145D01*
X74140842Y-80083425D01*
X74259985Y-80000000D01*
X74326401Y-79953495D01*
X74493495Y-79786401D01*
X74629035Y-79592830D01*
X74728903Y-79378663D01*
X74790063Y-79150408D01*
X74810659Y-78915000D01*
X74790063Y-78679592D01*
X74743626Y-78506285D01*
X74728905Y-78451344D01*
X74728904Y-78451343D01*
X74728903Y-78451337D01*
X74629035Y-78237171D01*
X74611562Y-78212216D01*
X74493494Y-78043597D01*
X74326402Y-77876506D01*
X74326396Y-77876501D01*
X74140842Y-77746575D01*
X74097217Y-77691998D01*
X74095975Y-77680000D01*
X85174540Y-77680000D01*
X85194326Y-77868256D01*
X85194327Y-77868259D01*
X85252818Y-78048277D01*
X85252821Y-78048284D01*
X85347467Y-78212216D01*
X85438751Y-78313597D01*
X85474129Y-78352888D01*
X85627265Y-78464148D01*
X85627270Y-78464151D01*
X85800192Y-78541142D01*
X85800197Y-78541144D01*
X85985354Y-78580500D01*
X85985355Y-78580500D01*
X86174644Y-78580500D01*
X86174646Y-78580500D01*
X86359803Y-78541144D01*
X86532730Y-78464151D01*
X86685871Y-78352888D01*
X86812533Y-78212216D01*
X86907179Y-78048284D01*
X86965674Y-77868256D01*
X86985460Y-77680000D01*
X86965674Y-77491744D01*
X86907179Y-77311716D01*
X86812533Y-77147784D01*
X86685871Y-77007112D01*
X86685870Y-77007111D01*
X86532734Y-76895851D01*
X86532729Y-76895848D01*
X86359807Y-76818857D01*
X86359802Y-76818855D01*
X86214000Y-76787865D01*
X86174646Y-76779500D01*
X85985354Y-76779500D01*
X85952897Y-76786398D01*
X85800197Y-76818855D01*
X85800192Y-76818857D01*
X85627270Y-76895848D01*
X85627265Y-76895851D01*
X85474129Y-77007111D01*
X85347466Y-77147785D01*
X85252821Y-77311715D01*
X85252818Y-77311722D01*
X85194327Y-77491740D01*
X85194326Y-77491744D01*
X85174540Y-77680000D01*
X74095975Y-77680000D01*
X74090023Y-77622500D01*
X74121546Y-77560145D01*
X74140842Y-77543425D01*
X74214650Y-77491744D01*
X74326401Y-77413495D01*
X74493495Y-77246401D01*
X74629035Y-77052830D01*
X74728903Y-76838663D01*
X74790063Y-76610408D01*
X74810659Y-76375000D01*
X74790063Y-76139592D01*
X74728903Y-75911337D01*
X74629035Y-75697171D01*
X74626536Y-75693601D01*
X74493494Y-75503597D01*
X74359896Y-75370000D01*
X79264355Y-75370000D01*
X79284859Y-75538869D01*
X79284860Y-75538874D01*
X79345182Y-75697931D01*
X79397413Y-75773599D01*
X79441817Y-75837929D01*
X79500283Y-75889725D01*
X79569150Y-75950736D01*
X79719773Y-76029789D01*
X79719775Y-76029790D01*
X79884944Y-76070500D01*
X80055056Y-76070500D01*
X80220225Y-76029790D01*
X80299692Y-75988081D01*
X80370849Y-75950736D01*
X80370850Y-75950734D01*
X80370852Y-75950734D01*
X80498183Y-75837929D01*
X80594818Y-75697930D01*
X80655140Y-75538872D01*
X80675645Y-75370000D01*
X80655140Y-75201128D01*
X80594818Y-75042070D01*
X80572015Y-75009035D01*
X80549490Y-74976401D01*
X80498183Y-74902071D01*
X80370852Y-74789266D01*
X80370849Y-74789263D01*
X80220226Y-74710210D01*
X80055056Y-74669500D01*
X79884944Y-74669500D01*
X79719773Y-74710210D01*
X79569150Y-74789263D01*
X79475709Y-74872045D01*
X79449562Y-74895210D01*
X79441816Y-74902072D01*
X79345182Y-75042068D01*
X79284860Y-75201125D01*
X79284859Y-75201130D01*
X79264355Y-75370000D01*
X74359896Y-75370000D01*
X74326402Y-75336506D01*
X74326396Y-75336501D01*
X74140842Y-75206575D01*
X74097217Y-75151998D01*
X74090023Y-75082500D01*
X74121546Y-75020145D01*
X74140842Y-75003425D01*
X74182485Y-74974266D01*
X74326401Y-74873495D01*
X74493495Y-74706401D01*
X74629035Y-74512830D01*
X74728903Y-74298663D01*
X74790063Y-74070408D01*
X74797269Y-73988050D01*
X85984277Y-73988050D01*
X86004781Y-74156919D01*
X86004782Y-74156924D01*
X86065104Y-74315981D01*
X86086441Y-74346892D01*
X86161739Y-74455979D01*
X86232294Y-74518485D01*
X86289072Y-74568786D01*
X86415402Y-74635089D01*
X86439697Y-74647840D01*
X86604866Y-74688550D01*
X86774978Y-74688550D01*
X86940147Y-74647840D01*
X87019614Y-74606131D01*
X87090771Y-74568786D01*
X87090772Y-74568784D01*
X87090774Y-74568784D01*
X87218105Y-74455979D01*
X87314740Y-74315980D01*
X87375062Y-74156922D01*
X87395392Y-73989489D01*
X87423014Y-73925312D01*
X87480948Y-73886256D01*
X87548162Y-73884040D01*
X87604643Y-73897961D01*
X87665024Y-73933117D01*
X87696812Y-73995337D01*
X87698064Y-74003409D01*
X87703459Y-74047834D01*
X87763781Y-74206894D01*
X87826074Y-74297140D01*
X87860416Y-74346892D01*
X87987747Y-74459697D01*
X88099761Y-74518487D01*
X88149971Y-74567070D01*
X88165946Y-74635089D01*
X88142611Y-74700947D01*
X88087375Y-74743734D01*
X88051402Y-74750530D01*
X88051505Y-74751378D01*
X88044061Y-74752281D01*
X87878889Y-74792992D01*
X87728266Y-74872045D01*
X87600932Y-74984854D01*
X87504298Y-75124850D01*
X87443976Y-75283907D01*
X87443975Y-75283912D01*
X87423471Y-75452782D01*
X87443975Y-75621651D01*
X87443976Y-75621656D01*
X87504298Y-75780713D01*
X87566591Y-75870959D01*
X87600933Y-75920711D01*
X87653376Y-75967171D01*
X87728266Y-76033518D01*
X87878889Y-76112571D01*
X87878891Y-76112572D01*
X88044060Y-76153282D01*
X88214172Y-76153282D01*
X88348250Y-76120235D01*
X88418049Y-76123304D01*
X88475111Y-76163624D01*
X88501317Y-76228393D01*
X88501018Y-76255578D01*
X88483367Y-76400953D01*
X88503871Y-76569823D01*
X88503872Y-76569828D01*
X88564194Y-76728885D01*
X88599132Y-76779500D01*
X88660829Y-76868883D01*
X88762593Y-76959038D01*
X88788162Y-76981690D01*
X88872223Y-77025809D01*
X88922436Y-77074394D01*
X88938410Y-77142413D01*
X88915074Y-77208271D01*
X88872224Y-77245401D01*
X88788649Y-77289265D01*
X88788647Y-77289266D01*
X88788648Y-77289266D01*
X88708648Y-77360140D01*
X88661316Y-77402072D01*
X88564682Y-77542068D01*
X88504360Y-77701125D01*
X88504359Y-77701130D01*
X88484067Y-77868256D01*
X88483855Y-77870000D01*
X88486587Y-77892500D01*
X88504359Y-78038869D01*
X88504360Y-78038874D01*
X88564682Y-78197931D01*
X88591767Y-78237169D01*
X88661317Y-78337929D01*
X88788648Y-78450734D01*
X88788650Y-78450735D01*
X88921828Y-78520633D01*
X88972040Y-78569217D01*
X88987298Y-78615482D01*
X89005822Y-78768038D01*
X89005823Y-78768044D01*
X89066145Y-78927101D01*
X89088854Y-78960000D01*
X89162780Y-79067099D01*
X89268468Y-79160730D01*
X89290113Y-79179906D01*
X89384607Y-79229500D01*
X89440738Y-79258960D01*
X89605907Y-79299670D01*
X89776019Y-79299670D01*
X89941188Y-79258960D01*
X90023330Y-79215848D01*
X90091812Y-79179906D01*
X90091813Y-79179904D01*
X90091815Y-79179904D01*
X90216793Y-79069183D01*
X90280025Y-79039463D01*
X90299019Y-79038000D01*
X90465056Y-79038000D01*
X90630225Y-78997290D01*
X90721105Y-78949592D01*
X90780849Y-78918236D01*
X90780850Y-78918234D01*
X90780852Y-78918234D01*
X90908183Y-78805429D01*
X90940052Y-78759258D01*
X90994335Y-78715269D01*
X91063784Y-78707609D01*
X91124329Y-78736884D01*
X91176647Y-78783233D01*
X91176649Y-78783235D01*
X91327273Y-78862289D01*
X91327275Y-78862290D01*
X91492444Y-78903000D01*
X91662556Y-78903000D01*
X91827725Y-78862290D01*
X91907192Y-78820581D01*
X91978349Y-78783236D01*
X91978350Y-78783234D01*
X91978352Y-78783234D01*
X92027153Y-78740000D01*
X94874540Y-78740000D01*
X94894326Y-78928256D01*
X94894327Y-78928259D01*
X94952818Y-79108277D01*
X94952821Y-79108284D01*
X95047467Y-79272216D01*
X95174128Y-79412887D01*
X95174129Y-79412888D01*
X95327265Y-79524148D01*
X95327270Y-79524151D01*
X95500192Y-79601142D01*
X95500197Y-79601144D01*
X95685354Y-79640500D01*
X95685355Y-79640500D01*
X95874644Y-79640500D01*
X95874646Y-79640500D01*
X96059803Y-79601144D01*
X96232730Y-79524151D01*
X96385871Y-79412888D01*
X96512533Y-79272216D01*
X96585767Y-79145369D01*
X96636331Y-79097157D01*
X96704938Y-79083933D01*
X96769803Y-79109901D01*
X96810332Y-79166814D01*
X96811083Y-79169053D01*
X96862819Y-79328280D01*
X96862821Y-79328284D01*
X96957467Y-79492216D01*
X97083073Y-79631715D01*
X97084129Y-79632888D01*
X97237265Y-79744148D01*
X97237270Y-79744151D01*
X97410192Y-79821142D01*
X97410197Y-79821144D01*
X97595354Y-79860500D01*
X97595355Y-79860500D01*
X97784644Y-79860500D01*
X97784646Y-79860500D01*
X97969803Y-79821144D01*
X98142730Y-79744151D01*
X98295871Y-79632888D01*
X98422533Y-79492216D01*
X98517179Y-79328284D01*
X98575674Y-79148256D01*
X98595460Y-78960000D01*
X98575674Y-78771744D01*
X98569476Y-78752671D01*
X98567482Y-78682831D01*
X98603562Y-78622998D01*
X98629779Y-78604559D01*
X98686758Y-78574655D01*
X98814089Y-78461850D01*
X98910724Y-78321851D01*
X98971046Y-78162793D01*
X98991551Y-77993921D01*
X98971046Y-77825049D01*
X98958180Y-77791125D01*
X98939532Y-77741952D01*
X98910724Y-77665991D01*
X98905811Y-77658874D01*
X98863794Y-77598002D01*
X98814089Y-77525992D01*
X98686758Y-77413187D01*
X98686756Y-77413186D01*
X98681144Y-77408214D01*
X98682382Y-77406815D01*
X98644557Y-77360140D01*
X98635891Y-77327317D01*
X98635140Y-77321128D01*
X98623056Y-77289266D01*
X98612147Y-77260500D01*
X98574818Y-77162070D01*
X98478183Y-77022071D01*
X98350852Y-76909266D01*
X98350849Y-76909263D01*
X98200226Y-76830210D01*
X98035056Y-76789500D01*
X97864944Y-76789500D01*
X97699773Y-76830210D01*
X97549150Y-76909263D01*
X97421816Y-77022072D01*
X97325182Y-77162068D01*
X97264860Y-77321125D01*
X97264859Y-77321130D01*
X97244355Y-77489999D01*
X97264859Y-77658869D01*
X97264860Y-77658874D01*
X97325182Y-77817931D01*
X97408624Y-77938816D01*
X97430507Y-78005170D01*
X97413042Y-78072822D01*
X97361774Y-78120292D01*
X97357011Y-78122535D01*
X97237267Y-78175850D01*
X97237265Y-78175851D01*
X97084129Y-78287111D01*
X96957465Y-78427785D01*
X96884234Y-78554627D01*
X96833667Y-78602843D01*
X96765060Y-78616066D01*
X96700195Y-78590098D01*
X96659667Y-78533184D01*
X96658916Y-78530945D01*
X96607181Y-78371722D01*
X96607180Y-78371721D01*
X96607179Y-78371716D01*
X96512533Y-78207784D01*
X96385871Y-78067112D01*
X96385870Y-78067111D01*
X96232734Y-77955851D01*
X96232729Y-77955848D01*
X96059807Y-77878857D01*
X96059802Y-77878855D01*
X95914000Y-77847865D01*
X95874646Y-77839500D01*
X95685354Y-77839500D01*
X95652897Y-77846398D01*
X95500197Y-77878855D01*
X95500192Y-77878857D01*
X95327270Y-77955848D01*
X95327265Y-77955851D01*
X95174129Y-78067111D01*
X95047466Y-78207785D01*
X94952821Y-78371715D01*
X94952818Y-78371722D01*
X94897770Y-78541144D01*
X94894326Y-78551744D01*
X94874540Y-78740000D01*
X92027153Y-78740000D01*
X92105683Y-78670429D01*
X92202318Y-78530430D01*
X92262640Y-78371372D01*
X92283145Y-78202500D01*
X92262640Y-78033628D01*
X92251847Y-78005170D01*
X92234717Y-77960000D01*
X93284355Y-77960000D01*
X93304859Y-78128869D01*
X93304860Y-78128874D01*
X93365182Y-78287931D01*
X93422776Y-78371369D01*
X93461817Y-78427929D01*
X93551261Y-78507169D01*
X93589150Y-78540736D01*
X93739773Y-78619789D01*
X93739775Y-78619790D01*
X93904944Y-78660500D01*
X94075056Y-78660500D01*
X94240225Y-78619790D01*
X94336583Y-78569217D01*
X94390849Y-78540736D01*
X94390850Y-78540734D01*
X94390852Y-78540734D01*
X94518183Y-78427929D01*
X94614818Y-78287930D01*
X94675140Y-78128872D01*
X94695645Y-77960000D01*
X94675140Y-77791128D01*
X94675139Y-77791125D01*
X94675139Y-77791124D01*
X94661453Y-77755038D01*
X94656086Y-77685375D01*
X94675344Y-77640629D01*
X94704818Y-77597930D01*
X94765140Y-77438872D01*
X94785645Y-77270000D01*
X94765140Y-77101128D01*
X94704818Y-76942070D01*
X94702352Y-76938498D01*
X94662259Y-76880413D01*
X94608183Y-76802071D01*
X94480852Y-76689266D01*
X94480849Y-76689263D01*
X94330226Y-76610210D01*
X94165056Y-76569500D01*
X93994944Y-76569500D01*
X93829773Y-76610210D01*
X93679150Y-76689263D01*
X93551816Y-76802072D01*
X93455182Y-76942068D01*
X93394860Y-77101125D01*
X93394859Y-77101130D01*
X93374355Y-77269999D01*
X93394859Y-77438869D01*
X93394861Y-77438877D01*
X93408546Y-77474961D01*
X93413913Y-77544624D01*
X93394655Y-77589370D01*
X93365182Y-77632069D01*
X93304860Y-77791125D01*
X93304859Y-77791130D01*
X93284355Y-77960000D01*
X92234717Y-77960000D01*
X92234717Y-77959999D01*
X92202318Y-77874570D01*
X92198867Y-77869571D01*
X92160112Y-77813425D01*
X92105683Y-77734571D01*
X92004578Y-77645000D01*
X91978349Y-77621763D01*
X91827726Y-77542710D01*
X91662556Y-77502000D01*
X91492444Y-77502000D01*
X91327273Y-77542710D01*
X91176650Y-77621763D01*
X91049316Y-77734572D01*
X91017445Y-77780743D01*
X90963161Y-77824732D01*
X90893713Y-77832389D01*
X90833171Y-77803116D01*
X90780852Y-77756766D01*
X90780849Y-77756763D01*
X90630226Y-77677710D01*
X90465056Y-77637000D01*
X90294944Y-77637000D01*
X90129774Y-77677709D01*
X90033520Y-77728228D01*
X89965012Y-77741952D01*
X89899959Y-77716460D01*
X89859953Y-77662402D01*
X89858614Y-77658872D01*
X89814318Y-77542070D01*
X89809998Y-77535812D01*
X89767996Y-77474961D01*
X89717683Y-77402071D01*
X89590352Y-77289266D01*
X89585485Y-77286711D01*
X89506287Y-77245144D01*
X89456075Y-77196559D01*
X89440101Y-77128540D01*
X89463437Y-77062682D01*
X89506286Y-77025553D01*
X89589864Y-76981688D01*
X89615432Y-76959036D01*
X89678662Y-76929316D01*
X89747925Y-76938498D01*
X89799707Y-76981411D01*
X89831815Y-77027927D01*
X89959150Y-77140736D01*
X90091522Y-77210210D01*
X90109775Y-77219790D01*
X90274944Y-77260500D01*
X90445056Y-77260500D01*
X90610225Y-77219790D01*
X90747418Y-77147785D01*
X90760849Y-77140736D01*
X90760850Y-77140734D01*
X90760852Y-77140734D01*
X90888183Y-77027929D01*
X90984818Y-76887930D01*
X91045140Y-76728872D01*
X91065645Y-76560000D01*
X91045140Y-76391128D01*
X90984818Y-76232070D01*
X90982448Y-76228637D01*
X90981489Y-76225727D01*
X90981331Y-76225426D01*
X90981381Y-76225399D01*
X90960567Y-76162283D01*
X90960500Y-76158199D01*
X90960500Y-75893792D01*
X90961031Y-75885690D01*
X90961395Y-75882930D01*
X90965682Y-75850364D01*
X90955575Y-75773597D01*
X90945514Y-75697171D01*
X90945044Y-75693602D01*
X90887633Y-75555000D01*
X97614355Y-75555000D01*
X97634859Y-75723869D01*
X97634860Y-75723874D01*
X97695182Y-75882931D01*
X97741984Y-75950734D01*
X97791817Y-76022929D01*
X97826079Y-76053282D01*
X97919150Y-76135736D01*
X98069773Y-76214789D01*
X98069775Y-76214790D01*
X98234944Y-76255500D01*
X98405056Y-76255500D01*
X98570225Y-76214790D01*
X98678049Y-76158199D01*
X98720849Y-76135736D01*
X98720850Y-76135734D01*
X98720852Y-76135734D01*
X98848183Y-76022929D01*
X98944818Y-75882930D01*
X99005140Y-75723872D01*
X99025645Y-75555000D01*
X99005140Y-75386128D01*
X98944818Y-75227070D01*
X98926911Y-75201128D01*
X98887130Y-75143495D01*
X98848183Y-75087071D01*
X98753316Y-75003026D01*
X98720849Y-74974263D01*
X98570226Y-74895210D01*
X98405056Y-74854500D01*
X98234944Y-74854500D01*
X98069773Y-74895210D01*
X97919150Y-74974263D01*
X97791816Y-75087072D01*
X97695182Y-75227068D01*
X97634860Y-75386125D01*
X97634859Y-75386130D01*
X97614355Y-75555000D01*
X90887633Y-75555000D01*
X90884536Y-75547523D01*
X90877898Y-75538872D01*
X90788282Y-75422082D01*
X90760005Y-75400384D01*
X90753904Y-75395033D01*
X89095479Y-73736608D01*
X89067218Y-73692897D01*
X89013417Y-73551033D01*
X89011047Y-73547600D01*
X89010088Y-73544690D01*
X89009930Y-73544389D01*
X89009980Y-73544362D01*
X88989166Y-73481246D01*
X88989099Y-73477162D01*
X88989099Y-72379999D01*
X94694355Y-72379999D01*
X94714859Y-72548869D01*
X94714860Y-72548874D01*
X94775182Y-72707931D01*
X94830452Y-72788002D01*
X94871817Y-72847929D01*
X94930860Y-72900236D01*
X94999150Y-72960736D01*
X95133265Y-73031125D01*
X95149775Y-73039790D01*
X95314944Y-73080500D01*
X95485056Y-73080500D01*
X95650225Y-73039790D01*
X95765499Y-72979289D01*
X95800849Y-72960736D01*
X95800850Y-72960734D01*
X95800852Y-72960734D01*
X95928183Y-72847929D01*
X96024818Y-72707930D01*
X96085140Y-72548872D01*
X96105645Y-72380000D01*
X96085140Y-72211128D01*
X96068177Y-72166401D01*
X96024817Y-72052068D01*
X95990476Y-72002318D01*
X95928183Y-71912071D01*
X95802141Y-71800408D01*
X95800849Y-71799263D01*
X95650226Y-71720210D01*
X95485056Y-71679500D01*
X95314944Y-71679500D01*
X95149773Y-71720210D01*
X94999150Y-71799263D01*
X94871816Y-71912072D01*
X94775182Y-72052068D01*
X94714860Y-72211125D01*
X94714859Y-72211130D01*
X94694355Y-72379999D01*
X88989099Y-72379999D01*
X88989099Y-71749289D01*
X89008784Y-71682250D01*
X89061588Y-71636495D01*
X89130746Y-71626551D01*
X89194302Y-71655576D01*
X89195189Y-71656353D01*
X89279148Y-71730734D01*
X89429775Y-71809790D01*
X89594944Y-71850500D01*
X89765056Y-71850500D01*
X89930225Y-71809790D01*
X90009692Y-71768081D01*
X90080849Y-71730736D01*
X90080850Y-71730734D01*
X90080852Y-71730734D01*
X90208183Y-71617929D01*
X90304818Y-71477930D01*
X90365140Y-71318872D01*
X90385645Y-71150000D01*
X90365140Y-70981128D01*
X90304818Y-70822070D01*
X90208183Y-70682071D01*
X90113316Y-70598026D01*
X90080849Y-70569263D01*
X89930226Y-70490210D01*
X89765056Y-70449500D01*
X89594944Y-70449500D01*
X89429773Y-70490210D01*
X89279150Y-70569263D01*
X89225076Y-70617169D01*
X89195324Y-70643526D01*
X89132093Y-70673247D01*
X89062829Y-70664063D01*
X89009526Y-70618891D01*
X88989106Y-70552072D01*
X88989099Y-70550710D01*
X88989099Y-70420000D01*
X96284355Y-70420000D01*
X96304859Y-70588869D01*
X96304860Y-70588874D01*
X96365182Y-70747931D01*
X96422753Y-70831335D01*
X96461817Y-70887929D01*
X96519967Y-70939445D01*
X96589150Y-71000736D01*
X96739773Y-71079789D01*
X96739775Y-71079790D01*
X96904944Y-71120500D01*
X97075056Y-71120500D01*
X97240225Y-71079790D01*
X97337810Y-71028573D01*
X97390849Y-71000736D01*
X97390850Y-71000734D01*
X97390852Y-71000734D01*
X97518183Y-70887929D01*
X97614818Y-70747930D01*
X97675140Y-70588872D01*
X97695645Y-70420000D01*
X97695645Y-70419999D01*
X101514355Y-70419999D01*
X101534859Y-70588869D01*
X101534860Y-70588874D01*
X101595182Y-70747931D01*
X101652753Y-70831335D01*
X101691817Y-70887929D01*
X101749967Y-70939445D01*
X101819150Y-71000736D01*
X101969773Y-71079789D01*
X101969775Y-71079790D01*
X102134944Y-71120500D01*
X102305056Y-71120500D01*
X102470225Y-71079790D01*
X102567810Y-71028573D01*
X102620849Y-71000736D01*
X102620850Y-71000734D01*
X102620852Y-71000734D01*
X102748183Y-70887929D01*
X102844818Y-70747930D01*
X102905140Y-70588872D01*
X102925645Y-70420000D01*
X102905140Y-70251128D01*
X102903954Y-70248002D01*
X102844817Y-70092068D01*
X102810476Y-70042318D01*
X102748183Y-69952071D01*
X102620852Y-69839266D01*
X102620849Y-69839263D01*
X102470226Y-69760210D01*
X102305056Y-69719500D01*
X102134944Y-69719500D01*
X101969773Y-69760210D01*
X101819150Y-69839263D01*
X101691816Y-69952072D01*
X101595182Y-70092068D01*
X101534860Y-70251125D01*
X101534859Y-70251130D01*
X101514355Y-70419999D01*
X97695645Y-70419999D01*
X97675140Y-70251128D01*
X97673954Y-70248002D01*
X97614817Y-70092068D01*
X97580476Y-70042318D01*
X97518183Y-69952071D01*
X97390852Y-69839266D01*
X97390849Y-69839263D01*
X97240226Y-69760210D01*
X97075056Y-69719500D01*
X96904944Y-69719500D01*
X96739773Y-69760210D01*
X96589150Y-69839263D01*
X96461816Y-69952072D01*
X96365182Y-70092068D01*
X96304860Y-70251125D01*
X96304859Y-70251130D01*
X96284355Y-70420000D01*
X88989099Y-70420000D01*
X88989099Y-69853514D01*
X89008784Y-69786475D01*
X89025414Y-69765837D01*
X89635250Y-69156000D01*
X89693252Y-69123287D01*
X89740353Y-69111679D01*
X89890980Y-69032623D01*
X90018311Y-68919818D01*
X90114946Y-68779819D01*
X90175268Y-68620761D01*
X90195773Y-68451889D01*
X90192863Y-68427927D01*
X90183058Y-68347171D01*
X90175268Y-68283017D01*
X90114946Y-68123959D01*
X90018311Y-67983960D01*
X89905037Y-67883608D01*
X89890977Y-67871152D01*
X89740354Y-67792099D01*
X89659688Y-67772217D01*
X89599307Y-67737061D01*
X89567519Y-67674841D01*
X89574415Y-67605313D01*
X89617806Y-67550550D01*
X89619414Y-67550000D01*
X94414355Y-67550000D01*
X94434859Y-67718869D01*
X94434860Y-67718874D01*
X94495182Y-67877931D01*
X94551831Y-67960000D01*
X94591817Y-68017929D01*
X94697505Y-68111560D01*
X94719150Y-68130736D01*
X94869773Y-68209789D01*
X94869775Y-68209790D01*
X95034944Y-68250500D01*
X95205056Y-68250500D01*
X95370225Y-68209790D01*
X95477291Y-68153597D01*
X95520849Y-68130736D01*
X95520850Y-68130734D01*
X95520852Y-68130734D01*
X95648183Y-68017929D01*
X95744818Y-67877930D01*
X95805140Y-67718872D01*
X95825645Y-67550000D01*
X95805140Y-67381128D01*
X95803923Y-67377920D01*
X95744817Y-67222068D01*
X95686739Y-67137929D01*
X95648183Y-67082071D01*
X95520852Y-66969266D01*
X95520849Y-66969263D01*
X95370226Y-66890210D01*
X95205056Y-66849500D01*
X95034944Y-66849500D01*
X94869773Y-66890210D01*
X94719150Y-66969263D01*
X94591816Y-67082072D01*
X94495182Y-67222068D01*
X94434860Y-67381125D01*
X94434859Y-67381130D01*
X94414355Y-67550000D01*
X89619414Y-67550000D01*
X89683916Y-67527940D01*
X89685460Y-67527881D01*
X89691171Y-67527702D01*
X89710413Y-67522110D01*
X89729456Y-67518167D01*
X89749336Y-67515657D01*
X89792666Y-67498500D01*
X89798190Y-67496610D01*
X89801940Y-67495520D01*
X89842934Y-67483611D01*
X89860173Y-67473415D01*
X89877647Y-67464855D01*
X89896271Y-67457481D01*
X89896271Y-67457480D01*
X89896276Y-67457479D01*
X89933993Y-67430075D01*
X89938849Y-67426885D01*
X89978964Y-67403163D01*
X89993133Y-67388992D01*
X90007923Y-67376361D01*
X90017935Y-67369087D01*
X90024126Y-67364591D01*
X90024126Y-67364590D01*
X90024131Y-67364587D01*
X90030416Y-67356988D01*
X90050469Y-67337658D01*
X90056182Y-67333275D01*
X90077883Y-67304992D01*
X90083211Y-67298915D01*
X90928273Y-66453853D01*
X90989594Y-66420370D01*
X90999754Y-66418599D01*
X91026762Y-66415044D01*
X91026766Y-66415041D01*
X91027946Y-66414727D01*
X91060045Y-66410500D01*
X91125056Y-66410500D01*
X91290225Y-66369790D01*
X91376976Y-66324259D01*
X91440849Y-66290736D01*
X91440850Y-66290734D01*
X91440852Y-66290734D01*
X91568183Y-66177929D01*
X91664818Y-66037930D01*
X91725140Y-65878872D01*
X91745645Y-65710000D01*
X91725140Y-65541128D01*
X91664818Y-65382070D01*
X91655056Y-65367928D01*
X91565671Y-65238432D01*
X91543788Y-65172078D01*
X91561253Y-65104426D01*
X91585492Y-65075178D01*
X91633183Y-65032929D01*
X91672556Y-64975886D01*
X91726837Y-64931898D01*
X91796286Y-64924238D01*
X91856832Y-64953513D01*
X91989147Y-65070733D01*
X91989149Y-65070735D01*
X92132047Y-65145734D01*
X92139775Y-65149790D01*
X92304944Y-65190500D01*
X92475056Y-65190500D01*
X92640225Y-65149790D01*
X92790852Y-65070734D01*
X92880953Y-64990911D01*
X92944183Y-64961191D01*
X93013447Y-64970374D01*
X93066750Y-65015546D01*
X93079120Y-65039757D01*
X93101182Y-65097930D01*
X93101182Y-65097931D01*
X93152363Y-65172078D01*
X93197817Y-65237929D01*
X93303505Y-65331560D01*
X93325150Y-65350736D01*
X93475773Y-65429789D01*
X93475775Y-65429790D01*
X93640944Y-65470500D01*
X93811056Y-65470500D01*
X93976225Y-65429790D01*
X94067151Y-65382068D01*
X94126849Y-65350736D01*
X94126850Y-65350734D01*
X94126852Y-65350734D01*
X94254183Y-65237929D01*
X94350818Y-65097930D01*
X94411140Y-64938872D01*
X94431645Y-64770000D01*
X94411140Y-64601128D01*
X94395113Y-64558869D01*
X94350817Y-64442068D01*
X94289222Y-64352834D01*
X94254183Y-64302071D01*
X94126852Y-64189266D01*
X94126849Y-64189263D01*
X93976226Y-64110210D01*
X93811056Y-64069500D01*
X93640944Y-64069500D01*
X93475773Y-64110210D01*
X93325150Y-64189264D01*
X93235048Y-64269087D01*
X93171814Y-64298808D01*
X93102551Y-64289624D01*
X93049248Y-64244452D01*
X93036879Y-64220241D01*
X93021774Y-64180413D01*
X93014818Y-64162070D01*
X92918183Y-64022071D01*
X92792141Y-63910408D01*
X92790849Y-63909263D01*
X92640226Y-63830210D01*
X92475056Y-63789500D01*
X92304944Y-63789500D01*
X92139773Y-63830210D01*
X91989150Y-63909263D01*
X91861815Y-64022072D01*
X91822443Y-64079112D01*
X91768160Y-64123102D01*
X91698711Y-64130761D01*
X91638167Y-64101486D01*
X91505852Y-63984266D01*
X91505850Y-63984264D01*
X91355226Y-63905210D01*
X91190056Y-63864500D01*
X91019944Y-63864500D01*
X90854773Y-63905210D01*
X90704150Y-63984263D01*
X90576816Y-64097072D01*
X90480182Y-64237068D01*
X90419860Y-64396125D01*
X90419859Y-64396130D01*
X90399355Y-64564999D01*
X90419859Y-64733869D01*
X90419860Y-64733874D01*
X90480182Y-64892931D01*
X90535811Y-64973522D01*
X90557694Y-65039876D01*
X90540229Y-65107528D01*
X90490527Y-65153547D01*
X90490642Y-65153755D01*
X90489808Y-65154213D01*
X90488961Y-65154998D01*
X90485899Y-65156362D01*
X90483804Y-65157513D01*
X90446101Y-65184906D01*
X90441219Y-65188112D01*
X90401117Y-65211828D01*
X90386945Y-65226000D01*
X90372160Y-65238628D01*
X90355949Y-65250407D01*
X90326246Y-65286310D01*
X90322314Y-65290631D01*
X89369772Y-66243174D01*
X89308449Y-66276659D01*
X89282091Y-66279493D01*
X87935621Y-66279493D01*
X87877995Y-66265289D01*
X87857814Y-66254697D01*
X87839724Y-66245202D01*
X87674556Y-66204493D01*
X87504444Y-66204493D01*
X87504442Y-66204493D01*
X87426887Y-66223608D01*
X87357085Y-66220538D01*
X87300023Y-66180218D01*
X87273818Y-66115449D01*
X87286791Y-66046794D01*
X87314987Y-66010394D01*
X87321383Y-66004729D01*
X87418018Y-65864730D01*
X87478340Y-65705672D01*
X87498845Y-65536800D01*
X87478340Y-65367928D01*
X87471820Y-65350736D01*
X87436829Y-65258470D01*
X87431462Y-65188807D01*
X87464610Y-65127301D01*
X87525748Y-65093480D01*
X87552771Y-65090500D01*
X87595056Y-65090500D01*
X87760225Y-65049790D01*
X87839692Y-65008081D01*
X87910849Y-64970736D01*
X87910850Y-64970734D01*
X87910852Y-64970734D01*
X88038183Y-64857929D01*
X88134818Y-64717930D01*
X88195140Y-64558872D01*
X88215645Y-64390000D01*
X88195140Y-64221128D01*
X88183056Y-64189266D01*
X88163866Y-64138664D01*
X88134818Y-64062070D01*
X88107208Y-64022071D01*
X88081111Y-63984263D01*
X88038183Y-63922071D01*
X87910852Y-63809266D01*
X87910849Y-63809263D01*
X87760226Y-63730210D01*
X87595056Y-63689500D01*
X87424944Y-63689500D01*
X87259773Y-63730210D01*
X87109150Y-63809263D01*
X86981816Y-63922072D01*
X86885182Y-64062068D01*
X86824860Y-64221125D01*
X86824859Y-64221130D01*
X86804355Y-64389999D01*
X86824859Y-64558869D01*
X86824861Y-64558877D01*
X86866371Y-64668330D01*
X86871738Y-64737993D01*
X86838590Y-64799499D01*
X86777452Y-64833320D01*
X86750429Y-64836300D01*
X86708144Y-64836300D01*
X86542973Y-64877010D01*
X86392350Y-64956063D01*
X86265016Y-65068872D01*
X86168382Y-65208868D01*
X86108060Y-65367925D01*
X86108059Y-65367930D01*
X86087555Y-65536800D01*
X86108059Y-65705669D01*
X86108060Y-65705674D01*
X86168382Y-65864731D01*
X86230675Y-65954977D01*
X86265017Y-66004729D01*
X86312499Y-66046794D01*
X86392350Y-66117536D01*
X86511781Y-66180218D01*
X86542975Y-66196590D01*
X86708144Y-66237300D01*
X86878254Y-66237300D01*
X86878256Y-66237300D01*
X86955813Y-66218184D01*
X87025613Y-66221253D01*
X87082675Y-66261573D01*
X87108880Y-66326342D01*
X87095909Y-66394997D01*
X87067718Y-66431392D01*
X87061318Y-66437062D01*
X86964682Y-66577061D01*
X86904360Y-66736118D01*
X86904359Y-66736123D01*
X86883855Y-66904993D01*
X86904359Y-67073862D01*
X86904360Y-67073867D01*
X86964682Y-67232924D01*
X87010222Y-67298899D01*
X87061317Y-67372922D01*
X87156765Y-67457481D01*
X87188650Y-67485729D01*
X87339273Y-67564782D01*
X87339275Y-67564783D01*
X87427690Y-67586575D01*
X87476076Y-67598501D01*
X87522556Y-67625564D01*
X87580893Y-67605613D01*
X87586340Y-67605493D01*
X87674556Y-67605493D01*
X87839725Y-67564783D01*
X87877995Y-67544696D01*
X87935621Y-67530493D01*
X89280048Y-67530493D01*
X89347087Y-67550178D01*
X89392842Y-67602982D01*
X89402786Y-67672140D01*
X89373761Y-67735696D01*
X89314983Y-67773470D01*
X89309723Y-67774890D01*
X89239901Y-67792099D01*
X89089278Y-67871152D01*
X88961944Y-67983961D01*
X88865310Y-68123957D01*
X88865310Y-68123958D01*
X88811508Y-68265823D01*
X88783247Y-68309533D01*
X88347626Y-68745154D01*
X88286303Y-68778639D01*
X88216611Y-68773655D01*
X88160678Y-68731783D01*
X88136261Y-68666319D01*
X88136848Y-68642531D01*
X88148886Y-68543398D01*
X88128381Y-68374526D01*
X88068059Y-68215468D01*
X87971424Y-68075469D01*
X87871000Y-67986501D01*
X87844090Y-67962661D01*
X87693467Y-67883608D01*
X87556665Y-67849890D01*
X87510184Y-67822826D01*
X87451848Y-67842778D01*
X87446401Y-67842898D01*
X87358185Y-67842898D01*
X87193014Y-67883608D01*
X87042391Y-67962661D01*
X86915057Y-68075470D01*
X86818423Y-68215466D01*
X86818423Y-68215467D01*
X86761111Y-68366588D01*
X86743546Y-68398102D01*
X86702276Y-68451888D01*
X86685464Y-68473797D01*
X86624956Y-68619876D01*
X86624955Y-68619878D01*
X86604318Y-68776637D01*
X86604318Y-68776638D01*
X86608969Y-68811965D01*
X86609500Y-68820067D01*
X86609500Y-69443678D01*
X86608969Y-69451780D01*
X86604318Y-69487106D01*
X86604318Y-69487107D01*
X86609500Y-69526467D01*
X86624955Y-69643867D01*
X86624956Y-69643869D01*
X86685464Y-69789948D01*
X86781718Y-69915389D01*
X86809995Y-69937087D01*
X86816085Y-69942427D01*
X87285086Y-70411428D01*
X87751780Y-70878122D01*
X87785265Y-70939445D01*
X87788099Y-70965803D01*
X87788099Y-72375500D01*
X87768414Y-72442539D01*
X87715610Y-72488294D01*
X87664099Y-72499500D01*
X87614944Y-72499500D01*
X87449773Y-72540210D01*
X87299150Y-72619263D01*
X87171816Y-72732072D01*
X87075182Y-72872068D01*
X87014860Y-73031125D01*
X87014859Y-73031131D01*
X86994529Y-73198559D01*
X86966907Y-73262737D01*
X86908972Y-73301793D01*
X86841759Y-73304009D01*
X86774979Y-73287550D01*
X86774978Y-73287550D01*
X86604866Y-73287550D01*
X86439695Y-73328260D01*
X86289072Y-73407313D01*
X86161738Y-73520122D01*
X86065104Y-73660118D01*
X86004782Y-73819175D01*
X86004781Y-73819180D01*
X85984277Y-73988050D01*
X74797269Y-73988050D01*
X74810659Y-73835000D01*
X74809274Y-73819175D01*
X74800206Y-73715528D01*
X74790063Y-73599592D01*
X74728903Y-73371337D01*
X74629035Y-73157171D01*
X74565551Y-73066505D01*
X74493494Y-72963597D01*
X74326402Y-72796506D01*
X74326396Y-72796501D01*
X74140842Y-72666575D01*
X74097217Y-72611998D01*
X74090023Y-72542500D01*
X74121546Y-72480145D01*
X74140842Y-72463425D01*
X74259986Y-72379999D01*
X74326401Y-72333495D01*
X74340397Y-72319499D01*
X79584355Y-72319499D01*
X79604859Y-72488369D01*
X79604860Y-72488374D01*
X79665182Y-72647431D01*
X79706942Y-72707930D01*
X79761817Y-72787429D01*
X79830108Y-72847929D01*
X79889150Y-72900236D01*
X80039773Y-72979289D01*
X80039775Y-72979290D01*
X80204944Y-73020000D01*
X80375056Y-73020000D01*
X80540225Y-72979290D01*
X80653468Y-72919855D01*
X80690849Y-72900236D01*
X80690850Y-72900234D01*
X80690852Y-72900234D01*
X80818183Y-72787429D01*
X80914818Y-72647430D01*
X80975140Y-72488372D01*
X80995645Y-72319500D01*
X80975140Y-72150628D01*
X80914818Y-71991570D01*
X80901885Y-71972834D01*
X80859943Y-71912071D01*
X80818183Y-71851571D01*
X80713302Y-71758655D01*
X80690849Y-71738763D01*
X80540226Y-71659710D01*
X80375056Y-71619000D01*
X80204944Y-71619000D01*
X80039773Y-71659710D01*
X79889150Y-71738763D01*
X79761816Y-71851572D01*
X79665182Y-71991568D01*
X79604860Y-72150625D01*
X79604859Y-72150630D01*
X79584355Y-72319499D01*
X74340397Y-72319499D01*
X74493495Y-72166401D01*
X74629035Y-71972830D01*
X74728903Y-71758663D01*
X74790063Y-71530408D01*
X74810659Y-71295000D01*
X74808596Y-71271426D01*
X74790063Y-71059596D01*
X74790063Y-71059592D01*
X74739262Y-70869999D01*
X84504355Y-70869999D01*
X84524859Y-71038869D01*
X84524860Y-71038874D01*
X84585182Y-71197931D01*
X84635913Y-71271426D01*
X84681817Y-71337929D01*
X84787505Y-71431560D01*
X84809150Y-71450736D01*
X84899071Y-71497930D01*
X84959775Y-71529790D01*
X85124944Y-71570500D01*
X85180194Y-71570500D01*
X85247233Y-71590185D01*
X85282244Y-71624060D01*
X85291816Y-71637928D01*
X85419150Y-71750736D01*
X85569773Y-71829789D01*
X85569775Y-71829790D01*
X85734944Y-71870500D01*
X85905056Y-71870500D01*
X86070225Y-71829790D01*
X86205745Y-71758663D01*
X86220849Y-71750736D01*
X86220850Y-71750734D01*
X86220852Y-71750734D01*
X86348183Y-71637929D01*
X86444818Y-71497930D01*
X86505140Y-71338872D01*
X86525645Y-71170000D01*
X86505140Y-71001128D01*
X86444818Y-70842070D01*
X86437414Y-70831344D01*
X86379837Y-70747930D01*
X86348183Y-70702071D01*
X86220852Y-70589266D01*
X86220849Y-70589263D01*
X86070226Y-70510210D01*
X85942443Y-70478715D01*
X85882063Y-70443559D01*
X85850274Y-70381340D01*
X85856175Y-70314349D01*
X85915140Y-70158872D01*
X85935645Y-69990000D01*
X85915140Y-69821128D01*
X85904661Y-69793498D01*
X85876598Y-69719500D01*
X85854818Y-69662070D01*
X85842253Y-69643867D01*
X85820476Y-69612318D01*
X85758183Y-69522071D01*
X85630852Y-69409266D01*
X85630849Y-69409263D01*
X85480226Y-69330210D01*
X85315056Y-69289500D01*
X85144944Y-69289500D01*
X84979773Y-69330210D01*
X84829150Y-69409263D01*
X84701816Y-69522072D01*
X84605182Y-69662068D01*
X84544860Y-69821125D01*
X84544859Y-69821130D01*
X84524355Y-69990000D01*
X84544859Y-70158869D01*
X84544860Y-70158874D01*
X84605182Y-70317930D01*
X84623917Y-70345073D01*
X84645799Y-70411428D01*
X84628333Y-70479080D01*
X84623917Y-70485951D01*
X84585182Y-70542069D01*
X84524860Y-70701125D01*
X84524859Y-70701130D01*
X84504355Y-70869999D01*
X74739262Y-70869999D01*
X74728903Y-70831337D01*
X74629035Y-70617171D01*
X74609222Y-70588874D01*
X74493494Y-70423597D01*
X74326402Y-70256506D01*
X74326396Y-70256501D01*
X74140842Y-70126575D01*
X74097217Y-70071998D01*
X74090023Y-70002500D01*
X74121546Y-69940145D01*
X74140842Y-69923425D01*
X74261033Y-69839266D01*
X74326401Y-69793495D01*
X74493495Y-69626401D01*
X74629035Y-69432830D01*
X74728903Y-69218663D01*
X74790063Y-68990408D01*
X74810659Y-68755000D01*
X74790063Y-68519592D01*
X74728903Y-68291337D01*
X74629035Y-68077171D01*
X74627844Y-68075469D01*
X74525986Y-67930000D01*
X79604355Y-67930000D01*
X79624859Y-68098869D01*
X79624860Y-68098874D01*
X79685182Y-68257931D01*
X79705890Y-68287931D01*
X79781817Y-68397929D01*
X79867455Y-68473797D01*
X79909150Y-68510736D01*
X80005576Y-68561344D01*
X80059775Y-68589790D01*
X80224944Y-68630500D01*
X80395056Y-68630500D01*
X80560225Y-68589790D01*
X80653689Y-68540736D01*
X80710849Y-68510736D01*
X80710850Y-68510734D01*
X80710852Y-68510734D01*
X80838183Y-68397929D01*
X80934818Y-68257930D01*
X80995140Y-68098872D01*
X81012002Y-67960000D01*
X82414355Y-67960000D01*
X82434859Y-68128869D01*
X82434860Y-68128874D01*
X82495182Y-68287931D01*
X82536072Y-68347169D01*
X82591817Y-68427929D01*
X82643593Y-68473798D01*
X82719150Y-68540736D01*
X82812613Y-68589789D01*
X82869775Y-68619790D01*
X83034944Y-68660500D01*
X83205056Y-68660500D01*
X83370225Y-68619790D01*
X83449692Y-68578081D01*
X83520849Y-68540736D01*
X83520850Y-68540734D01*
X83520852Y-68540734D01*
X83648183Y-68427929D01*
X83744818Y-68287930D01*
X83805140Y-68128872D01*
X83825645Y-67960000D01*
X83805140Y-67791128D01*
X83744818Y-67632070D01*
X83740327Y-67625564D01*
X83688548Y-67550550D01*
X83648183Y-67492071D01*
X83522954Y-67381128D01*
X83520849Y-67379263D01*
X83370226Y-67300210D01*
X83205056Y-67259500D01*
X83034944Y-67259500D01*
X82869773Y-67300210D01*
X82719150Y-67379263D01*
X82591816Y-67492072D01*
X82495182Y-67632068D01*
X82434860Y-67791125D01*
X82434859Y-67791130D01*
X82414355Y-67960000D01*
X81012002Y-67960000D01*
X81015645Y-67930000D01*
X80995140Y-67761128D01*
X80979113Y-67718869D01*
X80946195Y-67632070D01*
X80934818Y-67602070D01*
X80932354Y-67598501D01*
X80838183Y-67462071D01*
X80810008Y-67437110D01*
X80772882Y-67377920D01*
X80773650Y-67308055D01*
X80810009Y-67251479D01*
X80810846Y-67250736D01*
X80810852Y-67250734D01*
X80938183Y-67137929D01*
X81034818Y-66997930D01*
X81095140Y-66838872D01*
X81115645Y-66670000D01*
X81095140Y-66501128D01*
X81034818Y-66342070D01*
X80938183Y-66202071D01*
X80810852Y-66089266D01*
X80810849Y-66089263D01*
X80660226Y-66010210D01*
X80495056Y-65969500D01*
X80324944Y-65969500D01*
X80159773Y-66010210D01*
X80009150Y-66089263D01*
X79881816Y-66202072D01*
X79785182Y-66342068D01*
X79724860Y-66501125D01*
X79724859Y-66501130D01*
X79704355Y-66670000D01*
X79724859Y-66838869D01*
X79724860Y-66838874D01*
X79785182Y-66997931D01*
X79881816Y-67137928D01*
X79909991Y-67162889D01*
X79947117Y-67222079D01*
X79946349Y-67291944D01*
X79909990Y-67348519D01*
X79781818Y-67462069D01*
X79685182Y-67602068D01*
X79624860Y-67761125D01*
X79624859Y-67761130D01*
X79604355Y-67930000D01*
X74525986Y-67930000D01*
X74493494Y-67883597D01*
X74326402Y-67716506D01*
X74326396Y-67716501D01*
X74140842Y-67586575D01*
X74097217Y-67531998D01*
X74090023Y-67462500D01*
X74121546Y-67400145D01*
X74140842Y-67383425D01*
X74167745Y-67364587D01*
X74326401Y-67253495D01*
X74493495Y-67086401D01*
X74629035Y-66892830D01*
X74728903Y-66678663D01*
X74790063Y-66450408D01*
X74810659Y-66215000D01*
X74790063Y-65979592D01*
X74728903Y-65751337D01*
X74629035Y-65537171D01*
X74628776Y-65536800D01*
X74493494Y-65343597D01*
X74326402Y-65176506D01*
X74326396Y-65176501D01*
X74140842Y-65046575D01*
X74097217Y-64991998D01*
X74090023Y-64922500D01*
X74121546Y-64860145D01*
X74140842Y-64843425D01*
X74163026Y-64827891D01*
X74326401Y-64713495D01*
X74493495Y-64546401D01*
X74629035Y-64352830D01*
X74728903Y-64138663D01*
X74790063Y-63910408D01*
X74810659Y-63675000D01*
X74790063Y-63439592D01*
X74728903Y-63211337D01*
X74629035Y-62997171D01*
X74590000Y-62941422D01*
X74493494Y-62803597D01*
X74326402Y-62636506D01*
X74326396Y-62636501D01*
X74140842Y-62506575D01*
X74097217Y-62451998D01*
X74090023Y-62382500D01*
X74121546Y-62320145D01*
X74140842Y-62303425D01*
X74286057Y-62201744D01*
X74326401Y-62173495D01*
X74493495Y-62006401D01*
X74629035Y-61812830D01*
X74695638Y-61670000D01*
X80664540Y-61670000D01*
X80684326Y-61858256D01*
X80684327Y-61858259D01*
X80742818Y-62038277D01*
X80742821Y-62038284D01*
X80837467Y-62202216D01*
X80904264Y-62276401D01*
X80964129Y-62342888D01*
X81117265Y-62454148D01*
X81117270Y-62454151D01*
X81290192Y-62531142D01*
X81290197Y-62531144D01*
X81475354Y-62570500D01*
X81475355Y-62570500D01*
X81664644Y-62570500D01*
X81664646Y-62570500D01*
X81849803Y-62531144D01*
X82022730Y-62454151D01*
X82175871Y-62342888D01*
X82302533Y-62202216D01*
X82397179Y-62038284D01*
X82455674Y-61858256D01*
X82475460Y-61670000D01*
X82455674Y-61481744D01*
X82427150Y-61393957D01*
X83518312Y-61393957D01*
X83538816Y-61562826D01*
X83538817Y-61562831D01*
X83599139Y-61721888D01*
X83661432Y-61812134D01*
X83695774Y-61861886D01*
X83785075Y-61941000D01*
X83822202Y-62000189D01*
X83821434Y-62070054D01*
X83818790Y-62077785D01*
X83775547Y-62191808D01*
X83775545Y-62191816D01*
X83755041Y-62360685D01*
X83775545Y-62529555D01*
X83775546Y-62529560D01*
X83835868Y-62688617D01*
X83842000Y-62697500D01*
X83932503Y-62828615D01*
X84020423Y-62906505D01*
X84059836Y-62941422D01*
X84210459Y-63020475D01*
X84210461Y-63020476D01*
X84375630Y-63061186D01*
X84545742Y-63061186D01*
X84710911Y-63020476D01*
X84790378Y-62978767D01*
X84861535Y-62941422D01*
X84861536Y-62941420D01*
X84861538Y-62941420D01*
X84988869Y-62828615D01*
X85085504Y-62688616D01*
X85145826Y-62529558D01*
X85162772Y-62390000D01*
X101224540Y-62390000D01*
X101244326Y-62578256D01*
X101244327Y-62578259D01*
X101302818Y-62758277D01*
X101302821Y-62758284D01*
X101397467Y-62922216D01*
X101464957Y-62997171D01*
X101524129Y-63062888D01*
X101677265Y-63174148D01*
X101677270Y-63174151D01*
X101850192Y-63251142D01*
X101850197Y-63251144D01*
X102035354Y-63290500D01*
X102035355Y-63290500D01*
X102224644Y-63290500D01*
X102224646Y-63290500D01*
X102409803Y-63251144D01*
X102582730Y-63174151D01*
X102735871Y-63062888D01*
X102862533Y-62922216D01*
X102957179Y-62758284D01*
X103015674Y-62578256D01*
X103035460Y-62390000D01*
X103015674Y-62201744D01*
X102957179Y-62021716D01*
X102862533Y-61857784D01*
X102735871Y-61717112D01*
X102735870Y-61717111D01*
X102582734Y-61605851D01*
X102582729Y-61605848D01*
X102409807Y-61528857D01*
X102409802Y-61528855D01*
X102264000Y-61497865D01*
X102224646Y-61489500D01*
X102035354Y-61489500D01*
X102002897Y-61496398D01*
X101850197Y-61528855D01*
X101850192Y-61528857D01*
X101677270Y-61605848D01*
X101677265Y-61605851D01*
X101524129Y-61717111D01*
X101397466Y-61857785D01*
X101302821Y-62021715D01*
X101302818Y-62021722D01*
X101244327Y-62201740D01*
X101244326Y-62201744D01*
X101224540Y-62390000D01*
X85162772Y-62390000D01*
X85166331Y-62360686D01*
X85145826Y-62191814D01*
X85085504Y-62032756D01*
X85067312Y-62006401D01*
X85022168Y-61940999D01*
X84988869Y-61892757D01*
X84961674Y-61868664D01*
X84899567Y-61813642D01*
X84862440Y-61754453D01*
X84863208Y-61684588D01*
X84865841Y-61676885D01*
X84878822Y-61642657D01*
X84920996Y-61586959D01*
X84986593Y-61562900D01*
X85054783Y-61578126D01*
X85096811Y-61616190D01*
X85111815Y-61637927D01*
X85111816Y-61637928D01*
X85111817Y-61637929D01*
X85148017Y-61669999D01*
X85239150Y-61750736D01*
X85389773Y-61829789D01*
X85389775Y-61829790D01*
X85554944Y-61870500D01*
X85725056Y-61870500D01*
X85890225Y-61829790D01*
X85969692Y-61788081D01*
X86040849Y-61750736D01*
X86040850Y-61750734D01*
X86040852Y-61750734D01*
X86168183Y-61637929D01*
X86264818Y-61497930D01*
X86325140Y-61338872D01*
X86345645Y-61170000D01*
X86325140Y-61001128D01*
X86264818Y-60842070D01*
X86264177Y-60841142D01*
X86185507Y-60727169D01*
X86168183Y-60702071D01*
X86040852Y-60589266D01*
X86040849Y-60589263D01*
X85890226Y-60510210D01*
X85725056Y-60469500D01*
X85682461Y-60469500D01*
X85615422Y-60449815D01*
X85569667Y-60397011D01*
X85566519Y-60389470D01*
X85557810Y-60366506D01*
X85553018Y-60353870D01*
X85549162Y-60348284D01*
X85490708Y-60263599D01*
X85456383Y-60213871D01*
X85329052Y-60101066D01*
X85329049Y-60101063D01*
X85178426Y-60022010D01*
X85013256Y-59981300D01*
X84843144Y-59981300D01*
X84677973Y-60022010D01*
X84527350Y-60101063D01*
X84400016Y-60213872D01*
X84303382Y-60353868D01*
X84243060Y-60512925D01*
X84243059Y-60512930D01*
X84233993Y-60587596D01*
X84206370Y-60651773D01*
X84148436Y-60690829D01*
X84140572Y-60693045D01*
X83973730Y-60734167D01*
X83823107Y-60813220D01*
X83695773Y-60926029D01*
X83599139Y-61066025D01*
X83538817Y-61225082D01*
X83538816Y-61225087D01*
X83518312Y-61393957D01*
X82427150Y-61393957D01*
X82397179Y-61301716D01*
X82302533Y-61137784D01*
X82175871Y-60997112D01*
X82099113Y-60941344D01*
X82022734Y-60885851D01*
X82022729Y-60885848D01*
X81849807Y-60808857D01*
X81849802Y-60808855D01*
X81704001Y-60777865D01*
X81664646Y-60769500D01*
X81475354Y-60769500D01*
X81442897Y-60776398D01*
X81290197Y-60808855D01*
X81290192Y-60808857D01*
X81117270Y-60885848D01*
X81117265Y-60885851D01*
X80964129Y-60997111D01*
X80837466Y-61137785D01*
X80742821Y-61301715D01*
X80742818Y-61301722D01*
X80684327Y-61481740D01*
X80684326Y-61481744D01*
X80664540Y-61670000D01*
X74695638Y-61670000D01*
X74728903Y-61598663D01*
X74790063Y-61370408D01*
X74810659Y-61135000D01*
X74790063Y-60899592D01*
X74728903Y-60671337D01*
X74629035Y-60457171D01*
X74623885Y-60449815D01*
X74493494Y-60263597D01*
X74326402Y-60096506D01*
X74326396Y-60096501D01*
X74160015Y-59980000D01*
X96264540Y-59980000D01*
X96284326Y-60168256D01*
X96284327Y-60168259D01*
X96342818Y-60348277D01*
X96342821Y-60348284D01*
X96437467Y-60512216D01*
X96563125Y-60651773D01*
X96564129Y-60652888D01*
X96717265Y-60764148D01*
X96717270Y-60764151D01*
X96890192Y-60841142D01*
X96890197Y-60841144D01*
X97075354Y-60880500D01*
X97075355Y-60880500D01*
X97264644Y-60880500D01*
X97264646Y-60880500D01*
X97449803Y-60841144D01*
X97622730Y-60764151D01*
X97775871Y-60652888D01*
X97902533Y-60512216D01*
X97997179Y-60348284D01*
X98055674Y-60168256D01*
X98075460Y-59980000D01*
X98055674Y-59791744D01*
X97997179Y-59611716D01*
X97902533Y-59447784D01*
X97775871Y-59307112D01*
X97775870Y-59307111D01*
X97622734Y-59195851D01*
X97622729Y-59195848D01*
X97449807Y-59118857D01*
X97449802Y-59118855D01*
X97304000Y-59087865D01*
X97264646Y-59079500D01*
X97075354Y-59079500D01*
X97042897Y-59086398D01*
X96890197Y-59118855D01*
X96890192Y-59118857D01*
X96717270Y-59195848D01*
X96717265Y-59195851D01*
X96564129Y-59307111D01*
X96437466Y-59447785D01*
X96342821Y-59611715D01*
X96342818Y-59611722D01*
X96284327Y-59791740D01*
X96284326Y-59791744D01*
X96264540Y-59980000D01*
X74160015Y-59980000D01*
X74140842Y-59966575D01*
X74097217Y-59911998D01*
X74090023Y-59842500D01*
X74121546Y-59780145D01*
X74140842Y-59763425D01*
X74179445Y-59736395D01*
X74326401Y-59633495D01*
X74493495Y-59466401D01*
X74629035Y-59272830D01*
X74728903Y-59058663D01*
X74790063Y-58830408D01*
X74810659Y-58595000D01*
X74790063Y-58359592D01*
X74728903Y-58131337D01*
X74629035Y-57917171D01*
X74565551Y-57826505D01*
X74493494Y-57723597D01*
X74326402Y-57556506D01*
X74326392Y-57556498D01*
X74317112Y-57550000D01*
X84584540Y-57550000D01*
X84604326Y-57738256D01*
X84604327Y-57738259D01*
X84662818Y-57918277D01*
X84662821Y-57918284D01*
X84757467Y-58082216D01*
X84851969Y-58187171D01*
X84884129Y-58222888D01*
X85037265Y-58334148D01*
X85037270Y-58334151D01*
X85210192Y-58411142D01*
X85210197Y-58411144D01*
X85395354Y-58450500D01*
X85395355Y-58450500D01*
X85584644Y-58450500D01*
X85584646Y-58450500D01*
X85769803Y-58411144D01*
X85942730Y-58334151D01*
X86095871Y-58222888D01*
X86222533Y-58082216D01*
X86317179Y-57918284D01*
X86375674Y-57738256D01*
X86395460Y-57550000D01*
X86375674Y-57361744D01*
X86317179Y-57181716D01*
X86222533Y-57017784D01*
X86095871Y-56877112D01*
X86059086Y-56850386D01*
X85942734Y-56765851D01*
X85942729Y-56765848D01*
X85769807Y-56688857D01*
X85769802Y-56688855D01*
X85624000Y-56657865D01*
X85584646Y-56649500D01*
X85395354Y-56649500D01*
X85362897Y-56656398D01*
X85210197Y-56688855D01*
X85210192Y-56688857D01*
X85037270Y-56765848D01*
X85037265Y-56765851D01*
X84884129Y-56877111D01*
X84757466Y-57017785D01*
X84662821Y-57181715D01*
X84662818Y-57181722D01*
X84608954Y-57347500D01*
X84604326Y-57361744D01*
X84584540Y-57550000D01*
X74317112Y-57550000D01*
X74140842Y-57426575D01*
X74097217Y-57371998D01*
X74090023Y-57302500D01*
X74121546Y-57240145D01*
X74140842Y-57223425D01*
X74265980Y-57135802D01*
X74326401Y-57093495D01*
X74493495Y-56926401D01*
X74629035Y-56732830D01*
X74728903Y-56518663D01*
X74790063Y-56290408D01*
X74810659Y-56055000D01*
X74790063Y-55819592D01*
X74738489Y-55627112D01*
X74728905Y-55591344D01*
X74728904Y-55591343D01*
X74728903Y-55591337D01*
X74629035Y-55377171D01*
X74565550Y-55286505D01*
X74493496Y-55183600D01*
X74438173Y-55128277D01*
X74371179Y-55061283D01*
X74337696Y-54999963D01*
X74342680Y-54930271D01*
X74384551Y-54874337D01*
X74415529Y-54857422D01*
X74547086Y-54808354D01*
X74547093Y-54808350D01*
X74662187Y-54722190D01*
X74662190Y-54722187D01*
X74748350Y-54607093D01*
X74748354Y-54607086D01*
X74798596Y-54472379D01*
X74798598Y-54472372D01*
X74804999Y-54412844D01*
X74805000Y-54412827D01*
X74805000Y-53906004D01*
X84909500Y-53906004D01*
X84919236Y-53998631D01*
X84924738Y-54050983D01*
X84984856Y-54236010D01*
X84984857Y-54236011D01*
X85024989Y-54305521D01*
X85082130Y-54404492D01*
X85111904Y-54437559D01*
X85212302Y-54549064D01*
X85212306Y-54549066D01*
X85212308Y-54549069D01*
X85343425Y-54644331D01*
X85386091Y-54699661D01*
X85392480Y-54733682D01*
X85393861Y-54733537D01*
X85394540Y-54739998D01*
X85394540Y-54740000D01*
X85414326Y-54928256D01*
X85414327Y-54928259D01*
X85472818Y-55108277D01*
X85472821Y-55108284D01*
X85567467Y-55272216D01*
X85661969Y-55377171D01*
X85694129Y-55412888D01*
X85847265Y-55524148D01*
X85847270Y-55524151D01*
X86020191Y-55601142D01*
X86026372Y-55603150D01*
X86025395Y-55606155D01*
X86074860Y-55632481D01*
X86109000Y-55693442D01*
X86111834Y-55729558D01*
X86105619Y-55820418D01*
X86105619Y-55820421D01*
X86136405Y-55968578D01*
X86136407Y-55968583D01*
X86136408Y-55968585D01*
X86206029Y-56102947D01*
X86206031Y-56102949D01*
X86206032Y-56102951D01*
X86309318Y-56213543D01*
X86309320Y-56213544D01*
X86438618Y-56292172D01*
X86584335Y-56333000D01*
X86584336Y-56333000D01*
X86697659Y-56333000D01*
X86725723Y-56329142D01*
X86809920Y-56317570D01*
X86919854Y-56269818D01*
X86948716Y-56257282D01*
X86948716Y-56257281D01*
X86948720Y-56257280D01*
X87066108Y-56161778D01*
X87153377Y-56038147D01*
X87159084Y-56022090D01*
X87200082Y-55965513D01*
X87265159Y-55940083D01*
X87275924Y-55939615D01*
X87345347Y-55939615D01*
X87345349Y-55939615D01*
X87530506Y-55900259D01*
X87703433Y-55823266D01*
X87856574Y-55712003D01*
X87983236Y-55571331D01*
X87991636Y-55556780D01*
X88042198Y-55508566D01*
X88110804Y-55495339D01*
X88171908Y-55518459D01*
X88189420Y-55531182D01*
X88207270Y-55544151D01*
X88380192Y-55621142D01*
X88380197Y-55621144D01*
X88565354Y-55660500D01*
X88565355Y-55660500D01*
X88754644Y-55660500D01*
X88754646Y-55660500D01*
X88939803Y-55621144D01*
X89112730Y-55544151D01*
X89265871Y-55432888D01*
X89392533Y-55292216D01*
X89487179Y-55128284D01*
X89545674Y-54948256D01*
X89565460Y-54760000D01*
X89548644Y-54600000D01*
X90054540Y-54600000D01*
X90074326Y-54788256D01*
X90074327Y-54788259D01*
X90132818Y-54968277D01*
X90132821Y-54968284D01*
X90227467Y-55132216D01*
X90292247Y-55204161D01*
X90322477Y-55267152D01*
X90313852Y-55336487D01*
X90278354Y-55383320D01*
X90253890Y-55403223D01*
X90166623Y-55526852D01*
X90166621Y-55526855D01*
X90115946Y-55669439D01*
X90115946Y-55669442D01*
X90105619Y-55820418D01*
X90105619Y-55820421D01*
X90136405Y-55968578D01*
X90136407Y-55968583D01*
X90136408Y-55968585D01*
X90206029Y-56102947D01*
X90206031Y-56102949D01*
X90206032Y-56102951D01*
X90309318Y-56213543D01*
X90309320Y-56213544D01*
X90438618Y-56292172D01*
X90584335Y-56333000D01*
X90584336Y-56333000D01*
X90697659Y-56333000D01*
X90725723Y-56329142D01*
X90809920Y-56317570D01*
X90850369Y-56300000D01*
X92534540Y-56300000D01*
X92554326Y-56488256D01*
X92554327Y-56488259D01*
X92612818Y-56668277D01*
X92612821Y-56668284D01*
X92707467Y-56832216D01*
X92792272Y-56926401D01*
X92834129Y-56972888D01*
X92987265Y-57084148D01*
X92987270Y-57084151D01*
X93160192Y-57161142D01*
X93160197Y-57161144D01*
X93345354Y-57200500D01*
X93345355Y-57200500D01*
X93534644Y-57200500D01*
X93534646Y-57200500D01*
X93719803Y-57161144D01*
X93892730Y-57084151D01*
X94045871Y-56972888D01*
X94172533Y-56832216D01*
X94267179Y-56668284D01*
X94325674Y-56488256D01*
X94345460Y-56300000D01*
X94325674Y-56111744D01*
X94267179Y-55931716D01*
X94172533Y-55767784D01*
X94045871Y-55627112D01*
X94037654Y-55621142D01*
X93913842Y-55531187D01*
X98159500Y-55531187D01*
X98176983Y-55647171D01*
X98198604Y-55790615D01*
X98198605Y-55790617D01*
X98198606Y-55790623D01*
X98275938Y-56041326D01*
X98389767Y-56277696D01*
X98389768Y-56277697D01*
X98389770Y-56277700D01*
X98389772Y-56277704D01*
X98533324Y-56488256D01*
X98537567Y-56494479D01*
X98716014Y-56686801D01*
X98716018Y-56686804D01*
X98716019Y-56686805D01*
X98921143Y-56850386D01*
X99148357Y-56981568D01*
X99392584Y-57077420D01*
X99648370Y-57135802D01*
X99648376Y-57135802D01*
X99648379Y-57135803D01*
X99844484Y-57150499D01*
X99844503Y-57150499D01*
X99844506Y-57150500D01*
X99844508Y-57150500D01*
X99975492Y-57150500D01*
X99975494Y-57150500D01*
X99975496Y-57150499D01*
X99975515Y-57150499D01*
X100171620Y-57135803D01*
X100171622Y-57135802D01*
X100171630Y-57135802D01*
X100427416Y-57077420D01*
X100671643Y-56981568D01*
X100898857Y-56850386D01*
X101103981Y-56686805D01*
X101121173Y-56668277D01*
X101221255Y-56560413D01*
X101282433Y-56494479D01*
X101430228Y-56277704D01*
X101544063Y-56041323D01*
X101621396Y-55790615D01*
X101660500Y-55531182D01*
X101660500Y-55268818D01*
X101621396Y-55009385D01*
X101544063Y-54758677D01*
X101522018Y-54712900D01*
X101430232Y-54522303D01*
X101430231Y-54522302D01*
X101430230Y-54522301D01*
X101430228Y-54522296D01*
X101282433Y-54305521D01*
X101229677Y-54248663D01*
X101103985Y-54113198D01*
X101047037Y-54067784D01*
X100898857Y-53949614D01*
X100671643Y-53818432D01*
X100427416Y-53722580D01*
X100427411Y-53722578D01*
X100427402Y-53722576D01*
X100209818Y-53672914D01*
X100171630Y-53664198D01*
X100171629Y-53664197D01*
X100171625Y-53664197D01*
X100171620Y-53664196D01*
X99975515Y-53649500D01*
X99975494Y-53649500D01*
X99844506Y-53649500D01*
X99844484Y-53649500D01*
X99648379Y-53664196D01*
X99648374Y-53664197D01*
X99392597Y-53722576D01*
X99392578Y-53722582D01*
X99148356Y-53818432D01*
X98921143Y-53949614D01*
X98716014Y-54113198D01*
X98537567Y-54305520D01*
X98389768Y-54522302D01*
X98389767Y-54522303D01*
X98275938Y-54758673D01*
X98198606Y-55009376D01*
X98198605Y-55009381D01*
X98198604Y-55009385D01*
X98190781Y-55061286D01*
X98159500Y-55268812D01*
X98159500Y-55531187D01*
X93913842Y-55531187D01*
X93892734Y-55515851D01*
X93892729Y-55515848D01*
X93719807Y-55438857D01*
X93719802Y-55438855D01*
X93552161Y-55403223D01*
X93534646Y-55399500D01*
X93345354Y-55399500D01*
X93327839Y-55403223D01*
X93160197Y-55438855D01*
X93160192Y-55438857D01*
X92987270Y-55515848D01*
X92987265Y-55515851D01*
X92834129Y-55627111D01*
X92707466Y-55767785D01*
X92612821Y-55931715D01*
X92612818Y-55931722D01*
X92561522Y-56089596D01*
X92554326Y-56111744D01*
X92534540Y-56300000D01*
X90850369Y-56300000D01*
X90919854Y-56269818D01*
X90948716Y-56257282D01*
X90948716Y-56257281D01*
X90948720Y-56257280D01*
X91066108Y-56161778D01*
X91153377Y-56038147D01*
X91160255Y-56018793D01*
X91204053Y-55895560D01*
X91204053Y-55895558D01*
X91204054Y-55895556D01*
X91214381Y-55744579D01*
X91183592Y-55596415D01*
X91182958Y-55593363D01*
X91188591Y-55523720D01*
X91230981Y-55468179D01*
X91253928Y-55454855D01*
X91256749Y-55453599D01*
X91412730Y-55384151D01*
X91565871Y-55272888D01*
X91692533Y-55132216D01*
X91787179Y-54968284D01*
X91845674Y-54788256D01*
X91845675Y-54788251D01*
X91847027Y-54781893D01*
X91848537Y-54782214D01*
X91872119Y-54724876D01*
X91922451Y-54688578D01*
X91922243Y-54688154D01*
X91924734Y-54686932D01*
X91925813Y-54686154D01*
X91927887Y-54685386D01*
X91927892Y-54685383D01*
X92100567Y-54577755D01*
X92100568Y-54577753D01*
X92100571Y-54577752D01*
X92248053Y-54437559D01*
X92364295Y-54270549D01*
X92444540Y-54083558D01*
X92485500Y-53884241D01*
X92485500Y-53031758D01*
X92473485Y-52913599D01*
X92470074Y-52880060D01*
X92409162Y-52685920D01*
X92409160Y-52685916D01*
X92409159Y-52685912D01*
X92310409Y-52507998D01*
X92310408Y-52507997D01*
X92310407Y-52507995D01*
X92177867Y-52353606D01*
X92177865Y-52353604D01*
X92016962Y-52229054D01*
X92016959Y-52229053D01*
X92016958Y-52229052D01*
X91834271Y-52139440D01*
X91637285Y-52088437D01*
X91637287Y-52088437D01*
X91501804Y-52081566D01*
X91434064Y-52078131D01*
X91434063Y-52078131D01*
X91434061Y-52078131D01*
X91232936Y-52108942D01*
X91232924Y-52108945D01*
X91042118Y-52179611D01*
X91042111Y-52179615D01*
X90869432Y-52287245D01*
X90869427Y-52287249D01*
X90721949Y-52427438D01*
X90721948Y-52427440D01*
X90605705Y-52594449D01*
X90525459Y-52781443D01*
X90484500Y-52980758D01*
X90484500Y-53769211D01*
X90464815Y-53836250D01*
X90433385Y-53869529D01*
X90354129Y-53927111D01*
X90227466Y-54067785D01*
X90132821Y-54231715D01*
X90132818Y-54231722D01*
X90076683Y-54404490D01*
X90074326Y-54411744D01*
X90054540Y-54600000D01*
X89548644Y-54600000D01*
X89545674Y-54571744D01*
X89487179Y-54391716D01*
X89392533Y-54227784D01*
X89265871Y-54087112D01*
X89265870Y-54087111D01*
X89112734Y-53975851D01*
X89112729Y-53975848D01*
X88939807Y-53898857D01*
X88939802Y-53898855D01*
X88794000Y-53867865D01*
X88754646Y-53859500D01*
X88565354Y-53859500D01*
X88532897Y-53866398D01*
X88380197Y-53898855D01*
X88380192Y-53898857D01*
X88207270Y-53975848D01*
X88207265Y-53975851D01*
X88054129Y-54087111D01*
X87927467Y-54227783D01*
X87919064Y-54242338D01*
X87868495Y-54290552D01*
X87799888Y-54303773D01*
X87738794Y-54280654D01*
X87703436Y-54254966D01*
X87703432Y-54254963D01*
X87530510Y-54177972D01*
X87530505Y-54177970D01*
X87384704Y-54146980D01*
X87345349Y-54138615D01*
X87156057Y-54138615D01*
X87070125Y-54156879D01*
X87000458Y-54151563D01*
X86952195Y-54118560D01*
X86905875Y-54067115D01*
X86905871Y-54067112D01*
X86811615Y-53998631D01*
X86768949Y-53943301D01*
X86760500Y-53898313D01*
X86760500Y-52959000D01*
X86760500Y-52958996D01*
X86745262Y-52814018D01*
X86685144Y-52628992D01*
X86685143Y-52628991D01*
X86685143Y-52628989D01*
X86685142Y-52628988D01*
X86651202Y-52570203D01*
X86587870Y-52460508D01*
X86536882Y-52403881D01*
X86457697Y-52315935D01*
X86457694Y-52315933D01*
X86457693Y-52315932D01*
X86457692Y-52315931D01*
X86378995Y-52258754D01*
X86300297Y-52201576D01*
X86160734Y-52139440D01*
X86122571Y-52122449D01*
X86122569Y-52122448D01*
X85932274Y-52082000D01*
X85737726Y-52082000D01*
X85547431Y-52122448D01*
X85369702Y-52201576D01*
X85212305Y-52315933D01*
X85212302Y-52315935D01*
X85082129Y-52460509D01*
X84984857Y-52628988D01*
X84984856Y-52628989D01*
X84924738Y-52814016D01*
X84924737Y-52814018D01*
X84924738Y-52814018D01*
X84909500Y-52958996D01*
X84909500Y-53906004D01*
X74805000Y-53906004D01*
X74805000Y-53765000D01*
X73888686Y-53765000D01*
X73914493Y-53724844D01*
X73955000Y-53586889D01*
X73955000Y-53443111D01*
X73914493Y-53305156D01*
X73888686Y-53265000D01*
X74805000Y-53265000D01*
X74805000Y-52617172D01*
X74804999Y-52617155D01*
X74798598Y-52557627D01*
X74798596Y-52557620D01*
X74748354Y-52422913D01*
X74748350Y-52422906D01*
X74662190Y-52307812D01*
X74662187Y-52307809D01*
X74547093Y-52221649D01*
X74547086Y-52221645D01*
X74412379Y-52171403D01*
X74412372Y-52171401D01*
X74352844Y-52165000D01*
X73705000Y-52165000D01*
X73705000Y-53079498D01*
X73597315Y-53030320D01*
X73490763Y-53015000D01*
X73419237Y-53015000D01*
X73312685Y-53030320D01*
X73205000Y-53079498D01*
X73205000Y-52165000D01*
X72557155Y-52165000D01*
X72497627Y-52171401D01*
X72497620Y-52171403D01*
X72362913Y-52221645D01*
X72362906Y-52221649D01*
X72247812Y-52307809D01*
X72247809Y-52307812D01*
X72161649Y-52422906D01*
X72161645Y-52422913D01*
X72111403Y-52557620D01*
X72111401Y-52557627D01*
X72105000Y-52617155D01*
X72105000Y-53265000D01*
X73021314Y-53265000D01*
X72995507Y-53305156D01*
X72955000Y-53443111D01*
X72955000Y-53586889D01*
X72995507Y-53724844D01*
X73021314Y-53765000D01*
X72105000Y-53765000D01*
X72105000Y-54412844D01*
X72111401Y-54472372D01*
X72111403Y-54472379D01*
X72161645Y-54607086D01*
X72161649Y-54607093D01*
X72247809Y-54722187D01*
X72247812Y-54722190D01*
X72362906Y-54808350D01*
X72362913Y-54808354D01*
X72494470Y-54857421D01*
X72550403Y-54899292D01*
X72574821Y-54964756D01*
X72559970Y-55033029D01*
X72538819Y-55061284D01*
X72416503Y-55183600D01*
X72280965Y-55377169D01*
X72280964Y-55377171D01*
X72181098Y-55591335D01*
X72181094Y-55591344D01*
X72119938Y-55819586D01*
X72119936Y-55819596D01*
X72099341Y-56054999D01*
X72099341Y-56055000D01*
X72119936Y-56290403D01*
X72119938Y-56290413D01*
X72181094Y-56518655D01*
X72181096Y-56518659D01*
X72181097Y-56518663D01*
X72250867Y-56668284D01*
X72280965Y-56732830D01*
X72280967Y-56732834D01*
X72416501Y-56926395D01*
X72416506Y-56926402D01*
X72583597Y-57093493D01*
X72583603Y-57093498D01*
X72769158Y-57223425D01*
X72812783Y-57278002D01*
X72819977Y-57347500D01*
X72788454Y-57409855D01*
X72769158Y-57426575D01*
X72583597Y-57556505D01*
X72416505Y-57723597D01*
X72280965Y-57917169D01*
X72280964Y-57917171D01*
X72181098Y-58131335D01*
X72181094Y-58131344D01*
X72119938Y-58359586D01*
X72119936Y-58359596D01*
X72099341Y-58594999D01*
X72099341Y-58595000D01*
X72119936Y-58830403D01*
X72119938Y-58830413D01*
X72181094Y-59058655D01*
X72181096Y-59058659D01*
X72181097Y-59058663D01*
X72209165Y-59118855D01*
X72280965Y-59272830D01*
X72280967Y-59272834D01*
X72416501Y-59466395D01*
X72416506Y-59466402D01*
X72583597Y-59633493D01*
X72583603Y-59633498D01*
X72769158Y-59763425D01*
X72812783Y-59818002D01*
X72819977Y-59887500D01*
X72788454Y-59949855D01*
X72769158Y-59966575D01*
X72583597Y-60096505D01*
X72416505Y-60263597D01*
X72280965Y-60457169D01*
X72280964Y-60457171D01*
X72181098Y-60671335D01*
X72181094Y-60671344D01*
X72119938Y-60899586D01*
X72119936Y-60899596D01*
X72099341Y-61134999D01*
X72099341Y-61135000D01*
X72119936Y-61370403D01*
X72119938Y-61370413D01*
X72181094Y-61598655D01*
X72181096Y-61598659D01*
X72181097Y-61598663D01*
X72238558Y-61721888D01*
X72280965Y-61812830D01*
X72280967Y-61812834D01*
X72416501Y-62006395D01*
X72416506Y-62006402D01*
X72583597Y-62173493D01*
X72583603Y-62173498D01*
X72769158Y-62303425D01*
X72812783Y-62358002D01*
X72819977Y-62427500D01*
X72788454Y-62489855D01*
X72769158Y-62506575D01*
X72583597Y-62636505D01*
X72416505Y-62803597D01*
X72280965Y-62997169D01*
X72280964Y-62997171D01*
X72181098Y-63211335D01*
X72181094Y-63211344D01*
X72119938Y-63439586D01*
X72119936Y-63439596D01*
X72099341Y-63674999D01*
X72099341Y-63675000D01*
X72119936Y-63910403D01*
X72119938Y-63910413D01*
X72181094Y-64138655D01*
X72181096Y-64138659D01*
X72181097Y-64138663D01*
X72255774Y-64298808D01*
X72280965Y-64352830D01*
X72280967Y-64352834D01*
X72416501Y-64546395D01*
X72416506Y-64546402D01*
X72583597Y-64713493D01*
X72583603Y-64713498D01*
X72769158Y-64843425D01*
X72812783Y-64898002D01*
X72819977Y-64967500D01*
X72788454Y-65029855D01*
X72769158Y-65046575D01*
X72583597Y-65176505D01*
X72416505Y-65343597D01*
X72280965Y-65537169D01*
X72280964Y-65537171D01*
X72181098Y-65751335D01*
X72181094Y-65751344D01*
X72119938Y-65979586D01*
X72119936Y-65979596D01*
X72099341Y-66214999D01*
X72099341Y-66215000D01*
X72119936Y-66450403D01*
X72119938Y-66450413D01*
X72181094Y-66678655D01*
X72181096Y-66678659D01*
X72181097Y-66678663D01*
X72255804Y-66838872D01*
X72280965Y-66892830D01*
X72280967Y-66892834D01*
X72416501Y-67086395D01*
X72416506Y-67086402D01*
X72583597Y-67253493D01*
X72583603Y-67253498D01*
X72769158Y-67383425D01*
X72812783Y-67438002D01*
X72819977Y-67507500D01*
X72788454Y-67569855D01*
X72769158Y-67586575D01*
X72583597Y-67716505D01*
X72416505Y-67883597D01*
X72280965Y-68077169D01*
X72280964Y-68077171D01*
X72181098Y-68291335D01*
X72181094Y-68291344D01*
X72119938Y-68519586D01*
X72119936Y-68519596D01*
X72099341Y-68754999D01*
X72099341Y-68755000D01*
X72119936Y-68990403D01*
X72119938Y-68990413D01*
X72181094Y-69218655D01*
X72181096Y-69218659D01*
X72181097Y-69218663D01*
X72269977Y-69409266D01*
X72280965Y-69432830D01*
X72280967Y-69432834D01*
X72416501Y-69626395D01*
X72416506Y-69626402D01*
X72583597Y-69793493D01*
X72583603Y-69793498D01*
X72769158Y-69923425D01*
X72812783Y-69978002D01*
X72819977Y-70047500D01*
X72788454Y-70109855D01*
X72769158Y-70126575D01*
X72583597Y-70256505D01*
X72416505Y-70423597D01*
X72280965Y-70617169D01*
X72280964Y-70617171D01*
X72181098Y-70831335D01*
X72181094Y-70831344D01*
X72119938Y-71059586D01*
X72119936Y-71059596D01*
X72099341Y-71294999D01*
X72099341Y-71295000D01*
X72119936Y-71530403D01*
X72119938Y-71530413D01*
X72181094Y-71758655D01*
X72181096Y-71758659D01*
X72181097Y-71758663D01*
X72233248Y-71870500D01*
X72280965Y-71972830D01*
X72280967Y-71972834D01*
X72416501Y-72166395D01*
X72416506Y-72166402D01*
X72583597Y-72333493D01*
X72583603Y-72333498D01*
X72769158Y-72463425D01*
X72812783Y-72518002D01*
X72819977Y-72587500D01*
X72788454Y-72649855D01*
X72769158Y-72666575D01*
X72583597Y-72796505D01*
X72416505Y-72963597D01*
X72280965Y-73157169D01*
X72280964Y-73157171D01*
X72181098Y-73371335D01*
X72181094Y-73371344D01*
X72119938Y-73599586D01*
X72119936Y-73599596D01*
X72099341Y-73834999D01*
X72099341Y-73835000D01*
X72119936Y-74070403D01*
X72119938Y-74070413D01*
X72181094Y-74298655D01*
X72181096Y-74298659D01*
X72181097Y-74298663D01*
X72203586Y-74346890D01*
X72280965Y-74512830D01*
X72280967Y-74512834D01*
X72416501Y-74706395D01*
X72416506Y-74706402D01*
X72583597Y-74873493D01*
X72583603Y-74873498D01*
X72769158Y-75003425D01*
X72812783Y-75058002D01*
X72819977Y-75127500D01*
X72788454Y-75189855D01*
X72769158Y-75206575D01*
X72583597Y-75336505D01*
X72416505Y-75503597D01*
X72280965Y-75697169D01*
X72280964Y-75697171D01*
X72181098Y-75911335D01*
X72181094Y-75911344D01*
X72119938Y-76139586D01*
X72119936Y-76139596D01*
X72099341Y-76374999D01*
X72099341Y-76375000D01*
X72119936Y-76610403D01*
X72119938Y-76610413D01*
X72181094Y-76838655D01*
X72181096Y-76838659D01*
X72181097Y-76838663D01*
X72280965Y-77052830D01*
X72280967Y-77052834D01*
X72416501Y-77246395D01*
X72416506Y-77246402D01*
X72583597Y-77413493D01*
X72583603Y-77413498D01*
X72769158Y-77543425D01*
X72812783Y-77598002D01*
X72819977Y-77667500D01*
X72788454Y-77729855D01*
X72769158Y-77746575D01*
X72583597Y-77876505D01*
X72416505Y-78043597D01*
X72280965Y-78237169D01*
X72280964Y-78237171D01*
X72181098Y-78451335D01*
X72181094Y-78451344D01*
X72119938Y-78679586D01*
X72119936Y-78679596D01*
X72099341Y-78914999D01*
X72099341Y-78915000D01*
X72119936Y-79150403D01*
X72119938Y-79150413D01*
X72181094Y-79378655D01*
X72181096Y-79378659D01*
X72181097Y-79378663D01*
X72280965Y-79592830D01*
X72280967Y-79592834D01*
X72416501Y-79786395D01*
X72416506Y-79786402D01*
X72583597Y-79953493D01*
X72583603Y-79953498D01*
X72769158Y-80083425D01*
X72812783Y-80138002D01*
X72819977Y-80207500D01*
X72788454Y-80269855D01*
X72769158Y-80286575D01*
X72583597Y-80416505D01*
X72416505Y-80583597D01*
X72280965Y-80777169D01*
X72280964Y-80777171D01*
X72181098Y-80991335D01*
X72181094Y-80991344D01*
X72119938Y-81219586D01*
X72119936Y-81219596D01*
X72099341Y-81454999D01*
X72099341Y-81455000D01*
X72119936Y-81690403D01*
X72119938Y-81690413D01*
X72181094Y-81918655D01*
X72181096Y-81918659D01*
X72181097Y-81918663D01*
X72273949Y-82117784D01*
X72280965Y-82132830D01*
X72280967Y-82132834D01*
X72416501Y-82326395D01*
X72416506Y-82326402D01*
X72583597Y-82493493D01*
X72583603Y-82493498D01*
X72769158Y-82623425D01*
X72812783Y-82678002D01*
X72819977Y-82747500D01*
X72788454Y-82809855D01*
X72769158Y-82826575D01*
X72583597Y-82956505D01*
X72416505Y-83123597D01*
X72280965Y-83317169D01*
X72280964Y-83317171D01*
X72181098Y-83531335D01*
X72181094Y-83531344D01*
X72119938Y-83759586D01*
X72119936Y-83759596D01*
X72099341Y-83994999D01*
X72099341Y-83995000D01*
X72119936Y-84230403D01*
X72119938Y-84230413D01*
X72181094Y-84458655D01*
X72181096Y-84458659D01*
X72181097Y-84458663D01*
X72229384Y-84562214D01*
X72280965Y-84672830D01*
X72280967Y-84672834D01*
X72416501Y-84866395D01*
X72416506Y-84866402D01*
X72583597Y-85033493D01*
X72583603Y-85033498D01*
X72769158Y-85163425D01*
X72812783Y-85218002D01*
X72819977Y-85287500D01*
X72788454Y-85349855D01*
X72769158Y-85366575D01*
X72583597Y-85496505D01*
X72416505Y-85663597D01*
X72280965Y-85857169D01*
X72280964Y-85857171D01*
X72181098Y-86071335D01*
X72181094Y-86071344D01*
X72119938Y-86299586D01*
X72119936Y-86299596D01*
X72099341Y-86534999D01*
X72099341Y-86535000D01*
X72119936Y-86770403D01*
X72119938Y-86770413D01*
X72181094Y-86998655D01*
X72181096Y-86998659D01*
X72181097Y-86998663D01*
X72280965Y-87212830D01*
X72280967Y-87212834D01*
X72416501Y-87406395D01*
X72416506Y-87406402D01*
X72583597Y-87573493D01*
X72583603Y-87573498D01*
X72769158Y-87703425D01*
X72812783Y-87758002D01*
X72819977Y-87827500D01*
X72788454Y-87889855D01*
X72769158Y-87906575D01*
X72583597Y-88036505D01*
X72416505Y-88203597D01*
X72280965Y-88397169D01*
X72280964Y-88397171D01*
X72181098Y-88611335D01*
X72181094Y-88611344D01*
X72119938Y-88839586D01*
X72119936Y-88839596D01*
X72099341Y-89074999D01*
X72099341Y-89075000D01*
X72119936Y-89310403D01*
X72119938Y-89310413D01*
X72181094Y-89538655D01*
X72181096Y-89538659D01*
X72181097Y-89538663D01*
X72280965Y-89752829D01*
X72280965Y-89752830D01*
X72280967Y-89752834D01*
X72416501Y-89946395D01*
X72416506Y-89946402D01*
X72583597Y-90113493D01*
X72583603Y-90113498D01*
X72769158Y-90243425D01*
X72812783Y-90298002D01*
X72819977Y-90367500D01*
X72788454Y-90429855D01*
X72769158Y-90446575D01*
X72583597Y-90576505D01*
X72416505Y-90743597D01*
X72280965Y-90937169D01*
X72280964Y-90937171D01*
X72181098Y-91151335D01*
X72181094Y-91151344D01*
X72119938Y-91379586D01*
X72119936Y-91379596D01*
X72099341Y-91614999D01*
X72099341Y-91615000D01*
X72119936Y-91850403D01*
X72119938Y-91850413D01*
X72181094Y-92078655D01*
X72181096Y-92078659D01*
X72181097Y-92078663D01*
X72280965Y-92292830D01*
X72280967Y-92292834D01*
X72416501Y-92486395D01*
X72416506Y-92486402D01*
X72583597Y-92653493D01*
X72583603Y-92653498D01*
X72769158Y-92783425D01*
X72812783Y-92838002D01*
X72819977Y-92907500D01*
X72788454Y-92969855D01*
X72769158Y-92986575D01*
X72583597Y-93116505D01*
X72416505Y-93283597D01*
X72280965Y-93477169D01*
X72280964Y-93477171D01*
X72181098Y-93691335D01*
X72181094Y-93691344D01*
X72119938Y-93919586D01*
X72119936Y-93919596D01*
X72099341Y-94154999D01*
X72099341Y-94155000D01*
X72119936Y-94390403D01*
X72119938Y-94390413D01*
X72181094Y-94618655D01*
X72181096Y-94618659D01*
X72181097Y-94618663D01*
X72265656Y-94800000D01*
X72280965Y-94832830D01*
X72280967Y-94832834D01*
X72416501Y-95026395D01*
X72416506Y-95026402D01*
X72583597Y-95193493D01*
X72583603Y-95193498D01*
X72769158Y-95323425D01*
X72812783Y-95378002D01*
X72819977Y-95447500D01*
X72788454Y-95509855D01*
X72769158Y-95526575D01*
X72583597Y-95656505D01*
X72416505Y-95823597D01*
X72280965Y-96017169D01*
X72280964Y-96017171D01*
X72181098Y-96231335D01*
X72181094Y-96231344D01*
X72119938Y-96459586D01*
X72119936Y-96459596D01*
X72099341Y-96694999D01*
X72099341Y-96695000D01*
X72119936Y-96930403D01*
X72119938Y-96930413D01*
X72126947Y-96956570D01*
X72125284Y-97026420D01*
X72086121Y-97084282D01*
X72021892Y-97111786D01*
X71956737Y-97101943D01*
X71949802Y-97098855D01*
X71804000Y-97067865D01*
X71764646Y-97059500D01*
X71575354Y-97059500D01*
X71542897Y-97066398D01*
X71390197Y-97098855D01*
X71390192Y-97098857D01*
X71217270Y-97175848D01*
X71217265Y-97175851D01*
X71064129Y-97287111D01*
X71064126Y-97287114D01*
X71059342Y-97292427D01*
X70999852Y-97329071D01*
X70929995Y-97327734D01*
X70871950Y-97288843D01*
X70844146Y-97224743D01*
X70843200Y-97209795D01*
X70742059Y-58830403D01*
X70720328Y-50584327D01*
X70739836Y-50517236D01*
X70792519Y-50471342D01*
X70844328Y-50460000D01*
X110396025Y-50460000D01*
X110463064Y-50479685D01*
G37*
G04 #@! TD.AperFunction*
M02*
